<svg width="211" height="228" viewBox="0 0 211 228" fill="none" xmlns="http://www.w3.org/2000/svg">
<path d="M181.024 218.806C181.024 223.755 176.452 227.767 170.815 227.767L14.2721 188.817C8.14647 187.341 4.06274 184.806 4.06274 179.856V41.5541C4.06274 36.6055 8.63346 32.5934 14.2721 32.5934L170.815 0.503906C176.452 0.503906 181.024 4.51496 181.024 9.46453V218.806Z" fill="#4866EA"/>
<path d="M176.961 218.806C176.961 223.755 172.538 229.199 166.752 227.767L10.2093 188.817C4.5942 187.341 0 184.806 0 179.856V41.5541C0 36.6055 4.57071 32.5934 10.2093 32.5934L166.752 0.503906C172.39 0.503906 176.961 4.51496 176.961 9.46453V218.806Z" fill="url(#paint0_linear_639_48219)"/>
<path d="M170.815 0L14.2721 32.0895C8.63448 32.0895 4.06274 36.6026 4.06274 42.1701V58.2861L181.024 39.3143V10.0806C181.024 4.51308 176.452 0 170.815 0Z" fill="#D3D4D5"/>
<path d="M166.752 0L10.2093 32.0895C4.57174 32.0895 0 36.6026 0 42.1701V59.3071L176.961 39.3142V10.0806C176.961 4.51308 172.39 0 166.752 0Z" fill="url(#paint1_linear_639_48219)"/>
<g filter="url(#filter0_d_639_48219)">
<path d="M90.182 159.289C90.182 161.609 88.278 163.49 85.9278 163.49L20.2471 150.385C17.898 150.385 15.9929 148.505 15.9929 146.184C15.9929 143.865 17.897 141.984 20.2471 141.984L85.9278 155.089C88.0769 155.388 90.182 156.969 90.182 159.289Z" fill="url(#paint2_linear_639_48219)"/>
</g>
<g filter="url(#filter1_d_639_48219)">
<path d="M136.124 190.859C136.124 193.178 134.22 195.059 131.87 195.059L20.2481 170.194C17.899 170.194 15.9939 168.314 15.9939 165.993C15.9939 163.674 17.8979 161.792 20.2481 161.792L131.87 186.658C134.22 186.658 136.124 188.539 136.124 190.859Z" fill="url(#paint3_linear_639_48219)"/>
</g>
<g filter="url(#filter2_d_639_48219)">
<path d="M52.7347 42.6476C55.9224 42.6476 58.5065 40.096 58.5065 36.9486C58.5065 33.8011 55.9224 31.2495 52.7347 31.2495C49.547 31.2495 46.9629 33.8011 46.9629 36.9486C46.9629 40.096 49.547 42.6476 52.7347 42.6476Z" fill="url(#paint4_radial_639_48219)"/>
</g>
<g filter="url(#filter3_d_639_48219)">
<path d="M34.3579 45.672C37.5456 45.672 40.1297 43.1205 40.1297 39.973C40.1297 36.8255 37.5456 34.2739 34.3579 34.2739C31.1702 34.2739 28.5861 36.8255 28.5861 39.973C28.5861 43.1205 31.1702 45.672 34.3579 45.672Z" fill="url(#paint5_radial_639_48219)"/>
</g>
<g filter="url(#filter4_d_639_48219)">
<path d="M18.023 48.6959C21.2107 48.6959 23.7949 46.1444 23.7949 42.9969C23.7949 39.8494 21.2107 37.2979 18.023 37.2979C14.8354 37.2979 12.2512 39.8494 12.2512 42.9969C12.2512 46.1444 14.8354 48.6959 18.023 48.6959Z" fill="url(#paint6_radial_639_48219)"/>
</g>
<path d="M80.7001 93.8487C77.6066 93.8487 74.7079 95.9771 73.7877 98.9354L72.0518 104.548L60.5804 72.0121C58.8901 67.198 52.9281 66.5939 50.2419 70.865L34.4832 95.917H22.1672C19.4199 95.917 17.1865 98.15 17.1865 100.897C17.1865 103.644 19.4053 105.878 22.1527 105.878H35.5558C38.1819 105.878 40.9292 104.368 42.3324 102.135L54.0753 83.4827L66.9954 120.502C68.9127 125.935 75.9308 125.678 77.6055 120.29L82.722 103.825H119.684C122.432 103.825 124.665 101.592 124.665 98.8453C124.665 96.0994 122.432 93.8653 119.699 93.8653H80.699V93.8487H80.7001Z" fill="white"/>
<g filter="url(#filter5_d_639_48219)">
<path d="M80.5135 93.8487C77.4201 93.8487 74.5214 95.9771 73.6011 98.9354L71.8652 104.548L60.3939 72.0121C58.7036 67.198 52.7415 66.5939 50.0553 70.865L34.2966 95.917H21.9807C19.2333 95.917 17 98.15 17 100.897C17 103.644 19.2188 105.878 21.9662 105.878H35.3693C37.9954 105.878 40.7427 104.368 42.1459 102.135L53.8888 83.4827L66.8089 120.502C68.7261 125.935 75.7443 125.678 77.419 120.29L82.5355 103.825H119.498C122.245 103.825 124.478 101.592 124.478 98.8453C124.478 96.0994 122.245 93.8653 119.512 93.8653H80.5125V93.8487H80.5135Z" fill="white"/>
</g>
<g filter="url(#filter6_d_639_48219)">
<path d="M124.811 66.3475L130.356 64.8018C127.321 65.6478 124.514 67.303 122.097 69.7361C121.849 69.9855 121.607 70.2414 121.371 70.5032L115.825 72.0489C116.062 71.7871 116.304 71.5312 116.551 71.2818C118.968 68.8487 121.775 67.1935 124.811 66.3475Z" fill="url(#paint7_linear_639_48219)"/>
<path d="M115.825 72.0486L121.37 70.5029C120.848 71.0815 120.354 71.6905 119.887 72.3285L114.342 73.8742C114.808 73.2362 115.303 72.6265 115.825 72.0486Z" fill="url(#paint8_linear_639_48219)"/>
<path d="M114.342 73.8738L119.887 72.3281C119.52 72.8305 119.17 73.3518 118.838 73.889L113.293 75.4347C113.625 74.8975 113.974 74.377 114.342 73.8738Z" fill="url(#paint9_linear_639_48219)"/>
<path d="M113.293 75.4344L118.838 73.8887C118.553 74.3505 118.282 74.8246 118.023 75.3111L112.478 76.8568C112.736 76.3711 113.008 75.8969 113.293 75.4344Z" fill="url(#paint10_linear_639_48219)"/>
<path d="M112.478 76.8572L118.024 75.3115C117.789 75.753 117.565 76.204 117.354 76.6644L111.808 78.2101C112.02 77.7504 112.243 77.2987 112.478 76.8572Z" fill="url(#paint11_linear_639_48219)"/>
<path d="M111.808 78.2107L117.354 76.665C117.157 77.0921 116.97 77.5271 116.793 77.97L111.248 79.5157C111.425 79.0728 111.612 78.6378 111.808 78.2107Z" fill="url(#paint12_linear_639_48219)"/>
<path d="M111.247 79.5154L116.792 77.9697C116.624 78.3917 116.464 78.8202 116.313 79.2552L110.768 80.8008C110.919 80.3658 111.079 79.9367 111.247 79.5154Z" fill="url(#paint13_linear_639_48219)"/>
<path d="M110.768 80.8016L116.313 79.2559C116.168 79.6764 116.031 80.1019 115.902 80.534L110.357 82.0797C110.486 81.6476 110.623 81.2213 110.768 80.8016Z" fill="url(#paint14_linear_639_48219)"/>
<path d="M110.357 82.0799L115.902 80.5342C115.777 80.9554 115.66 81.3817 115.551 81.8138L110.005 83.3595C110.114 82.9274 110.232 82.5011 110.357 82.0799Z" fill="url(#paint15_linear_639_48219)"/>
<path d="M110.005 83.3597L115.551 81.814C115.443 82.2395 115.343 82.6709 115.252 83.1066L109.706 84.6523C109.798 84.2166 109.898 83.7852 110.005 83.3597Z" fill="url(#paint16_linear_639_48219)"/>
<path d="M109.707 84.6521L115.253 83.1064C115.161 83.5407 115.078 83.9793 115.002 84.423L109.457 85.9687C109.532 85.525 109.616 85.0857 109.707 84.6521Z" fill="url(#paint17_linear_639_48219)"/>
<path d="M109.457 85.969L115.002 84.4233C114.927 84.8692 114.86 85.3194 114.8 85.774L109.255 87.3197C109.314 86.8651 109.381 86.4149 109.457 85.969Z" fill="url(#paint18_linear_639_48219)"/>
<path d="M109.255 87.3201L114.8 85.7744C114.74 86.2348 114.688 86.7002 114.644 87.17L109.099 88.7157C109.142 88.2459 109.194 87.7805 109.255 87.3201Z" fill="url(#paint19_linear_639_48219)"/>
<path d="M109.099 88.7161L114.644 87.1704C114.6 87.6504 114.565 88.1347 114.538 88.6233L108.992 90.169C109.018 89.6796 109.055 89.1953 109.099 88.7161Z" fill="url(#paint20_linear_639_48219)"/>
<path d="M108.992 90.1688L114.538 88.623C114.513 89.0667 114.496 89.5141 114.487 89.9658C114.485 90.0274 114.484 90.089 114.483 90.1506L108.938 91.6963C108.938 91.6347 108.94 91.5731 108.941 91.5114C108.951 91.0605 108.967 90.6125 108.992 90.1688Z" fill="url(#paint21_linear_639_48219)"/>
<path d="M108.938 91.6966L114.483 90.1509C114.475 90.6794 114.476 91.2072 114.487 91.735L108.941 93.2807C108.931 92.7529 108.929 92.2251 108.938 91.6966Z" fill="url(#paint22_linear_639_48219)"/>
<path d="M108.942 93.2806L114.488 91.7349C114.5 92.2837 114.522 92.8318 114.557 93.3799L109.011 94.9256C108.977 94.3775 108.954 93.8294 108.942 93.2806Z" fill="url(#paint23_linear_639_48219)"/>
<path d="M109.011 94.9246L114.557 93.3789C114.592 93.9575 114.641 94.5346 114.7 95.1102L109.155 96.6559C109.094 96.081 109.047 95.5032 109.011 94.9246Z" fill="url(#paint24_linear_639_48219)"/>
<path d="M109.155 96.656L114.7 95.1104C114.765 95.7346 114.844 96.3566 114.937 96.9772L109.392 98.5229C109.299 97.903 109.22 97.2803 109.155 96.656Z" fill="url(#paint25_linear_639_48219)"/>
<path d="M109.392 98.5227L114.937 96.9771C115.042 97.6709 115.163 98.3618 115.302 99.0491L109.756 100.595C109.617 99.9075 109.496 99.2166 109.392 98.5227Z" fill="url(#paint26_linear_639_48219)"/>
<path d="M109.756 100.595L115.302 99.0493C115.469 99.8758 115.661 100.697 115.877 101.511L110.331 103.056C110.115 102.243 109.923 101.422 109.756 100.595Z" fill="url(#paint27_linear_639_48219)"/>
<path d="M110.331 103.056L115.877 101.511C116.201 102.73 116.58 103.933 117.013 105.116L111.467 106.662C111.035 105.479 110.656 104.276 110.331 103.056Z" fill="url(#paint28_linear_639_48219)"/>
<path d="M111.468 106.662L117.014 105.116C117.866 107.446 118.928 109.695 120.186 111.825L114.641 113.37C113.382 111.24 112.321 108.991 111.468 106.662Z" fill="url(#paint29_linear_639_48219)"/>
<path d="M114.641 113.37L120.186 111.825C120.502 112.358 120.83 112.885 121.17 113.404C121.551 113.984 121.944 114.549 122.347 115.096L116.801 116.642C116.398 116.094 116.006 115.531 115.624 114.95C115.284 114.431 114.956 113.904 114.641 113.37Z" fill="url(#paint30_linear_639_48219)"/>
<path d="M116.801 116.641L122.347 115.095C122.852 115.78 123.373 116.439 123.91 117.071L118.365 118.617C117.828 117.986 117.306 117.327 116.801 116.641Z" fill="url(#paint31_linear_639_48219)"/>
<path d="M118.365 118.617L123.911 117.071C124.346 117.583 124.791 118.076 125.247 118.551L119.701 120.097C119.246 119.622 118.8 119.128 118.365 118.617Z" fill="url(#paint32_linear_639_48219)"/>
<path d="M119.7 120.097L125.246 118.551C125.651 118.973 126.062 119.381 126.481 119.773L120.935 121.319C120.517 120.926 120.105 120.519 119.7 120.097Z" fill="url(#paint33_linear_639_48219)"/>
<path d="M120.935 121.318L126.481 119.772C126.859 120.127 127.243 120.469 127.633 120.799L122.087 122.345C121.698 122.015 121.314 121.673 120.935 121.318Z" fill="url(#paint34_linear_639_48219)"/>
<path d="M122.087 122.345L127.633 120.799C127.999 121.11 128.371 121.408 128.746 121.695L123.201 123.241C122.825 122.953 122.454 122.655 122.087 122.345Z" fill="url(#paint35_linear_639_48219)"/>
<path d="M123.201 123.241L128.746 121.695C129.104 121.97 129.467 122.234 129.834 122.488L124.288 124.033C123.921 123.78 123.559 123.516 123.201 123.241Z" fill="url(#paint36_linear_639_48219)"/>
<path d="M124.287 124.033L129.833 122.488C130.186 122.732 130.542 122.966 130.902 123.191L125.356 124.737C124.997 124.512 124.641 124.278 124.287 124.033Z" fill="url(#paint37_linear_639_48219)"/>
<path d="M125.357 124.737L130.902 123.19C131.255 123.411 131.61 123.621 131.969 123.822L126.423 125.368C126.064 125.167 125.708 124.957 125.357 124.737Z" fill="url(#paint38_linear_639_48219)"/>
<path d="M126.423 125.368L131.968 123.823C132.322 124.021 132.679 124.21 133.04 124.39L127.494 125.935C127.134 125.756 126.777 125.567 126.423 125.368Z" fill="url(#paint39_linear_639_48219)"/>
<path d="M127.494 125.935L133.04 124.39C133.399 124.569 133.76 124.738 134.124 124.898L128.579 126.444C128.214 126.283 127.852 126.114 127.494 125.935Z" fill="url(#paint40_linear_639_48219)"/>
<path d="M128.578 126.444L134.124 124.898C134.49 125.059 134.858 125.21 135.229 125.351L129.684 126.897C129.313 126.756 128.944 126.605 128.578 126.444Z" fill="url(#paint41_linear_639_48219)"/>
<path d="M129.684 126.897L135.229 125.351C135.605 125.494 135.984 125.627 136.364 125.751L130.819 127.296C130.438 127.173 130.06 127.04 129.684 126.897Z" fill="url(#paint42_linear_639_48219)"/>
<path d="M130.82 127.296L136.365 125.75C136.756 125.877 137.15 125.991 137.545 126.096L131.999 127.642C131.604 127.537 131.21 127.422 130.82 127.296Z" fill="url(#paint43_linear_639_48219)"/>
<path d="M131.999 127.641L137.545 126.095C137.808 126.164 138.073 126.229 138.338 126.289C138.484 126.322 138.63 126.353 138.776 126.383L133.23 127.928C133.085 127.899 132.938 127.867 132.792 127.835C132.527 127.775 132.262 127.711 131.999 127.641Z" fill="url(#paint44_linear_639_48219)"/>
<path d="M133.23 127.928L138.776 126.382C139.201 126.469 139.623 126.541 140.044 126.601L134.498 128.146C134.078 128.087 133.655 128.014 133.23 127.928Z" fill="url(#paint45_linear_639_48219)"/>
<path d="M134.498 128.146L140.044 126.601C140.484 126.662 140.921 126.709 141.356 126.741L135.811 128.287C135.376 128.255 134.938 128.208 134.498 128.146Z" fill="url(#paint46_linear_639_48219)"/>
<path d="M135.811 128.287L141.357 126.741C141.824 126.776 142.287 126.794 142.747 126.795L137.202 128.341C136.742 128.34 136.278 128.322 135.811 128.287Z" fill="url(#paint47_linear_639_48219)"/>
<path d="M137.202 128.341L142.747 126.795C143.249 126.797 143.746 126.778 144.24 126.739L138.695 128.285C138.201 128.323 137.703 128.342 137.202 128.341Z" fill="url(#paint48_linear_639_48219)"/>
<path d="M138.695 128.285L144.24 126.739C144.809 126.694 145.371 126.624 145.927 126.527L140.381 128.073C139.825 128.17 139.262 128.24 138.695 128.285Z" fill="url(#paint49_linear_639_48219)"/>
<path d="M140.38 128.072L145.926 126.527C146.502 126.426 147.071 126.298 147.632 126.142L142.086 127.687C141.525 127.844 140.957 127.972 140.38 128.072Z" fill="url(#paint50_linear_639_48219)"/>
</g>
<path d="M160.876 69.3982L166.421 67.8525C166.949 68.6558 167.458 69.4722 167.947 70.3016L162.401 71.8473C161.912 71.0179 161.402 70.2015 160.876 69.3982Z" fill="#DAB803"/>
<path d="M162.401 71.8465L167.947 70.3008C169.899 73.6061 171.549 77.1056 172.876 80.7285L167.33 82.2742C166.003 78.6513 164.354 75.1518 162.401 71.8465Z" fill="#DCB803"/>
<path d="M167.33 82.2752L172.876 80.7295C173.552 82.5761 174.144 84.4553 174.65 86.3562L169.104 87.9019C168.599 86.0002 168.007 84.1218 167.33 82.2752Z" fill="#DCB803"/>
<path d="M169.104 87.9017L174.65 86.356C174.986 87.6204 175.284 88.8949 175.543 90.1774L169.997 91.7231C169.739 90.4406 169.441 89.1661 169.104 87.9017Z" fill="#DCB803"/>
<path d="M169.998 91.7225L175.543 90.1768C175.757 91.2353 175.944 92.2996 176.104 93.366L170.558 94.9117C170.399 93.8453 170.212 92.7817 169.998 91.7225Z" fill="#DCB803"/>
<path d="M170.558 94.9124L176.104 93.3667C176.247 94.3179 176.368 95.2713 176.468 96.2261L170.922 97.7718C170.823 96.817 170.702 95.8636 170.558 94.9124Z" fill="#DCB803"/>
<path d="M170.922 97.7728L176.468 96.2271C176.559 97.0992 176.631 97.9729 176.685 98.8472L171.14 100.393C171.085 99.5178 171.013 98.6449 170.922 97.7728Z" fill="#DCB803"/>
<path d="M171.14 100.392L176.685 98.8462C176.736 99.6698 176.771 100.493 176.789 101.318L171.244 102.863C171.225 102.04 171.191 101.215 171.14 100.392Z" fill="#DCB803"/>
<path d="M171.244 102.864L176.789 101.318C176.806 102.104 176.809 102.89 176.796 103.675L171.25 105.221C171.263 104.436 171.261 103.649 171.244 102.864Z" fill="#DCB803"/>
<path d="M171.249 105.221L176.795 103.675C176.793 103.767 176.792 103.859 176.79 103.95C176.775 104.618 176.75 105.281 176.714 105.941L171.168 107.487C171.204 106.828 171.23 106.164 171.244 105.496C171.247 105.404 171.248 105.312 171.249 105.221Z" fill="#DCB803"/>
<path d="M171.169 107.486L176.715 105.94C176.675 106.671 176.622 107.396 176.555 108.115L171.009 109.66C171.076 108.942 171.129 108.217 171.169 107.486Z" fill="#DCB803"/>
<path d="M171.009 109.66L176.555 108.115C176.489 108.823 176.411 109.525 176.32 110.221L170.775 111.767C170.866 111.071 170.944 110.369 171.009 109.66Z" fill="#DCB803"/>
<path d="M170.774 111.767L176.32 110.222C176.23 110.912 176.127 111.596 176.012 112.274L170.466 113.82C170.582 113.142 170.685 112.458 170.774 111.767Z" fill="#DCB803"/>
<path d="M170.466 113.82L176.012 112.274C175.897 112.953 175.77 113.624 175.63 114.289L170.084 115.834C170.224 115.17 170.352 114.497 170.466 113.82Z" fill="#DCB803"/>
<path d="M170.084 115.834L175.63 114.289C175.489 114.959 175.336 115.623 175.17 116.278L169.625 117.824C169.791 117.168 169.944 116.505 170.084 115.834Z" fill="#DCB803"/>
<path d="M169.625 117.825L175.17 116.278C175.002 116.947 174.82 117.607 174.626 118.259L169.08 119.805C169.275 119.153 169.456 118.493 169.625 117.825Z" fill="#DCB803"/>
<path d="M169.08 119.805L174.626 118.26C174.427 118.93 174.214 119.592 173.988 120.244L168.442 121.79C168.668 121.138 168.881 120.475 169.08 119.805Z" fill="#DCB803"/>
<path d="M168.442 121.79L173.988 120.244C173.754 120.921 173.505 121.588 173.243 122.244L167.698 123.789C167.959 123.133 168.208 122.467 168.442 121.79Z" fill="#DCB803"/>
<path d="M167.698 123.789L173.243 122.244C172.965 122.938 172.672 123.62 172.364 124.291L166.817 125.837C167.126 125.166 167.42 124.484 167.698 123.789Z" fill="#DCB803"/>
<path d="M166.817 125.837L172.364 124.291C172.032 125.009 171.684 125.713 171.319 126.401L165.773 127.947C166.139 127.258 166.487 126.554 166.817 125.837Z" fill="#DCB803"/>
<path d="M165.773 127.947L171.319 126.4C170.915 127.16 170.491 127.9 170.047 128.621L164.501 130.167C164.946 129.446 165.37 128.706 165.773 127.947Z" fill="#DCB803"/>
<path d="M164.501 130.168L170.047 128.622C169.53 129.459 168.986 130.269 168.415 131.052L162.87 132.597C163.44 131.814 163.985 131.004 164.501 130.168Z" fill="#DCB803"/>
<path d="M162.87 132.596L168.415 131.051C168.188 131.361 167.957 131.668 167.722 131.969C167.207 132.628 166.673 133.266 166.119 133.881L160.573 135.427C161.128 134.812 161.662 134.174 162.177 133.515C162.412 133.213 162.642 132.908 162.87 132.596Z" fill="#DCB803"/>
<path d="M160.573 135.427L166.119 133.881C165.752 134.287 165.378 134.682 164.996 135.067C164.032 136.037 163.029 136.929 161.99 137.74C158.974 140.093 155.657 141.774 152.144 142.754L146.599 144.3C150.111 143.32 153.428 141.639 156.444 139.285C157.484 138.475 158.486 137.583 159.45 136.613C159.833 136.227 160.207 135.832 160.573 135.427Z" fill="#DCB803"/>
<path d="M162.177 133.515L167.722 131.969L169.964 135.383L164.418 136.928L162.177 133.515Z" fill="url(#paint51_linear_639_48219)"/>
<path d="M158.685 142.698L164.231 141.152L180.984 166.666L175.438 168.212L158.685 142.698Z" fill="#7D7D7D"/>
<g filter="url(#filter7_d_639_48219)">
<path d="M178.47 171.934L184.015 170.388C183.455 171.005 182.828 171.396 182.158 171.582L176.613 173.127C177.283 172.942 177.909 172.551 178.47 171.934Z" fill="url(#paint52_linear_639_48219)"/>
</g>
<path d="M175.438 168.212L180.984 166.666C181.048 166.764 181.114 166.859 181.182 166.951L175.636 168.497C175.568 168.405 175.503 168.31 175.438 168.212Z" fill="#777777"/>
<path d="M175.636 168.497L181.182 166.951C181.268 167.068 181.357 167.18 181.449 167.288L175.903 168.834C175.812 168.726 175.723 168.614 175.636 168.497Z" fill="#757575"/>
<path d="M175.903 168.834L181.449 167.288C181.523 167.376 181.599 167.46 181.677 167.542L176.131 169.088C176.054 169.006 175.978 168.922 175.903 168.834Z" fill="#727272"/>
<path d="M176.132 169.087L181.678 167.541C181.747 167.614 181.817 167.683 181.889 167.75L176.344 169.296C176.272 169.23 176.201 169.159 176.132 169.087Z" fill="#707070"/>
<path d="M176.344 169.296L181.889 167.75C181.954 167.811 182.02 167.87 182.086 167.926L176.54 169.472C176.474 169.415 176.408 169.357 176.344 169.296Z" fill="#6D6D6D"/>
<path d="M176.54 169.472L182.086 167.927C182.149 167.979 182.212 168.03 182.276 168.079L176.73 169.625C176.667 169.575 176.603 169.525 176.54 169.472Z" fill="#6B6B6B"/>
<path d="M176.73 169.624L182.276 168.078C182.336 168.124 182.397 168.169 182.458 168.211L176.912 169.757C176.851 169.714 176.791 169.67 176.73 169.624Z" fill="#686868"/>
<path d="M176.912 169.757L182.458 168.211C182.517 168.252 182.576 168.291 182.635 168.328L177.09 169.874C177.031 169.836 176.971 169.798 176.912 169.757Z" fill="#666666"/>
<path d="M177.09 169.874L182.635 168.329C182.693 168.365 182.751 168.399 182.809 168.432L177.265 169.978C177.206 169.945 177.148 169.911 177.09 169.874Z" fill="#636363"/>
<path d="M177.265 169.978L182.809 168.432C182.867 168.464 182.925 168.494 182.982 168.523L177.436 170.069C177.379 170.04 177.321 170.01 177.265 169.978Z" fill="#616161"/>
<path d="M177.437 170.069L182.983 168.523C183.04 168.552 183.097 168.579 183.154 168.603L177.608 170.149C177.551 170.124 177.494 170.097 177.437 170.069Z" fill="#5E5E5E"/>
<path d="M177.608 170.149L183.154 168.603C183.211 168.628 183.268 168.652 183.325 168.673L177.779 170.22C177.722 170.197 177.666 170.174 177.608 170.149Z" fill="#5B5B5B"/>
<path d="M177.779 170.22L183.325 168.673C183.382 168.695 183.44 168.716 183.498 168.734L177.951 170.28C177.894 170.261 177.837 170.241 177.779 170.22Z" fill="#595959"/>
<path d="M177.952 170.28L183.498 168.734C183.555 168.753 183.613 168.77 183.672 168.785L178.127 170.331C178.068 170.316 178.01 170.299 177.952 170.28Z" fill="#565656"/>
<path d="M178.127 170.331L183.672 168.785C183.711 168.795 183.748 168.804 183.787 168.813C183.807 168.818 183.829 168.823 183.85 168.827L178.304 170.373C178.283 170.369 178.262 170.363 178.241 170.359C178.203 170.35 178.164 170.341 178.127 170.331Z" fill="#545454"/>
<path d="M178.304 170.373L183.85 168.827C183.913 168.84 183.975 168.85 184.038 168.859L178.493 170.405C178.43 170.396 178.367 170.385 178.304 170.373Z" fill="#515151"/>
<path d="M178.493 170.405L184.038 168.859C184.106 168.869 184.174 168.876 184.241 168.881L178.695 170.426C178.628 170.421 178.559 170.414 178.493 170.405Z" fill="#4F4F4F"/>
<path d="M178.695 170.427L184.241 168.881C184.315 168.887 184.388 168.89 184.462 168.89L178.916 170.435C178.842 170.435 178.768 170.432 178.695 170.427Z" fill="#4C4C4C"/>
<path d="M178.916 170.436L184.462 168.89C184.544 168.89 184.627 168.887 184.708 168.88L179.163 170.426C179.081 170.433 178.999 170.436 178.916 170.436Z" fill="#4A4A4A"/>
<path d="M179.162 170.426L184.708 168.88C184.803 168.872 184.898 168.86 184.992 168.844L179.447 170.389C179.353 170.407 179.258 170.418 179.162 170.426Z" fill="#474747"/>
<path d="M179.447 170.39L184.992 168.844C185.09 168.827 185.187 168.805 185.282 168.779L179.736 170.325C179.642 170.351 179.545 170.373 179.447 170.39Z" fill="#454545"/>
<path d="M164.418 136.929L169.964 135.383L186.717 160.896L181.171 162.442L164.418 136.929Z" fill="#7D7D7D"/>
<path d="M165.902 136.155L171.447 134.609C171.573 134.574 171.702 134.545 171.831 134.523L166.285 136.069C166.156 136.092 166.028 136.121 165.902 136.155Z" fill="url(#paint53_linear_639_48219)"/>
<path d="M166.286 136.069L171.832 134.523C171.953 134.502 172.077 134.485 172.202 134.477L166.656 136.022C166.532 136.032 166.408 136.048 166.286 136.069Z" fill="url(#paint54_linear_639_48219)"/>
<path d="M166.656 136.022L172.201 134.476C172.307 134.468 172.412 134.463 172.519 134.463L166.973 136.01C166.867 136.009 166.762 136.013 166.656 136.022Z" fill="url(#paint55_linear_639_48219)"/>
<path d="M166.974 136.01L172.52 134.463C172.614 134.464 172.708 134.468 172.803 134.475L167.257 136.021C167.162 136.013 167.068 136.01 166.974 136.01Z" fill="url(#paint56_linear_639_48219)"/>
<path d="M167.257 136.021L172.803 134.475C172.889 134.482 172.974 134.49 173.06 134.503L167.514 136.048C167.429 136.036 167.343 136.027 167.257 136.021Z" fill="url(#paint57_linear_639_48219)"/>
<path d="M167.514 136.048L173.06 134.502C173.139 134.514 173.218 134.527 173.298 134.544L167.753 136.089C167.673 136.073 167.593 136.06 167.514 136.048Z" fill="url(#paint58_linear_639_48219)"/>
<path d="M167.753 136.09L173.298 134.544C173.325 134.549 173.352 134.555 173.379 134.561C173.435 134.574 173.491 134.587 173.547 134.602L168.001 136.148C167.946 136.132 167.889 136.119 167.833 136.106C167.806 136.101 167.78 136.094 167.753 136.09Z" fill="url(#paint59_linear_639_48219)"/>
<path d="M168.002 136.148L173.548 134.602C173.631 134.624 173.714 134.648 173.798 134.675L168.252 136.221C168.169 136.194 168.085 136.17 168.002 136.148Z" fill="url(#paint60_linear_639_48219)"/>
<path d="M168.252 136.22L173.798 134.674C173.877 134.7 173.957 134.728 174.036 134.758L168.491 136.304C168.411 136.274 168.332 136.246 168.252 136.22Z" fill="url(#paint61_linear_639_48219)"/>
<path d="M168.491 136.304L174.036 134.758C174.113 134.787 174.191 134.819 174.267 134.853L168.721 136.399C168.645 136.365 168.568 136.334 168.491 136.304Z" fill="url(#paint62_linear_639_48219)"/>
<path d="M168.721 136.399L174.267 134.853C174.342 134.887 174.418 134.921 174.494 134.958L168.948 136.504C168.873 136.467 168.797 136.432 168.721 136.399Z" fill="url(#paint63_linear_639_48219)"/>
<path d="M168.948 136.505L174.494 134.959C174.568 134.997 174.642 135.036 174.716 135.078L169.171 136.623C169.097 136.581 169.022 136.543 168.948 136.505Z" fill="url(#paint64_linear_639_48219)"/>
<path d="M169.17 136.623L174.716 135.078C174.79 135.12 174.863 135.162 174.937 135.209L169.392 136.755C169.318 136.708 169.245 136.665 169.17 136.623Z" fill="url(#paint65_linear_639_48219)"/>
<path d="M169.392 136.754L174.937 135.208C175.012 135.255 175.086 135.304 175.16 135.354L169.614 136.901C169.54 136.849 169.466 136.801 169.392 136.754Z" fill="url(#paint66_linear_639_48219)"/>
<path d="M169.615 136.901L175.16 135.354C175.235 135.407 175.312 135.463 175.387 135.521L169.841 137.066C169.766 137.008 169.691 136.953 169.615 136.901Z" fill="url(#paint67_linear_639_48219)"/>
<path d="M169.841 137.065L175.386 135.52C175.465 135.58 175.543 135.642 175.62 135.707L170.074 137.253C169.997 137.188 169.919 137.125 169.841 137.065Z" fill="url(#paint68_linear_639_48219)"/>
<path d="M170.074 137.253L175.62 135.708C175.701 135.777 175.783 135.849 175.862 135.925L170.318 137.471C170.237 137.395 170.157 137.323 170.074 137.253Z" fill="url(#paint69_linear_639_48219)"/>
<path d="M170.318 137.471L175.863 135.925C175.952 136.007 176.039 136.094 176.126 136.184L170.58 137.73C170.494 137.64 170.406 137.553 170.318 137.471Z" fill="url(#paint70_linear_639_48219)"/>
<path d="M170.581 137.73L176.126 136.185C176.224 136.288 176.321 136.393 176.415 136.504L170.869 138.051C170.775 137.94 170.678 137.833 170.581 137.73Z" fill="url(#paint71_linear_639_48219)"/>
<path d="M170.87 138.051L176.415 136.505C176.533 136.644 176.649 136.791 176.762 136.943L171.217 138.489C171.104 138.336 170.988 138.19 170.87 138.051Z" fill="url(#paint72_linear_639_48219)"/>
<path d="M171.216 138.489L176.761 136.943C176.854 137.068 176.943 137.197 177.03 137.331L171.485 138.876C171.397 138.743 171.307 138.614 171.216 138.489Z" fill="url(#paint73_linear_639_48219)"/>
<g filter="url(#filter8_d_639_48219)">
<path d="M180.276 170.116L185.821 168.57L184.016 170.388L178.47 171.935L180.276 170.116Z" fill="url(#paint74_linear_639_48219)"/>
</g>
<path d="M175.438 168.212C176.192 169.359 177.211 170.128 178.241 170.359C178.951 170.519 179.668 170.423 180.276 170.116L178.47 171.935C177.405 173.105 176.105 173.461 174.728 173.153C173.442 172.864 172.084 171.911 171.075 170.383L158.788 151.664C157.868 150.264 157.302 148.397 157.339 146.671C157.372 145.115 157.819 143.735 158.686 142.698L175.438 168.212Z" fill="url(#paint75_linear_639_48219)"/>
<g filter="url(#filter9_d_639_48219)">
<path d="M181.171 162.442L186.716 160.896C186.782 160.996 186.845 161.096 186.904 161.197L181.359 162.743C181.299 162.642 181.236 162.541 181.171 162.442Z" fill="url(#paint76_linear_639_48219)"/>
<path d="M181.359 162.743L186.904 161.197C187.125 161.569 187.309 161.955 187.454 162.354L181.909 163.899C181.762 163.501 181.578 163.115 181.359 162.743Z" fill="url(#paint77_linear_639_48219)"/>
<path d="M181.909 163.899L187.454 162.354C187.523 162.539 187.582 162.728 187.632 162.918L182.087 164.464C182.036 164.273 181.976 164.085 181.909 163.899Z" fill="url(#paint78_linear_639_48219)"/>
<path d="M182.087 164.464L187.632 162.918C187.665 163.044 187.695 163.171 187.721 163.298L182.176 164.843C182.15 164.716 182.12 164.59 182.087 164.464Z" fill="url(#paint79_linear_639_48219)"/>
<path d="M182.176 164.844L187.721 163.298C187.742 163.403 187.761 163.509 187.776 163.616L182.231 165.162C182.215 165.055 182.196 164.949 182.176 164.844Z" fill="url(#paint80_linear_639_48219)"/>
<path d="M182.231 165.161L187.776 163.615C187.792 163.711 187.803 163.809 187.814 163.905L182.268 165.451C182.258 165.355 182.245 165.258 182.231 165.161Z" fill="url(#paint81_linear_639_48219)"/>
<path d="M182.268 165.452L187.814 163.906C187.823 163.997 187.83 164.088 187.836 164.178L182.29 165.725C182.284 165.633 182.277 165.543 182.268 165.452Z" fill="url(#paint82_linear_639_48219)"/>
<path d="M182.29 165.725L187.836 164.178C187.842 164.266 187.845 164.354 187.847 164.442L182.302 165.988C182.3 165.899 182.296 165.812 182.29 165.725Z" fill="url(#paint83_linear_639_48219)"/>
<path d="M182.302 165.988L187.847 164.442C187.85 164.529 187.85 164.615 187.848 164.701L182.303 166.248C182.303 166.161 182.303 166.074 182.302 165.988Z" fill="url(#paint84_linear_639_48219)"/>
<path d="M182.303 166.248L187.848 164.701C187.848 164.712 187.847 164.721 187.847 164.732C187.846 164.797 187.844 164.861 187.84 164.925L182.295 166.471C182.298 166.407 182.3 166.343 182.302 166.278C182.302 166.268 182.303 166.258 182.303 166.248Z" fill="url(#paint85_linear_639_48219)"/>
<path d="M182.295 166.471L187.84 164.925C187.836 164.997 187.831 165.068 187.824 165.139L182.279 166.685C182.285 166.614 182.29 166.543 182.295 166.471Z" fill="url(#paint86_linear_639_48219)"/>
<path d="M182.278 166.685L187.823 165.139C187.817 165.21 187.809 165.28 187.8 165.35L182.255 166.896C182.264 166.826 182.272 166.755 182.278 166.685Z" fill="url(#paint87_linear_639_48219)"/>
<path d="M182.255 166.896L187.8 165.35C187.791 165.42 187.781 165.489 187.769 165.558L182.224 167.104C182.236 167.035 182.245 166.965 182.255 166.896Z" fill="url(#paint88_linear_639_48219)"/>
<path d="M182.224 167.104L187.769 165.558C187.757 165.628 187.744 165.697 187.729 165.765L182.184 167.312C182.199 167.243 182.212 167.174 182.224 167.104Z" fill="url(#paint89_linear_639_48219)"/>
<path d="M182.184 167.312L187.729 165.765C187.715 165.835 187.699 165.904 187.681 165.973L182.136 167.52C182.153 167.45 182.17 167.381 182.184 167.312Z" fill="url(#paint90_linear_639_48219)"/>
<path d="M182.136 167.52L187.681 165.974C187.664 166.045 187.644 166.114 187.624 166.183L182.079 167.729C182.099 167.66 182.118 167.59 182.136 167.52Z" fill="url(#paint91_linear_639_48219)"/>
<path d="M182.079 167.729L187.624 166.183C187.603 166.255 187.58 166.325 187.556 166.396L182.01 167.941C182.034 167.872 182.058 167.801 182.079 167.729Z" fill="url(#paint92_linear_639_48219)"/>
<path d="M182.01 167.941L187.556 166.396C187.531 166.469 187.504 166.541 187.475 166.612L181.93 168.157C181.958 168.086 181.985 168.014 182.01 167.941Z" fill="url(#paint93_linear_639_48219)"/>
<path d="M181.93 168.157L187.475 166.611C187.445 166.687 187.413 166.761 187.38 166.835L181.834 168.38C181.868 168.307 181.899 168.233 181.93 168.157Z" fill="url(#paint94_linear_639_48219)"/>
<path d="M181.834 168.381L187.38 166.835C187.344 166.913 187.305 166.991 187.265 167.066L181.72 168.612C181.76 168.537 181.798 168.459 181.834 168.381Z" fill="url(#paint95_linear_639_48219)"/>
<path d="M181.72 168.612L187.265 167.066C187.246 167.101 187.227 167.137 187.207 167.172C187.18 167.22 187.151 167.268 187.122 167.315L181.577 168.861C181.606 168.814 181.634 168.766 181.662 168.717C181.681 168.683 181.7 168.647 181.72 168.612Z" fill="url(#paint96_linear_639_48219)"/>
<path d="M181.577 168.862L187.122 167.316C187.065 167.408 187.006 167.498 186.943 167.584L181.397 169.13C181.459 169.044 181.52 168.954 181.577 168.862Z" fill="url(#paint97_linear_639_48219)"/>
<path d="M181.396 169.13L186.942 167.584C186.862 167.693 186.777 167.798 186.687 167.898L181.142 169.443C181.232 169.344 181.317 169.239 181.396 169.13Z" fill="url(#paint98_linear_639_48219)"/>
<path d="M181.143 169.443L186.688 167.897C186.648 167.941 186.608 167.985 186.565 168.027C186.347 168.248 186.096 168.431 185.822 168.57C185.65 168.656 185.469 168.726 185.282 168.779L179.737 170.324C179.924 170.272 180.104 170.202 180.275 170.115C180.55 169.976 180.802 169.794 181.02 169.572C181.061 169.531 181.102 169.488 181.143 169.443Z" fill="url(#paint99_linear_639_48219)"/>
</g>
<path d="M183.779 157.597C185.784 160.658 185.697 164.76 183.583 166.782L181.662 168.718C182.059 168.017 182.282 167.171 182.302 166.279C182.332 164.875 181.924 163.59 181.171 162.443L164.418 136.929C165.362 136.159 166.606 135.832 167.834 136.107C169.211 136.417 170.483 137.35 171.486 138.877L183.779 157.597Z" fill="url(#paint100_linear_639_48219)"/>
<path d="M120.292 49.72L125.838 48.1743C126.709 47.9314 127.592 47.732 128.486 47.5762L122.94 49.1219C122.046 49.277 121.163 49.4771 120.292 49.72Z" fill="url(#paint101_linear_639_48219)"/>
<path d="M122.94 49.1219L128.486 47.5762C129.349 47.4254 130.221 47.3159 131.101 47.2471L125.556 48.7928C124.675 48.8609 123.803 48.9711 122.94 49.1219Z" fill="url(#paint102_linear_639_48219)"/>
<path d="M125.556 48.7922L131.102 47.2465C131.857 47.187 132.617 47.1588 133.383 47.1602L127.837 48.7059C127.071 48.7045 126.31 48.7335 125.556 48.7922Z" fill="url(#paint103_linear_639_48219)"/>
<path d="M127.837 48.7068L133.383 47.1611C134.083 47.1626 134.788 47.1901 135.496 47.2423L129.95 48.788C129.241 48.7351 128.537 48.7083 127.837 48.7068Z" fill="url(#paint104_linear_639_48219)"/>
<path d="M129.95 48.7879L135.496 47.2422C136.149 47.2908 136.805 47.3618 137.464 47.4539L131.919 48.9996C131.26 48.9075 130.603 48.8365 129.95 48.7879Z" fill="url(#paint105_linear_639_48219)"/>
<path d="M131.918 49.0003L137.464 47.4546C138.091 47.543 138.719 47.6511 139.351 47.7787L133.805 49.3244C133.175 49.196 132.545 49.088 131.918 49.0003Z" fill="url(#paint106_linear_639_48219)"/>
<path d="M133.805 49.3235L139.351 47.7778C139.567 47.8221 139.784 47.8685 140 47.9163C140.393 48.0048 140.783 48.0997 141.173 48.2027L135.628 49.7484C135.238 49.6454 134.847 49.5505 134.455 49.462C134.238 49.4142 134.021 49.3678 133.805 49.3235Z" fill="url(#paint107_linear_639_48219)"/>
<path d="M135.628 49.7483L141.173 48.2026C141.763 48.3578 142.349 48.5296 142.933 48.7174L137.388 50.2631C136.803 50.0753 136.217 49.9035 135.628 49.7483Z" fill="url(#paint108_linear_639_48219)"/>
<path d="M137.387 50.264L142.932 48.7183C143.505 48.9024 144.075 49.1032 144.642 49.3186L139.096 50.8643C138.53 50.6482 137.959 50.4481 137.387 50.264Z" fill="url(#paint109_linear_639_48219)"/>
<path d="M139.097 50.8641L144.643 49.3184C145.204 49.5322 145.763 49.7613 146.319 50.0057L140.774 51.5514C140.218 51.307 139.659 51.0779 139.097 50.8641Z" fill="url(#paint110_linear_639_48219)"/>
<path d="M140.773 51.5516L146.319 50.0059C146.875 50.2495 147.427 50.509 147.975 50.7823L142.43 52.328C141.882 52.0547 141.329 51.7959 140.773 51.5516Z" fill="url(#paint111_linear_639_48219)"/>
<path d="M142.43 52.3279L147.975 50.7822C148.529 51.0577 149.077 51.3492 149.622 51.6544L144.076 53.2001C143.532 52.8949 142.983 52.6042 142.43 52.3279Z" fill="url(#paint112_linear_639_48219)"/>
<path d="M144.077 53.2L149.623 51.6543C150.176 51.9646 150.725 52.2894 151.27 52.6301L145.725 54.1758C145.18 53.8358 144.631 53.5103 144.077 53.2Z" fill="url(#paint113_linear_639_48219)"/>
<path d="M145.725 54.1766L151.271 52.6309C151.829 52.9796 152.382 53.3435 152.931 53.7234L147.385 55.2691C146.837 54.8892 146.284 54.5253 145.725 54.1766Z" fill="url(#paint114_linear_639_48219)"/>
<path d="M147.385 55.2693L152.931 53.7236C153.501 54.1188 154.065 54.5298 154.624 54.9569L149.078 56.5026C148.52 56.0748 147.956 55.6637 147.385 55.2693Z" fill="url(#paint115_linear_639_48219)"/>
<path d="M149.078 56.5027L154.624 54.957C155.211 55.4065 155.791 55.8742 156.364 56.3592L150.819 57.9049C150.246 57.4191 149.665 56.9522 149.078 56.5027Z" fill="url(#paint116_linear_639_48219)"/>
<path d="M150.82 57.9041L156.364 56.3584C156.975 56.8746 157.577 57.4104 158.169 57.9657L152.623 59.5114C152.031 58.9561 151.429 58.4203 150.82 57.9041Z" fill="url(#paint117_linear_639_48219)"/>
<path d="M152.623 59.512L158.169 57.9663C158.824 58.5797 159.467 59.2162 160.1 59.876L154.554 61.4217C153.922 60.7619 153.278 60.1246 152.623 59.512Z" fill="url(#paint118_linear_639_48219)"/>
<path d="M154.554 61.4212L160.1 59.8755C160.809 60.6172 161.505 61.3878 162.185 62.1868L156.64 63.7325C155.961 62.9343 155.265 62.1636 154.554 61.4212Z" fill="url(#paint119_linear_639_48219)"/>
<path d="M156.64 63.7332L162.185 62.1875C163.02 63.1692 163.831 64.1929 164.616 65.2572L159.07 66.8029C158.286 65.7378 157.474 64.7141 156.64 63.7332Z" fill="url(#paint120_linear_639_48219)"/>
<path d="M159.07 66.8025L164.616 65.2568C165.235 66.0971 165.837 66.9628 166.421 67.8523L160.876 69.398C160.291 68.5077 159.688 67.6421 159.07 66.8025Z" fill="url(#paint121_linear_639_48219)"/>
<path d="M160.876 69.3981C167.817 79.9686 171.513 92.8533 171.245 105.496C171.012 116.475 167.81 126.295 162.177 133.515C161.323 134.609 160.413 135.644 159.45 136.612C158.486 137.582 157.483 138.473 156.444 139.284C149.585 144.638 141.167 146.514 132.438 144.555C122.302 142.279 112.954 135.189 106.012 124.618C99.0763 114.049 95.3759 101.169 95.6434 88.5265C95.911 75.884 100.121 64.7741 107.438 57.4037C114.759 50.0406 124.403 47.2066 134.455 49.4628C144.506 51.719 153.935 58.8341 160.876 69.3981ZM150.342 122.741C155.095 117.953 157.776 110.812 157.951 102.512C158.128 94.2054 155.773 85.9346 151.268 79.0732C146.692 72.1966 140.634 67.6545 134.1 66.1885C127.562 64.7211 121.303 66.4981 116.551 71.2809C111.799 76.0645 109.118 83.205 108.941 91.5106C108.765 99.8111 111.119 108.081 115.624 114.949C120.13 121.81 126.188 126.352 132.792 127.834C139.396 129.316 145.59 127.525 150.342 122.741Z" fill="url(#paint122_linear_639_48219)"/>
<path d="M162.177 133.515L164.418 136.928L181.171 162.442C181.924 163.589 182.332 164.874 182.302 166.278C182.283 167.17 182.059 168.016 181.662 168.718C181.482 169.035 181.267 169.323 181.02 169.572C180.801 169.793 180.55 169.976 180.276 170.115C179.668 170.423 178.951 170.518 178.241 170.359C177.211 170.128 176.192 169.358 175.438 168.211L158.686 142.698L156.444 139.285C157.484 138.474 158.486 137.582 159.45 136.612C160.413 135.643 161.323 134.609 162.177 133.515Z" fill="url(#paint123_linear_639_48219)"/>
<g filter="url(#filter10_d_639_48219)">
<path d="M183.583 166.782L189.129 165.236L187.207 167.173L181.662 168.718L183.583 166.782Z" fill="url(#paint124_linear_639_48219)"/>
</g>
<g filter="url(#filter11_d_639_48219)">
<path d="M171.486 138.877L177.031 137.331L189.324 156.051L183.779 157.597L171.486 138.877Z" fill="url(#paint125_linear_639_48219)"/>
</g>
<g filter="url(#filter12_d_639_48219)">
<path d="M183.779 157.597L189.324 156.051C189.401 156.169 189.477 156.29 189.548 156.411L184.002 157.957C183.93 157.835 183.856 157.715 183.779 157.597Z" fill="url(#paint126_linear_639_48219)"/>
<path d="M184.001 157.956L189.547 156.411C189.817 156.87 190.042 157.348 190.223 157.836L184.677 159.382C184.497 158.894 184.271 158.415 184.001 157.956Z" fill="url(#paint127_linear_639_48219)"/>
<path d="M184.677 159.382L190.223 157.836C190.32 158.1 190.404 158.365 190.476 158.633L184.93 160.179C184.858 159.911 184.774 159.645 184.677 159.382Z" fill="url(#paint128_linear_639_48219)"/>
<path d="M184.93 160.178L190.476 158.632C190.522 158.808 190.564 158.985 190.6 159.161L185.054 160.707C185.018 160.531 184.976 160.353 184.93 160.178Z" fill="url(#paint129_linear_639_48219)"/>
<path d="M185.053 160.707L190.599 159.162C190.629 159.309 190.655 159.457 190.677 159.604L185.132 161.15C185.11 161.002 185.084 160.855 185.053 160.707Z" fill="url(#paint130_linear_639_48219)"/>
<path d="M185.132 161.15L190.678 159.604C190.697 159.735 190.714 159.865 190.727 159.995L185.182 161.541C185.169 161.411 185.152 161.281 185.132 161.15Z" fill="url(#paint131_linear_639_48219)"/>
<path d="M185.182 161.541L190.727 159.995C190.739 160.113 190.749 160.229 190.756 160.346L185.211 161.892C185.203 161.775 185.194 161.658 185.182 161.541Z" fill="url(#paint132_linear_639_48219)"/>
<path d="M185.211 161.892L190.756 160.346C190.763 160.457 190.769 160.569 190.771 160.68L185.225 162.225C185.223 162.115 185.218 162.004 185.211 161.892Z" fill="url(#paint133_linear_639_48219)"/>
<path d="M185.225 162.225L190.771 160.68C190.774 160.786 190.774 160.891 190.772 160.996L185.227 162.541C185.228 162.436 185.228 162.331 185.225 162.225Z" fill="url(#paint134_linear_639_48219)"/>
<path d="M185.227 162.541L190.772 160.996C190.77 161.096 190.766 161.195 190.761 161.294L185.216 162.84C185.221 162.741 185.224 162.641 185.227 162.541Z" fill="url(#paint135_linear_639_48219)"/>
<path d="M185.216 162.84L190.761 161.294C190.755 161.392 190.748 161.489 190.74 161.585L185.195 163.131C185.203 163.035 185.21 162.937 185.216 162.84Z" fill="url(#paint136_linear_639_48219)"/>
<path d="M185.195 163.131L190.74 161.585C190.731 161.678 190.721 161.772 190.709 161.864L185.164 163.41C185.175 163.318 185.186 163.224 185.195 163.131Z" fill="url(#paint137_linear_639_48219)"/>
<path d="M185.164 163.41L190.709 161.864C190.697 161.956 190.683 162.048 190.668 162.138L185.122 163.685C185.137 163.594 185.151 163.502 185.164 163.41Z" fill="url(#paint138_linear_639_48219)"/>
<path d="M185.122 163.685L190.668 162.138C190.652 162.229 190.635 162.318 190.617 162.406L185.071 163.952C185.09 163.864 185.107 163.775 185.122 163.685Z" fill="url(#paint139_linear_639_48219)"/>
<path d="M185.071 163.952L190.617 162.407C190.598 162.497 190.577 162.585 190.555 162.672L185.01 164.219C185.032 164.131 185.052 164.042 185.071 163.952Z" fill="url(#paint140_linear_639_48219)"/>
<path d="M185.01 164.218L190.555 162.672C190.534 162.76 190.51 162.847 190.484 162.934L184.938 164.479C184.963 164.394 184.988 164.307 185.01 164.218Z" fill="url(#paint141_linear_639_48219)"/>
<path d="M184.938 164.48L190.484 162.935C190.457 163.024 190.429 163.112 190.398 163.2L184.853 164.746C184.883 164.658 184.911 164.569 184.938 164.48Z" fill="url(#paint142_linear_639_48219)"/>
<path d="M184.853 164.745L190.398 163.2C190.367 163.289 190.334 163.377 190.299 163.464L184.754 165.01C184.789 164.923 184.821 164.835 184.853 164.745Z" fill="url(#paint143_linear_639_48219)"/>
<path d="M184.754 165.01L190.299 163.464C190.263 163.555 190.223 163.645 190.183 163.733L184.638 165.279C184.679 165.191 184.718 165.101 184.754 165.01Z" fill="url(#paint144_linear_639_48219)"/>
<path d="M184.638 165.279L190.183 163.733C190.138 163.83 190.092 163.924 190.043 164.016L184.498 165.562C184.547 165.47 184.594 165.376 184.638 165.279Z" fill="url(#paint145_linear_639_48219)"/>
<path d="M184.498 165.562L190.043 164.016C189.991 164.116 189.934 164.214 189.875 164.31L184.33 165.855C184.388 165.76 184.445 165.662 184.498 165.562Z" fill="url(#paint146_linear_639_48219)"/>
<path d="M184.329 165.855L189.875 164.31C189.806 164.419 189.735 164.526 189.659 164.628L184.114 166.174C184.19 166.071 184.262 165.965 184.329 165.855Z" fill="url(#paint147_linear_639_48219)"/>
<path d="M184.114 166.175L189.66 164.629C189.562 164.763 189.458 164.89 189.348 165.012L183.802 166.557C183.912 166.436 184.017 166.308 184.114 166.175Z" fill="url(#paint148_linear_639_48219)"/>
<path d="M183.802 166.557L189.347 165.012C189.277 165.089 189.205 165.164 189.129 165.236L183.583 166.782C183.659 166.71 183.732 166.634 183.802 166.557Z" fill="url(#paint149_linear_639_48219)"/>
</g>
<defs>
<filter id="filter0_d_639_48219" x="15.9929" y="131.984" width="94.1891" height="41.5059" filterUnits="userSpaceOnUse" color-interpolation-filters="sRGB">
<feFlood flood-opacity="0" result="BackgroundImageFix"/>
<feColorMatrix in="SourceAlpha" type="matrix" values="0 0 0 0 0 0 0 0 0 0 0 0 0 0 0 0 0 0 127 0" result="hardAlpha"/>
<feOffset dx="10"/>
<feGaussianBlur stdDeviation="5"/>
<feComposite in2="hardAlpha" operator="out"/>
<feColorMatrix type="matrix" values="0 0 0 0 0.113725 0 0 0 0 0.215686 0 0 0 0 0.592157 0 0 0 1 0"/>
<feBlend mode="normal" in2="BackgroundImageFix" result="effect1_dropShadow_639_48219"/>
<feBlend mode="normal" in="SourceGraphic" in2="effect1_dropShadow_639_48219" result="shape"/>
</filter>
<filter id="filter1_d_639_48219" x="15.9939" y="151.792" width="140.13" height="53.2671" filterUnits="userSpaceOnUse" color-interpolation-filters="sRGB">
<feFlood flood-opacity="0" result="BackgroundImageFix"/>
<feColorMatrix in="SourceAlpha" type="matrix" values="0 0 0 0 0 0 0 0 0 0 0 0 0 0 0 0 0 0 127 0" result="hardAlpha"/>
<feOffset dx="10"/>
<feGaussianBlur stdDeviation="5"/>
<feComposite in2="hardAlpha" operator="out"/>
<feColorMatrix type="matrix" values="0 0 0 0 0.113725 0 0 0 0 0.215686 0 0 0 0 0.592157 0 0 0 1 0"/>
<feBlend mode="normal" in2="BackgroundImageFix" result="effect1_dropShadow_639_48219"/>
<feBlend mode="normal" in="SourceGraphic" in2="effect1_dropShadow_639_48219" result="shape"/>
</filter>
<filter id="filter2_d_639_48219" x="43.9629" y="29.2495" width="17.5437" height="17.3979" filterUnits="userSpaceOnUse" color-interpolation-filters="sRGB">
<feFlood flood-opacity="0" result="BackgroundImageFix"/>
<feColorMatrix in="SourceAlpha" type="matrix" values="0 0 0 0 0 0 0 0 0 0 0 0 0 0 0 0 0 0 127 0" result="hardAlpha"/>
<feOffset dy="1"/>
<feGaussianBlur stdDeviation="1.5"/>
<feComposite in2="hardAlpha" operator="out"/>
<feColorMatrix type="matrix" values="0 0 0 0 0.0546875 0 0 0 0 0.625 0 0 0 0 0.0645774 0 0 0 0.8 0"/>
<feBlend mode="normal" in2="BackgroundImageFix" result="effect1_dropShadow_639_48219"/>
<feBlend mode="normal" in="SourceGraphic" in2="effect1_dropShadow_639_48219" result="shape"/>
</filter>
<filter id="filter3_d_639_48219" x="25.5861" y="32.2739" width="17.5437" height="17.3979" filterUnits="userSpaceOnUse" color-interpolation-filters="sRGB">
<feFlood flood-opacity="0" result="BackgroundImageFix"/>
<feColorMatrix in="SourceAlpha" type="matrix" values="0 0 0 0 0 0 0 0 0 0 0 0 0 0 0 0 0 0 127 0" result="hardAlpha"/>
<feOffset dy="1"/>
<feGaussianBlur stdDeviation="1.5"/>
<feComposite in2="hardAlpha" operator="out"/>
<feColorMatrix type="matrix" values="0 0 0 0 0.7875 0 0 0 0 0.654096 0 0 0 0 0.0328125 0 0 0 0.8 0"/>
<feBlend mode="normal" in2="BackgroundImageFix" result="effect1_dropShadow_639_48219"/>
<feBlend mode="normal" in="SourceGraphic" in2="effect1_dropShadow_639_48219" result="shape"/>
</filter>
<filter id="filter4_d_639_48219" x="9.25122" y="35.2979" width="17.5437" height="17.3979" filterUnits="userSpaceOnUse" color-interpolation-filters="sRGB">
<feFlood flood-opacity="0" result="BackgroundImageFix"/>
<feColorMatrix in="SourceAlpha" type="matrix" values="0 0 0 0 0 0 0 0 0 0 0 0 0 0 0 0 0 0 127 0" result="hardAlpha"/>
<feOffset dy="1"/>
<feGaussianBlur stdDeviation="1.5"/>
<feComposite in2="hardAlpha" operator="out"/>
<feColorMatrix type="matrix" values="0 0 0 0 0.854167 0 0 0 0 0.381025 0 0 0 0 0.0711805 0 0 0 0.8 0"/>
<feBlend mode="normal" in2="BackgroundImageFix" result="effect1_dropShadow_639_48219"/>
<feBlend mode="normal" in="SourceGraphic" in2="effect1_dropShadow_639_48219" result="shape"/>
</filter>
<filter id="filter5_d_639_48219" x="17" y="58" width="127.479" height="76.4561" filterUnits="userSpaceOnUse" color-interpolation-filters="sRGB">
<feFlood flood-opacity="0" result="BackgroundImageFix"/>
<feColorMatrix in="SourceAlpha" type="matrix" values="0 0 0 0 0 0 0 0 0 0 0 0 0 0 0 0 0 0 127 0" result="hardAlpha"/>
<feOffset dx="10"/>
<feGaussianBlur stdDeviation="5"/>
<feComposite in2="hardAlpha" operator="out"/>
<feColorMatrix type="matrix" values="0 0 0 0 0.113725 0 0 0 0 0.215686 0 0 0 0 0.592157 0 0 0 1 0"/>
<feBlend mode="normal" in2="BackgroundImageFix" result="effect1_dropShadow_639_48219"/>
<feBlend mode="normal" in="SourceGraphic" in2="effect1_dropShadow_639_48219" result="shape"/>
</filter>
<filter id="filter6_d_639_48219" x="108.932" y="54.8018" width="58.6996" height="83.5391" filterUnits="userSpaceOnUse" color-interpolation-filters="sRGB">
<feFlood flood-opacity="0" result="BackgroundImageFix"/>
<feColorMatrix in="SourceAlpha" type="matrix" values="0 0 0 0 0 0 0 0 0 0 0 0 0 0 0 0 0 0 127 0" result="hardAlpha"/>
<feOffset dx="10"/>
<feGaussianBlur stdDeviation="5"/>
<feComposite in2="hardAlpha" operator="out"/>
<feColorMatrix type="matrix" values="0 0 0 0 0.113725 0 0 0 0 0.215686 0 0 0 0 0.592157 0 0 0 1 0"/>
<feBlend mode="normal" in2="BackgroundImageFix" result="effect1_dropShadow_639_48219"/>
<feBlend mode="normal" in="SourceGraphic" in2="effect1_dropShadow_639_48219" result="shape"/>
</filter>
<filter id="filter7_d_639_48219" x="176.613" y="160.388" width="27.4022" height="22.7397" filterUnits="userSpaceOnUse" color-interpolation-filters="sRGB">
<feFlood flood-opacity="0" result="BackgroundImageFix"/>
<feColorMatrix in="SourceAlpha" type="matrix" values="0 0 0 0 0 0 0 0 0 0 0 0 0 0 0 0 0 0 127 0" result="hardAlpha"/>
<feOffset dx="10"/>
<feGaussianBlur stdDeviation="5"/>
<feComposite in2="hardAlpha" operator="out"/>
<feColorMatrix type="matrix" values="0 0 0 0 0.113725 0 0 0 0 0.215686 0 0 0 0 0.592157 0 0 0 1 0"/>
<feBlend mode="normal" in2="BackgroundImageFix" result="effect1_dropShadow_639_48219"/>
<feBlend mode="normal" in="SourceGraphic" in2="effect1_dropShadow_639_48219" result="shape"/>
</filter>
<filter id="filter8_d_639_48219" x="178.47" y="158.57" width="27.3514" height="23.3647" filterUnits="userSpaceOnUse" color-interpolation-filters="sRGB">
<feFlood flood-opacity="0" result="BackgroundImageFix"/>
<feColorMatrix in="SourceAlpha" type="matrix" values="0 0 0 0 0 0 0 0 0 0 0 0 0 0 0 0 0 0 127 0" result="hardAlpha"/>
<feOffset dx="10"/>
<feGaussianBlur stdDeviation="5"/>
<feComposite in2="hardAlpha" operator="out"/>
<feColorMatrix type="matrix" values="0 0 0 0 0.113725 0 0 0 0 0.215686 0 0 0 0 0.592157 0 0 0 1 0"/>
<feBlend mode="normal" in2="BackgroundImageFix" result="effect1_dropShadow_639_48219"/>
<feBlend mode="normal" in="SourceGraphic" in2="effect1_dropShadow_639_48219" result="shape"/>
</filter>
<filter id="filter9_d_639_48219" x="179.737" y="150.896" width="28.1123" height="29.4287" filterUnits="userSpaceOnUse" color-interpolation-filters="sRGB">
<feFlood flood-opacity="0" result="BackgroundImageFix"/>
<feColorMatrix in="SourceAlpha" type="matrix" values="0 0 0 0 0 0 0 0 0 0 0 0 0 0 0 0 0 0 127 0" result="hardAlpha"/>
<feOffset dx="10"/>
<feGaussianBlur stdDeviation="5"/>
<feComposite in2="hardAlpha" operator="out"/>
<feColorMatrix type="matrix" values="0 0 0 0 0.113725 0 0 0 0 0.215686 0 0 0 0 0.592157 0 0 0 1 0"/>
<feBlend mode="normal" in2="BackgroundImageFix" result="effect1_dropShadow_639_48219"/>
<feBlend mode="normal" in="SourceGraphic" in2="effect1_dropShadow_639_48219" result="shape"/>
</filter>
<filter id="filter10_d_639_48219" x="181.662" y="155.236" width="27.4675" height="23.4814" filterUnits="userSpaceOnUse" color-interpolation-filters="sRGB">
<feFlood flood-opacity="0" result="BackgroundImageFix"/>
<feColorMatrix in="SourceAlpha" type="matrix" values="0 0 0 0 0 0 0 0 0 0 0 0 0 0 0 0 0 0 127 0" result="hardAlpha"/>
<feOffset dx="10"/>
<feGaussianBlur stdDeviation="5"/>
<feComposite in2="hardAlpha" operator="out"/>
<feColorMatrix type="matrix" values="0 0 0 0 0.113725 0 0 0 0 0.215686 0 0 0 0 0.592157 0 0 0 1 0"/>
<feBlend mode="normal" in2="BackgroundImageFix" result="effect1_dropShadow_639_48219"/>
<feBlend mode="normal" in="SourceGraphic" in2="effect1_dropShadow_639_48219" result="shape"/>
</filter>
<filter id="filter11_d_639_48219" x="171.486" y="127.331" width="37.8386" height="40.2661" filterUnits="userSpaceOnUse" color-interpolation-filters="sRGB">
<feFlood flood-opacity="0" result="BackgroundImageFix"/>
<feColorMatrix in="SourceAlpha" type="matrix" values="0 0 0 0 0 0 0 0 0 0 0 0 0 0 0 0 0 0 127 0" result="hardAlpha"/>
<feOffset dx="10"/>
<feGaussianBlur stdDeviation="5"/>
<feComposite in2="hardAlpha" operator="out"/>
<feColorMatrix type="matrix" values="0 0 0 0 0.113725 0 0 0 0 0.215686 0 0 0 0 0.592157 0 0 0 1 0"/>
<feBlend mode="normal" in2="BackgroundImageFix" result="effect1_dropShadow_639_48219"/>
<feBlend mode="normal" in="SourceGraphic" in2="effect1_dropShadow_639_48219" result="shape"/>
</filter>
<filter id="filter12_d_639_48219" x="183.583" y="146.051" width="27.1901" height="30.731" filterUnits="userSpaceOnUse" color-interpolation-filters="sRGB">
<feFlood flood-opacity="0" result="BackgroundImageFix"/>
<feColorMatrix in="SourceAlpha" type="matrix" values="0 0 0 0 0 0 0 0 0 0 0 0 0 0 0 0 0 0 127 0" result="hardAlpha"/>
<feOffset dx="10"/>
<feGaussianBlur stdDeviation="5"/>
<feComposite in2="hardAlpha" operator="out"/>
<feColorMatrix type="matrix" values="0 0 0 0 0.113725 0 0 0 0 0.215686 0 0 0 0 0.592157 0 0 0 1 0"/>
<feBlend mode="normal" in2="BackgroundImageFix" result="effect1_dropShadow_639_48219"/>
<feBlend mode="normal" in="SourceGraphic" in2="effect1_dropShadow_639_48219" result="shape"/>
</filter>
<linearGradient id="paint0_linear_639_48219" x1="2.22011e-07" y1="130.199" x2="176.965" y2="130.097" gradientUnits="userSpaceOnUse">
<stop stop-color="#5F7EFF"/>
<stop offset="1" stop-color="#748FFE"/>
</linearGradient>
<linearGradient id="paint1_linear_639_48219" x1="-4.30818e-08" y1="38.9732" x2="176.964" y2="38.6238" gradientUnits="userSpaceOnUse">
<stop stop-color="#F0EFF0"/>
<stop offset="1" stop-color="#FDFDFD"/>
</linearGradient>
<linearGradient id="paint2_linear_639_48219" x1="76.7316" y1="157.625" x2="13.671" y2="139.676" gradientUnits="userSpaceOnUse">
<stop stop-color="#E2EBFE"/>
<stop offset="1" stop-color="#C2D7FF"/>
</linearGradient>
<linearGradient id="paint3_linear_639_48219" x1="114.344" y1="185.987" x2="12.9617" y2="155.781" gradientUnits="userSpaceOnUse">
<stop stop-color="#E2EBFE"/>
<stop offset="1" stop-color="#C2D7FF"/>
</linearGradient>
<radialGradient id="paint4_radial_639_48219" cx="0" cy="0" r="1" gradientUnits="userSpaceOnUse" gradientTransform="translate(51.1606 35.9124) rotate(76.8452) scale(6.91673 6.99598)">
<stop stop-color="#38EE2E"/>
<stop offset="1" stop-color="#2ECB38"/>
</radialGradient>
<radialGradient id="paint5_radial_639_48219" cx="0" cy="0" r="1" gradientUnits="userSpaceOnUse" gradientTransform="translate(32.259 35.8282) rotate(77.9639) scale(10.0651 10.1825)">
<stop stop-color="#FFE677"/>
<stop offset="1" stop-color="#E4C428"/>
</radialGradient>
<radialGradient id="paint6_radial_639_48219" cx="0" cy="0" r="1" gradientUnits="userSpaceOnUse" gradientTransform="translate(15.9242 39.8883) rotate(58.7145) scale(9.09373 9.14763)">
<stop stop-color="#FFB17D"/>
<stop offset="1" stop-color="#DD7128"/>
</radialGradient>
<linearGradient id="paint7_linear_639_48219" x1="115.805" y1="68.4818" x2="126.801" y2="69.072" gradientUnits="userSpaceOnUse">
<stop stop-color="#D8B803"/>
<stop offset="1" stop-color="#DDB802"/>
</linearGradient>
<linearGradient id="paint8_linear_639_48219" x1="114.332" y1="72.2148" x2="119.649" y2="72.5116" gradientUnits="userSpaceOnUse">
<stop stop-color="#D8B803"/>
<stop offset="1" stop-color="#DDB802"/>
</linearGradient>
<linearGradient id="paint9_linear_639_48219" x1="113.284" y1="73.9057" x2="118.272" y2="74.1891" gradientUnits="userSpaceOnUse">
<stop stop-color="#D8B803"/>
<stop offset="1" stop-color="#DDB802"/>
</linearGradient>
<linearGradient id="paint10_linear_639_48219" x1="112.469" y1="75.3959" x2="117.28" y2="75.6719" gradientUnits="userSpaceOnUse">
<stop stop-color="#D8B803"/>
<stop offset="1" stop-color="#DDB802"/>
</linearGradient>
<linearGradient id="paint11_linear_639_48219" x1="111.799" y1="76.7834" x2="116.501" y2="77.0533" gradientUnits="userSpaceOnUse">
<stop stop-color="#D8B803"/>
<stop offset="1" stop-color="#DDB802"/>
</linearGradient>
<linearGradient id="paint12_linear_639_48219" x1="111.239" y1="78.1126" x2="115.858" y2="78.3774" gradientUnits="userSpaceOnUse">
<stop stop-color="#D8B803"/>
<stop offset="1" stop-color="#DDB802"/>
</linearGradient>
<linearGradient id="paint13_linear_639_48219" x1="110.759" y1="79.4074" x2="115.317" y2="79.667" gradientUnits="userSpaceOnUse">
<stop stop-color="#D8B803"/>
<stop offset="1" stop-color="#DDB802"/>
</linearGradient>
<linearGradient id="paint14_linear_639_48219" x1="110.348" y1="80.6898" x2="114.854" y2="80.9443" gradientUnits="userSpaceOnUse">
<stop stop-color="#D8B803"/>
<stop offset="1" stop-color="#DDB802"/>
</linearGradient>
<linearGradient id="paint15_linear_639_48219" x1="109.997" y1="81.9689" x2="114.458" y2="82.2182" gradientUnits="userSpaceOnUse">
<stop stop-color="#D8B803"/>
<stop offset="1" stop-color="#DDB802"/>
</linearGradient>
<linearGradient id="paint16_linear_639_48219" x1="109.698" y1="83.2553" x2="114.12" y2="83.499" gradientUnits="userSpaceOnUse">
<stop stop-color="#D8B803"/>
<stop offset="1" stop-color="#DDB802"/>
</linearGradient>
<linearGradient id="paint17_linear_639_48219" x1="109.449" y1="84.5599" x2="113.834" y2="84.7976" gradientUnits="userSpaceOnUse">
<stop stop-color="#D8B803"/>
<stop offset="1" stop-color="#DDB802"/>
</linearGradient>
<linearGradient id="paint18_linear_639_48219" x1="109.247" y1="85.8941" x2="113.596" y2="86.1252" gradientUnits="userSpaceOnUse">
<stop stop-color="#D8B803"/>
<stop offset="1" stop-color="#DDB802"/>
</linearGradient>
<linearGradient id="paint19_linear_639_48219" x1="109.091" y1="87.268" x2="113.406" y2="87.4919" gradientUnits="userSpaceOnUse">
<stop stop-color="#D8B803"/>
<stop offset="1" stop-color="#DDB802"/>
</linearGradient>
<linearGradient id="paint20_linear_639_48219" x1="108.984" y1="88.6931" x2="113.263" y2="88.909" gradientUnits="userSpaceOnUse">
<stop stop-color="#D8B803"/>
<stop offset="1" stop-color="#DDB802"/>
</linearGradient>
<linearGradient id="paint21_linear_639_48219" x1="108.93" y1="90.1837" x2="113.17" y2="90.3905" gradientUnits="userSpaceOnUse">
<stop stop-color="#D8B803"/>
<stop offset="1" stop-color="#DDB802"/>
</linearGradient>
<linearGradient id="paint22_linear_639_48219" x1="108.924" y1="91.7402" x2="113.13" y2="91.94" gradientUnits="userSpaceOnUse">
<stop stop-color="#D8B803"/>
<stop offset="1" stop-color="#DDB802"/>
</linearGradient>
<linearGradient id="paint23_linear_639_48219" x1="108.934" y1="93.3551" x2="113.186" y2="93.5554" gradientUnits="userSpaceOnUse">
<stop stop-color="#D8B803"/>
<stop offset="1" stop-color="#DDB802"/>
</linearGradient>
<linearGradient id="paint24_linear_639_48219" x1="109.003" y1="95.043" x2="113.311" y2="95.2432" gradientUnits="userSpaceOnUse">
<stop stop-color="#D8B803"/>
<stop offset="1" stop-color="#DDB802"/>
</linearGradient>
<linearGradient id="paint25_linear_639_48219" x1="109.146" y1="96.8432" x2="113.526" y2="97.0419" gradientUnits="userSpaceOnUse">
<stop stop-color="#D8B803"/>
<stop offset="1" stop-color="#DDB802"/>
</linearGradient>
<linearGradient id="paint26_linear_639_48219" x1="109.383" y1="98.8141" x2="113.86" y2="99.0099" gradientUnits="userSpaceOnUse">
<stop stop-color="#D8B803"/>
<stop offset="1" stop-color="#DDB802"/>
</linearGradient>
<linearGradient id="paint27_linear_639_48219" x1="109.748" y1="101.084" x2="114.385" y2="101.274" gradientUnits="userSpaceOnUse">
<stop stop-color="#D8B803"/>
<stop offset="1" stop-color="#DDB802"/>
</linearGradient>
<linearGradient id="paint28_linear_639_48219" x1="110.322" y1="104.126" x2="115.386" y2="104.302" gradientUnits="userSpaceOnUse">
<stop stop-color="#D8B803"/>
<stop offset="1" stop-color="#DDB802"/>
</linearGradient>
<linearGradient id="paint29_linear_639_48219" x1="111.456" y1="109.308" x2="118.067" y2="109.495" gradientUnits="userSpaceOnUse">
<stop stop-color="#D8B803"/>
<stop offset="1" stop-color="#DDB802"/>
</linearGradient>
<linearGradient id="paint30_linear_639_48219" x1="114.63" y1="114.271" x2="120.467" y2="114.521" gradientUnits="userSpaceOnUse">
<stop stop-color="#D8B803"/>
<stop offset="1" stop-color="#DDB802"/>
</linearGradient>
<linearGradient id="paint31_linear_639_48219" x1="116.791" y1="116.883" x2="122.171" y2="117.174" gradientUnits="userSpaceOnUse">
<stop stop-color="#D8B803"/>
<stop offset="1" stop-color="#DDB802"/>
</linearGradient>
<linearGradient id="paint32_linear_639_48219" x1="118.355" y1="118.607" x2="123.559" y2="118.924" gradientUnits="userSpaceOnUse">
<stop stop-color="#D8B803"/>
<stop offset="1" stop-color="#DDB802"/>
</linearGradient>
<linearGradient id="paint33_linear_639_48219" x1="119.691" y1="119.957" x2="124.814" y2="120.293" gradientUnits="userSpaceOnUse">
<stop stop-color="#D8B803"/>
<stop offset="1" stop-color="#DDB802"/>
</linearGradient>
<linearGradient id="paint34_linear_639_48219" x1="120.926" y1="121.079" x2="125.984" y2="121.431" gradientUnits="userSpaceOnUse">
<stop stop-color="#D8B803"/>
<stop offset="1" stop-color="#DDB802"/>
</linearGradient>
<linearGradient id="paint35_linear_639_48219" x1="122.078" y1="122.039" x2="127.105" y2="122.406" gradientUnits="userSpaceOnUse">
<stop stop-color="#D8B803"/>
<stop offset="1" stop-color="#DDB802"/>
</linearGradient>
<linearGradient id="paint36_linear_639_48219" x1="123.191" y1="122.883" x2="128.196" y2="123.263" gradientUnits="userSpaceOnUse">
<stop stop-color="#D8B803"/>
<stop offset="1" stop-color="#DDB802"/>
</linearGradient>
<linearGradient id="paint37_linear_639_48219" x1="124.278" y1="123.63" x2="129.267" y2="124.023" gradientUnits="userSpaceOnUse">
<stop stop-color="#D8B803"/>
<stop offset="1" stop-color="#DDB802"/>
</linearGradient>
<linearGradient id="paint38_linear_639_48219" x1="125.348" y1="124.296" x2="130.332" y2="124.701" gradientUnits="userSpaceOnUse">
<stop stop-color="#D8B803"/>
<stop offset="1" stop-color="#DDB802"/>
</linearGradient>
<linearGradient id="paint39_linear_639_48219" x1="126.413" y1="124.896" x2="131.4" y2="125.314" gradientUnits="userSpaceOnUse">
<stop stop-color="#D8B803"/>
<stop offset="1" stop-color="#DDB802"/>
</linearGradient>
<linearGradient id="paint40_linear_639_48219" x1="127.485" y1="125.433" x2="132.479" y2="125.864" gradientUnits="userSpaceOnUse">
<stop stop-color="#D8B803"/>
<stop offset="1" stop-color="#DDB802"/>
</linearGradient>
<linearGradient id="paint41_linear_639_48219" x1="128.569" y1="125.913" x2="133.576" y2="126.359" gradientUnits="userSpaceOnUse">
<stop stop-color="#D8B803"/>
<stop offset="1" stop-color="#DDB802"/>
</linearGradient>
<linearGradient id="paint42_linear_639_48219" x1="129.674" y1="126.339" x2="134.702" y2="126.801" gradientUnits="userSpaceOnUse">
<stop stop-color="#D8B803"/>
<stop offset="1" stop-color="#DDB802"/>
</linearGradient>
<linearGradient id="paint43_linear_639_48219" x1="130.81" y1="126.711" x2="135.868" y2="127.192" gradientUnits="userSpaceOnUse">
<stop stop-color="#D8B803"/>
<stop offset="1" stop-color="#DDB802"/>
</linearGradient>
<linearGradient id="paint44_linear_639_48219" x1="131.99" y1="127.026" x2="137.083" y2="127.53" gradientUnits="userSpaceOnUse">
<stop stop-color="#D8B803"/>
<stop offset="1" stop-color="#DDB802"/>
</linearGradient>
<linearGradient id="paint45_linear_639_48219" x1="133.221" y1="127.278" x2="138.337" y2="127.807" gradientUnits="userSpaceOnUse">
<stop stop-color="#D8B803"/>
<stop offset="1" stop-color="#DDB802"/>
</linearGradient>
<linearGradient id="paint46_linear_639_48219" x1="134.489" y1="127.457" x2="139.632" y2="128.017" gradientUnits="userSpaceOnUse">
<stop stop-color="#D8B803"/>
<stop offset="1" stop-color="#DDB802"/>
</linearGradient>
<linearGradient id="paint47_linear_639_48219" x1="135.802" y1="127.553" x2="140.995" y2="128.156" gradientUnits="userSpaceOnUse">
<stop stop-color="#D8B803"/>
<stop offset="1" stop-color="#DDB802"/>
</linearGradient>
<linearGradient id="paint48_linear_639_48219" x1="137.192" y1="127.553" x2="142.46" y2="128.172" gradientUnits="userSpaceOnUse">
<stop stop-color="#D8B803"/>
<stop offset="1" stop-color="#DDB802"/>
</linearGradient>
<linearGradient id="paint49_linear_639_48219" x1="138.685" y1="127.42" x2="144.107" y2="128.017" gradientUnits="userSpaceOnUse">
<stop stop-color="#D8B803"/>
<stop offset="1" stop-color="#DDB802"/>
</linearGradient>
<linearGradient id="paint50_linear_639_48219" x1="140.37" y1="127.122" x2="145.818" y2="127.67" gradientUnits="userSpaceOnUse">
<stop stop-color="#D8B803"/>
<stop offset="1" stop-color="#DDB802"/>
</linearGradient>
<linearGradient id="paint51_linear_639_48219" x1="162.166" y1="134.487" x2="168.065" y2="134.735" gradientUnits="userSpaceOnUse">
<stop stop-color="#D8B803"/>
<stop offset="1" stop-color="#DDB802"/>
</linearGradient>
<linearGradient id="paint52_linear_639_48219" x1="176.602" y1="171.779" x2="182.191" y2="172.183" gradientUnits="userSpaceOnUse">
<stop stop-color="#D8B803"/>
<stop offset="1" stop-color="#DDB802"/>
</linearGradient>
<linearGradient id="paint53_linear_639_48219" x1="165.893" y1="135.352" x2="170.351" y2="135.785" gradientUnits="userSpaceOnUse">
<stop stop-color="#D8B803"/>
<stop offset="1" stop-color="#DDB802"/>
</linearGradient>
<linearGradient id="paint54_linear_639_48219" x1="166.278" y1="135.285" x2="170.723" y2="135.727" gradientUnits="userSpaceOnUse">
<stop stop-color="#D8B803"/>
<stop offset="1" stop-color="#DDB802"/>
</linearGradient>
<linearGradient id="paint55_linear_639_48219" x1="166.648" y1="135.255" x2="171.052" y2="135.698" gradientUnits="userSpaceOnUse">
<stop stop-color="#D8B803"/>
<stop offset="1" stop-color="#DDB802"/>
</linearGradient>
<linearGradient id="paint56_linear_639_48219" x1="166.966" y1="135.254" x2="171.345" y2="135.693" gradientUnits="userSpaceOnUse">
<stop stop-color="#D8B803"/>
<stop offset="1" stop-color="#DDB802"/>
</linearGradient>
<linearGradient id="paint57_linear_639_48219" x1="167.249" y1="135.274" x2="171.61" y2="135.705" gradientUnits="userSpaceOnUse">
<stop stop-color="#D8B803"/>
<stop offset="1" stop-color="#DDB802"/>
</linearGradient>
<linearGradient id="paint58_linear_639_48219" x1="167.506" y1="135.308" x2="171.854" y2="135.733" gradientUnits="userSpaceOnUse">
<stop stop-color="#D8B803"/>
<stop offset="1" stop-color="#DDB802"/>
</linearGradient>
<linearGradient id="paint59_linear_639_48219" x1="167.745" y1="135.358" x2="172.101" y2="135.78" gradientUnits="userSpaceOnUse">
<stop stop-color="#D8B803"/>
<stop offset="1" stop-color="#DDB802"/>
</linearGradient>
<linearGradient id="paint60_linear_639_48219" x1="167.994" y1="135.424" x2="172.352" y2="135.842" gradientUnits="userSpaceOnUse">
<stop stop-color="#D8B803"/>
<stop offset="1" stop-color="#DDB802"/>
</linearGradient>
<linearGradient id="paint61_linear_639_48219" x1="168.244" y1="135.502" x2="172.594" y2="135.915" gradientUnits="userSpaceOnUse">
<stop stop-color="#D8B803"/>
<stop offset="1" stop-color="#DDB802"/>
</linearGradient>
<linearGradient id="paint62_linear_639_48219" x1="168.483" y1="135.591" x2="172.827" y2="136.001" gradientUnits="userSpaceOnUse">
<stop stop-color="#D8B803"/>
<stop offset="1" stop-color="#DDB802"/>
</linearGradient>
<linearGradient id="paint63_linear_639_48219" x1="168.713" y1="135.691" x2="173.056" y2="136.098" gradientUnits="userSpaceOnUse">
<stop stop-color="#D8B803"/>
<stop offset="1" stop-color="#DDB802"/>
</linearGradient>
<linearGradient id="paint64_linear_639_48219" x1="168.94" y1="135.804" x2="173.28" y2="136.207" gradientUnits="userSpaceOnUse">
<stop stop-color="#D8B803"/>
<stop offset="1" stop-color="#DDB802"/>
</linearGradient>
<linearGradient id="paint65_linear_639_48219" x1="169.162" y1="135.929" x2="173.502" y2="136.329" gradientUnits="userSpaceOnUse">
<stop stop-color="#D8B803"/>
<stop offset="1" stop-color="#DDB802"/>
</linearGradient>
<linearGradient id="paint66_linear_639_48219" x1="169.384" y1="136.068" x2="173.725" y2="136.464" gradientUnits="userSpaceOnUse">
<stop stop-color="#D8B803"/>
<stop offset="1" stop-color="#DDB802"/>
</linearGradient>
<linearGradient id="paint67_linear_639_48219" x1="169.606" y1="136.224" x2="173.952" y2="136.616" gradientUnits="userSpaceOnUse">
<stop stop-color="#D8B803"/>
<stop offset="1" stop-color="#DDB802"/>
</linearGradient>
<linearGradient id="paint68_linear_639_48219" x1="169.833" y1="136.4" x2="174.184" y2="136.788" gradientUnits="userSpaceOnUse">
<stop stop-color="#D8B803"/>
<stop offset="1" stop-color="#DDB802"/>
</linearGradient>
<linearGradient id="paint69_linear_639_48219" x1="170.066" y1="136.603" x2="174.425" y2="136.986" gradientUnits="userSpaceOnUse">
<stop stop-color="#D8B803"/>
<stop offset="1" stop-color="#DDB802"/>
</linearGradient>
<linearGradient id="paint70_linear_639_48219" x1="170.31" y1="136.842" x2="174.685" y2="137.218" gradientUnits="userSpaceOnUse">
<stop stop-color="#D8B803"/>
<stop offset="1" stop-color="#DDB802"/>
</linearGradient>
<linearGradient id="paint71_linear_639_48219" x1="170.573" y1="137.132" x2="174.969" y2="137.5" gradientUnits="userSpaceOnUse">
<stop stop-color="#D8B803"/>
<stop offset="1" stop-color="#DDB802"/>
</linearGradient>
<linearGradient id="paint72_linear_639_48219" x1="170.861" y1="137.513" x2="175.305" y2="137.866" gradientUnits="userSpaceOnUse">
<stop stop-color="#D8B803"/>
<stop offset="1" stop-color="#DDB802"/>
</linearGradient>
<linearGradient id="paint73_linear_639_48219" x1="171.208" y1="137.925" x2="175.592" y2="138.278" gradientUnits="userSpaceOnUse">
<stop stop-color="#D8B803"/>
<stop offset="1" stop-color="#DDB802"/>
</linearGradient>
<linearGradient id="paint74_linear_639_48219" x1="178.459" y1="170.278" x2="184.019" y2="170.604" gradientUnits="userSpaceOnUse">
<stop stop-color="#D8B803"/>
<stop offset="1" stop-color="#DDB802"/>
</linearGradient>
<linearGradient id="paint75_linear_639_48219" x1="178.232" y1="157.915" x2="159.56" y2="156.43" gradientUnits="userSpaceOnUse">
<stop stop-color="#F7D914"/>
<stop offset="1" stop-color="#F9DD14"/>
</linearGradient>
<linearGradient id="paint76_linear_639_48219" x1="181.163" y1="161.834" x2="185.484" y2="162.193" gradientUnits="userSpaceOnUse">
<stop stop-color="#D8B803"/>
<stop offset="1" stop-color="#DDB802"/>
</linearGradient>
<linearGradient id="paint77_linear_639_48219" x1="181.35" y1="162.569" x2="185.959" y2="162.848" gradientUnits="userSpaceOnUse">
<stop stop-color="#D8B803"/>
<stop offset="1" stop-color="#DDB802"/>
</linearGradient>
<linearGradient id="paint78_linear_639_48219" x1="181.901" y1="163.425" x2="186.221" y2="163.739" gradientUnits="userSpaceOnUse">
<stop stop-color="#D8B803"/>
<stop offset="1" stop-color="#DDB802"/>
</linearGradient>
<linearGradient id="paint79_linear_639_48219" x1="182.079" y1="163.896" x2="186.328" y2="164.229" gradientUnits="userSpaceOnUse">
<stop stop-color="#D8B803"/>
<stop offset="1" stop-color="#DDB802"/>
</linearGradient>
<linearGradient id="paint80_linear_639_48219" x1="182.168" y1="164.245" x2="186.391" y2="164.585" gradientUnits="userSpaceOnUse">
<stop stop-color="#D8B803"/>
<stop offset="1" stop-color="#DDB802"/>
</linearGradient>
<linearGradient id="paint81_linear_639_48219" x1="182.223" y1="164.547" x2="186.432" y2="164.89" gradientUnits="userSpaceOnUse">
<stop stop-color="#D8B803"/>
<stop offset="1" stop-color="#DDB802"/>
</linearGradient>
<linearGradient id="paint82_linear_639_48219" x1="182.26" y1="164.83" x2="186.457" y2="165.174" gradientUnits="userSpaceOnUse">
<stop stop-color="#D8B803"/>
<stop offset="1" stop-color="#DDB802"/>
</linearGradient>
<linearGradient id="paint83_linear_639_48219" x1="182.283" y1="165.097" x2="186.471" y2="165.441" gradientUnits="userSpaceOnUse">
<stop stop-color="#D8B803"/>
<stop offset="1" stop-color="#DDB802"/>
</linearGradient>
<linearGradient id="paint84_linear_639_48219" x1="182.294" y1="165.359" x2="186.476" y2="165.703" gradientUnits="userSpaceOnUse">
<stop stop-color="#D8B803"/>
<stop offset="1" stop-color="#DDB802"/>
</linearGradient>
<linearGradient id="paint85_linear_639_48219" x1="182.287" y1="165.6" x2="186.472" y2="165.951" gradientUnits="userSpaceOnUse">
<stop stop-color="#D8B803"/>
<stop offset="1" stop-color="#DDB802"/>
</linearGradient>
<linearGradient id="paint86_linear_639_48219" x1="182.271" y1="165.819" x2="186.461" y2="166.173" gradientUnits="userSpaceOnUse">
<stop stop-color="#D8B803"/>
<stop offset="1" stop-color="#DDB802"/>
</linearGradient>
<linearGradient id="paint87_linear_639_48219" x1="182.247" y1="166.031" x2="186.443" y2="166.387" gradientUnits="userSpaceOnUse">
<stop stop-color="#D8B803"/>
<stop offset="1" stop-color="#DDB802"/>
</linearGradient>
<linearGradient id="paint88_linear_639_48219" x1="182.216" y1="166.241" x2="186.418" y2="166.598" gradientUnits="userSpaceOnUse">
<stop stop-color="#D8B803"/>
<stop offset="1" stop-color="#DDB802"/>
</linearGradient>
<linearGradient id="paint89_linear_639_48219" x1="182.176" y1="166.449" x2="186.384" y2="166.807" gradientUnits="userSpaceOnUse">
<stop stop-color="#D8B803"/>
<stop offset="1" stop-color="#DDB802"/>
</linearGradient>
<linearGradient id="paint90_linear_639_48219" x1="182.128" y1="166.656" x2="186.342" y2="167.016" gradientUnits="userSpaceOnUse">
<stop stop-color="#D8B803"/>
<stop offset="1" stop-color="#DDB802"/>
</linearGradient>
<linearGradient id="paint91_linear_639_48219" x1="182.071" y1="166.865" x2="186.292" y2="167.226" gradientUnits="userSpaceOnUse">
<stop stop-color="#D8B803"/>
<stop offset="1" stop-color="#DDB802"/>
</linearGradient>
<linearGradient id="paint92_linear_639_48219" x1="182.003" y1="167.076" x2="186.232" y2="167.437" gradientUnits="userSpaceOnUse">
<stop stop-color="#D8B803"/>
<stop offset="1" stop-color="#DDB802"/>
</linearGradient>
<linearGradient id="paint93_linear_639_48219" x1="181.922" y1="167.29" x2="186.161" y2="167.652" gradientUnits="userSpaceOnUse">
<stop stop-color="#D8B803"/>
<stop offset="1" stop-color="#DDB802"/>
</linearGradient>
<linearGradient id="paint94_linear_639_48219" x1="181.826" y1="167.51" x2="186.076" y2="167.872" gradientUnits="userSpaceOnUse">
<stop stop-color="#D8B803"/>
<stop offset="1" stop-color="#DDB802"/>
</linearGradient>
<linearGradient id="paint95_linear_639_48219" x1="181.712" y1="167.737" x2="185.976" y2="168.101" gradientUnits="userSpaceOnUse">
<stop stop-color="#D8B803"/>
<stop offset="1" stop-color="#DDB802"/>
</linearGradient>
<linearGradient id="paint96_linear_639_48219" x1="181.569" y1="167.977" x2="185.855" y2="168.341" gradientUnits="userSpaceOnUse">
<stop stop-color="#D8B803"/>
<stop offset="1" stop-color="#DDB802"/>
</linearGradient>
<linearGradient id="paint97_linear_639_48219" x1="181.389" y1="168.237" x2="185.703" y2="168.602" gradientUnits="userSpaceOnUse">
<stop stop-color="#D8B803"/>
<stop offset="1" stop-color="#DDB802"/>
</linearGradient>
<linearGradient id="paint98_linear_639_48219" x1="181.134" y1="168.528" x2="185.505" y2="168.894" gradientUnits="userSpaceOnUse">
<stop stop-color="#D8B803"/>
<stop offset="1" stop-color="#DDB802"/>
</linearGradient>
<linearGradient id="paint99_linear_639_48219" x1="179.727" y1="169.13" x2="184.972" y2="169.532" gradientUnits="userSpaceOnUse">
<stop stop-color="#D8B803"/>
<stop offset="1" stop-color="#DDB802"/>
</linearGradient>
<linearGradient id="paint100_linear_639_48219" x1="183.374" y1="152.297" x2="166.404" y2="151.153" gradientUnits="userSpaceOnUse">
<stop stop-color="#F7D914"/>
<stop offset="1" stop-color="#F9DD14"/>
</linearGradient>
<linearGradient id="paint101_linear_639_48219" x1="120.281" y1="48.6648" x2="126.434" y2="49.2945" gradientUnits="userSpaceOnUse">
<stop stop-color="#D8B803"/>
<stop offset="1" stop-color="#DDB802"/>
</linearGradient>
<linearGradient id="paint102_linear_639_48219" x1="122.929" y1="48.1991" x2="129.039" y2="48.9111" gradientUnits="userSpaceOnUse">
<stop stop-color="#D8B803"/>
<stop offset="1" stop-color="#DDB802"/>
</linearGradient>
<linearGradient id="paint103_linear_639_48219" x1="125.545" y1="47.9889" x2="131.388" y2="48.739" gradientUnits="userSpaceOnUse">
<stop stop-color="#D8B803"/>
<stop offset="1" stop-color="#DDB802"/>
</linearGradient>
<linearGradient id="paint104_linear_639_48219" x1="127.826" y1="47.9873" x2="133.548" y2="48.7083" gradientUnits="userSpaceOnUse">
<stop stop-color="#D8B803"/>
<stop offset="1" stop-color="#DDB802"/>
</linearGradient>
<linearGradient id="paint105_linear_639_48219" x1="129.94" y1="48.1346" x2="135.568" y2="48.7788" gradientUnits="userSpaceOnUse">
<stop stop-color="#D8B803"/>
<stop offset="1" stop-color="#DDB802"/>
</linearGradient>
<linearGradient id="paint106_linear_639_48219" x1="131.908" y1="48.4041" x2="137.485" y2="48.9976" gradientUnits="userSpaceOnUse">
<stop stop-color="#D8B803"/>
<stop offset="1" stop-color="#DDB802"/>
</linearGradient>
<linearGradient id="paint107_linear_639_48219" x1="133.795" y1="48.7785" x2="139.331" y2="49.3326" gradientUnits="userSpaceOnUse">
<stop stop-color="#D8B803"/>
<stop offset="1" stop-color="#DDB802"/>
</linearGradient>
<linearGradient id="paint108_linear_639_48219" x1="135.618" y1="49.2489" x2="141.112" y2="49.7704" gradientUnits="userSpaceOnUse">
<stop stop-color="#D8B803"/>
<stop offset="1" stop-color="#DDB802"/>
</linearGradient>
<linearGradient id="paint109_linear_639_48219" x1="137.377" y1="49.808" x2="142.838" y2="50.3022" gradientUnits="userSpaceOnUse">
<stop stop-color="#D8B803"/>
<stop offset="1" stop-color="#DDB802"/>
</linearGradient>
<linearGradient id="paint110_linear_639_48219" x1="139.087" y1="50.4523" x2="144.527" y2="50.9233" gradientUnits="userSpaceOnUse">
<stop stop-color="#D8B803"/>
<stop offset="1" stop-color="#DDB802"/>
</linearGradient>
<linearGradient id="paint111_linear_639_48219" x1="140.763" y1="51.1851" x2="146.191" y2="51.6357" gradientUnits="userSpaceOnUse">
<stop stop-color="#D8B803"/>
<stop offset="1" stop-color="#DDB802"/>
</linearGradient>
<linearGradient id="paint112_linear_639_48219" x1="142.42" y1="52.01" x2="147.843" y2="52.4419" gradientUnits="userSpaceOnUse">
<stop stop-color="#D8B803"/>
<stop offset="1" stop-color="#DDB802"/>
</linearGradient>
<linearGradient id="paint113_linear_639_48219" x1="144.067" y1="52.9347" x2="149.494" y2="53.3492" gradientUnits="userSpaceOnUse">
<stop stop-color="#D8B803"/>
<stop offset="1" stop-color="#DDB802"/>
</linearGradient>
<linearGradient id="paint114_linear_639_48219" x1="145.715" y1="53.9706" x2="151.154" y2="54.3683" gradientUnits="userSpaceOnUse">
<stop stop-color="#D8B803"/>
<stop offset="1" stop-color="#DDB802"/>
</linearGradient>
<linearGradient id="paint115_linear_639_48219" x1="147.375" y1="55.1348" x2="152.842" y2="55.5159" gradientUnits="userSpaceOnUse">
<stop stop-color="#D8B803"/>
<stop offset="1" stop-color="#DDB802"/>
</linearGradient>
<linearGradient id="paint116_linear_639_48219" x1="149.068" y1="56.4539" x2="154.573" y2="56.8181" gradientUnits="userSpaceOnUse">
<stop stop-color="#D8B803"/>
<stop offset="1" stop-color="#DDB802"/>
</linearGradient>
<linearGradient id="paint117_linear_639_48219" x1="150.809" y1="57.9595" x2="156.365" y2="58.3062" gradientUnits="userSpaceOnUse">
<stop stop-color="#D8B803"/>
<stop offset="1" stop-color="#DDB802"/>
</linearGradient>
<linearGradient id="paint118_linear_639_48219" x1="152.613" y1="59.7209" x2="158.268" y2="60.0484" gradientUnits="userSpaceOnUse">
<stop stop-color="#D8B803"/>
<stop offset="1" stop-color="#DDB802"/>
</linearGradient>
<linearGradient id="paint119_linear_639_48219" x1="154.543" y1="61.8341" x2="160.319" y2="62.1399" gradientUnits="userSpaceOnUse">
<stop stop-color="#D8B803"/>
<stop offset="1" stop-color="#DDB802"/>
</linearGradient>
<linearGradient id="paint120_linear_639_48219" x1="156.629" y1="64.5312" x2="162.669" y2="64.8106" gradientUnits="userSpaceOnUse">
<stop stop-color="#D8B803"/>
<stop offset="1" stop-color="#DDB802"/>
</linearGradient>
<linearGradient id="paint121_linear_639_48219" x1="159.06" y1="67.3597" x2="164.626" y2="67.6242" gradientUnits="userSpaceOnUse">
<stop stop-color="#D8B803"/>
<stop offset="1" stop-color="#DDB802"/>
</linearGradient>
<linearGradient id="paint122_linear_639_48219" x1="164.522" y1="96.8089" x2="102.992" y2="91.7059" gradientUnits="userSpaceOnUse">
<stop stop-color="#F7D914"/>
<stop offset="1" stop-color="#F9DD14"/>
</linearGradient>
<linearGradient id="paint123_linear_639_48219" x1="180" y1="151.899" x2="158.933" y2="150.335" gradientUnits="userSpaceOnUse">
<stop stop-color="#F7D914"/>
<stop offset="1" stop-color="#F9DD14"/>
</linearGradient>
<linearGradient id="paint124_linear_639_48219" x1="181.651" y1="167.004" x2="187.3" y2="167.329" gradientUnits="userSpaceOnUse">
<stop stop-color="#D8B803"/>
<stop offset="1" stop-color="#DDB802"/>
</linearGradient>
<linearGradient id="paint125_linear_639_48219" x1="171.461" y1="147.622" x2="184.991" y2="147.941" gradientUnits="userSpaceOnUse">
<stop stop-color="#D8B803"/>
<stop offset="1" stop-color="#DDB802"/>
</linearGradient>
<linearGradient id="paint126_linear_639_48219" x1="183.771" y1="157.019" x2="188.12" y2="157.371" gradientUnits="userSpaceOnUse">
<stop stop-color="#D8B803"/>
<stop offset="1" stop-color="#DDB802"/>
</linearGradient>
<linearGradient id="paint127_linear_639_48219" x1="183.993" y1="157.919" x2="188.699" y2="158.183" gradientUnits="userSpaceOnUse">
<stop stop-color="#D8B803"/>
<stop offset="1" stop-color="#DDB802"/>
</linearGradient>
<linearGradient id="paint128_linear_639_48219" x1="184.669" y1="159.026" x2="189.05" y2="159.316" gradientUnits="userSpaceOnUse">
<stop stop-color="#D8B803"/>
<stop offset="1" stop-color="#DDB802"/>
</linearGradient>
<linearGradient id="paint129_linear_639_48219" x1="184.922" y1="159.686" x2="189.202" y2="159.999" gradientUnits="userSpaceOnUse">
<stop stop-color="#D8B803"/>
<stop offset="1" stop-color="#DDB802"/>
</linearGradient>
<linearGradient id="paint130_linear_639_48219" x1="185.045" y1="160.171" x2="189.289" y2="160.492" gradientUnits="userSpaceOnUse">
<stop stop-color="#D8B803"/>
<stop offset="1" stop-color="#DDB802"/>
</linearGradient>
<linearGradient id="paint131_linear_639_48219" x1="185.125" y1="160.588" x2="189.345" y2="160.914" gradientUnits="userSpaceOnUse">
<stop stop-color="#D8B803"/>
<stop offset="1" stop-color="#DDB802"/>
</linearGradient>
<linearGradient id="paint132_linear_639_48219" x1="185.174" y1="160.958" x2="189.378" y2="161.289" gradientUnits="userSpaceOnUse">
<stop stop-color="#D8B803"/>
<stop offset="1" stop-color="#DDB802"/>
</linearGradient>
<linearGradient id="paint133_linear_639_48219" x1="185.204" y1="161.3" x2="189.396" y2="161.632" gradientUnits="userSpaceOnUse">
<stop stop-color="#D8B803"/>
<stop offset="1" stop-color="#DDB802"/>
</linearGradient>
<linearGradient id="paint134_linear_639_48219" x1="185.217" y1="161.625" x2="189.401" y2="161.959" gradientUnits="userSpaceOnUse">
<stop stop-color="#D8B803"/>
<stop offset="1" stop-color="#DDB802"/>
</linearGradient>
<linearGradient id="paint135_linear_639_48219" x1="185.208" y1="161.932" x2="189.397" y2="162.27" gradientUnits="userSpaceOnUse">
<stop stop-color="#D8B803"/>
<stop offset="1" stop-color="#DDB802"/>
</linearGradient>
<linearGradient id="paint136_linear_639_48219" x1="185.187" y1="162.227" x2="189.384" y2="162.568" gradientUnits="userSpaceOnUse">
<stop stop-color="#D8B803"/>
<stop offset="1" stop-color="#DDB802"/>
</linearGradient>
<linearGradient id="paint137_linear_639_48219" x1="185.156" y1="162.512" x2="189.36" y2="162.856" gradientUnits="userSpaceOnUse">
<stop stop-color="#D8B803"/>
<stop offset="1" stop-color="#DDB802"/>
</linearGradient>
<linearGradient id="paint138_linear_639_48219" x1="185.114" y1="162.789" x2="189.326" y2="163.135" gradientUnits="userSpaceOnUse">
<stop stop-color="#D8B803"/>
<stop offset="1" stop-color="#DDB802"/>
</linearGradient>
<linearGradient id="paint139_linear_639_48219" x1="185.064" y1="163.059" x2="189.282" y2="163.408" gradientUnits="userSpaceOnUse">
<stop stop-color="#D8B803"/>
<stop offset="1" stop-color="#DDB802"/>
</linearGradient>
<linearGradient id="paint140_linear_639_48219" x1="185.002" y1="163.327" x2="189.228" y2="163.677" gradientUnits="userSpaceOnUse">
<stop stop-color="#D8B803"/>
<stop offset="1" stop-color="#DDB802"/>
</linearGradient>
<linearGradient id="paint141_linear_639_48219" x1="184.93" y1="163.59" x2="189.164" y2="163.942" gradientUnits="userSpaceOnUse">
<stop stop-color="#D8B803"/>
<stop offset="1" stop-color="#DDB802"/>
</linearGradient>
<linearGradient id="paint142_linear_639_48219" x1="184.845" y1="163.854" x2="189.089" y2="164.207" gradientUnits="userSpaceOnUse">
<stop stop-color="#D8B803"/>
<stop offset="1" stop-color="#DDB802"/>
</linearGradient>
<linearGradient id="paint143_linear_639_48219" x1="184.746" y1="164.119" x2="189" y2="164.474" gradientUnits="userSpaceOnUse">
<stop stop-color="#D8B803"/>
<stop offset="1" stop-color="#DDB802"/>
</linearGradient>
<linearGradient id="paint144_linear_639_48219" x1="184.63" y1="164.386" x2="188.896" y2="164.742" gradientUnits="userSpaceOnUse">
<stop stop-color="#D8B803"/>
<stop offset="1" stop-color="#DDB802"/>
</linearGradient>
<linearGradient id="paint145_linear_639_48219" x1="184.49" y1="164.662" x2="188.775" y2="165.019" gradientUnits="userSpaceOnUse">
<stop stop-color="#D8B803"/>
<stop offset="1" stop-color="#DDB802"/>
</linearGradient>
<linearGradient id="paint146_linear_639_48219" x1="184.322" y1="164.95" x2="188.628" y2="165.308" gradientUnits="userSpaceOnUse">
<stop stop-color="#D8B803"/>
<stop offset="1" stop-color="#DDB802"/>
</linearGradient>
<linearGradient id="paint147_linear_639_48219" x1="184.106" y1="165.256" x2="188.448" y2="165.615" gradientUnits="userSpaceOnUse">
<stop stop-color="#D8B803"/>
<stop offset="1" stop-color="#DDB802"/>
</linearGradient>
<linearGradient id="paint148_linear_639_48219" x1="183.794" y1="165.608" x2="188.21" y2="165.967" gradientUnits="userSpaceOnUse">
<stop stop-color="#D8B803"/>
<stop offset="1" stop-color="#DDB802"/>
</linearGradient>
<linearGradient id="paint149_linear_639_48219" x1="183.575" y1="165.911" x2="187.917" y2="166.289" gradientUnits="userSpaceOnUse">
<stop stop-color="#D8B803"/>
<stop offset="1" stop-color="#DDB802"/>
</linearGradient>
</defs>
</svg>
