<?xml version="1.0" encoding="UTF-8"?>
<svg width="50px" height="50px" viewBox="0 0 50 50" version="1.1" xmlns="http://www.w3.org/2000/svg" xmlns:xlink="http://www.w3.org/1999/xlink">
    <title>Shape</title>
    <g id="Page-1" stroke="none" stroke-width="1" fill="none" fill-rule="evenodd">
        <g id="Group-8" transform="translate(-470.000000, -307.000000)" fill="#5A84EE">
            <path d="M495,307 C481.192871,307 470,318.192773 470,332 C470,345.807129 481.192871,357 495,357 C508.807129,357 520,345.807129 520,332 C520,318.192773 508.807129,307 495,307 Z M495,354.115385 C482.786079,354.115385 472.884615,344.214018 472.884615,332 C472.884615,319.785982 482.786079,309.884615 495,309.884615 C507.214018,309.884615 517.115385,319.785982 517.115385,332 C517.115385,344.214018 507.214018,354.115385 495,354.115385 Z M495,319.5 C493.40689,319.5 492.115385,320.719741 492.115385,322.224327 L492.115385,333.121827 C492.115385,334.626413 493.40689,335.846154 495,335.846154 C496.59311,335.846154 497.884615,334.626413 497.884615,333.121827 L497.884615,322.224327 C497.884615,320.719741 496.59311,319.5 495,319.5 L495,319.5 Z M492.115385,341.615384 L492.115385,341.615385 C492.115385,343.208515 493.40687,344.5 495,344.5 C496.59313,344.5 497.884615,343.208515 497.884615,341.615385 L497.884615,341.615385 C497.884615,340.022254 496.59313,338.730769 495,338.730769 C493.40687,338.730769 492.115385,340.022254 492.115385,341.615385 L492.115385,341.615384 Z" id="Shape"></path>
        </g>
    </g>
</svg>