<?xml version="1.0" encoding="UTF-8"?>
<svg width="44px" height="44px" viewBox="0 0 44 44" version="1.1" xmlns="http://www.w3.org/2000/svg" xmlns:xlink="http://www.w3.org/1999/xlink">
    <title>切片</title>
    <defs>
        <linearGradient x1="72.7060029%" y1="100%" x2="72.7060029%" y2="0%" id="linearGradient-1">
            <stop stop-color="#78ACFF" offset="0%"></stop>
            <stop stop-color="#4D7BFF" offset="100%"></stop>
        </linearGradient>
        <linearGradient x1="72.7060029%" y1="100%" x2="72.7060029%" y2="0%" id="linearGradient-2">
            <stop stop-color="#78ACFF" offset="0%"></stop>
            <stop stop-color="#4D7BFF" offset="100%"></stop>
        </linearGradient>
    </defs>
    <g id="Page-1" stroke="none" stroke-width="1" fill="none" fill-rule="evenodd">
        <g id="角色权限" transform="translate(-261.000000, -250.000000)">
            <g id="Group-3-Copy" transform="translate(-0.000000, 0.000000)">
                <g id="table/邮箱设置/收件人列表/表头-copy" transform="translate(237.000000, 237.000000)">
                    <g id="icon/角色/超级管理员" transform="translate(24.000000, 13.000000)">
                        <g id="Group-6" fill="#ECF1FF" fill-rule="nonzero">
                            <circle id="Oval" cx="22" cy="22" r="22"></circle>
                        </g>
                        <g id="Group" transform="translate(9.586714, 10.101919)">
                            <path d="M20.5728336,11.0557411 L20.6481395,11.0675641 C21.2348128,11.2237564 21.7910096,11.45614 22.3053011,11.7570957 C22.4767316,11.8561445 22.5414942,12.0770993 22.4576838,12.2599585 C22.2329193,12.7552022 22.3205394,13.3571138 22.7243534,13.7609279 C23.1319771,14.1647419 23.7300791,14.252362 24.2253227,14.0275975 C24.408182,13.9437871 24.6291368,14.0085497 24.7281856,14.1799802 C25.0291413,14.6942717 25.2615249,15.2504685 25.4177172,15.8371418 C25.4710511,16.0390488 25.3453354,16.2371463 25.1510475,16.3133376 C24.6519942,16.5076255 24.2977045,16.9914405 24.2977045,17.5552564 C24.2977045,18.1190723 24.6558038,18.6028873 25.1510475,18.7971752 C25.3453354,18.8733665 25.4710511,19.071464 25.4177172,19.273371 C25.2615249,19.8600443 25.0291413,20.416241 24.7281856,20.9305326 C24.6291368,21.1019631 24.408182,21.1667257 24.2253227,21.0829152 C23.7300791,20.8581508 23.1281675,20.9457708 22.7243534,21.3495849 C22.3205394,21.7572086 22.2329193,22.3553105 22.4576838,22.8505542 C22.5414942,23.0334134 22.4767316,23.2543683 22.3053011,23.353417 C21.7910096,23.6543728 21.2348128,23.8867564 20.6481395,24.0429486 C20.4462325,24.0962826 20.248135,23.9705669 20.1719437,23.7762789 C19.9776558,23.2772257 19.4938408,22.922936 18.9300249,22.922936 C18.366209,22.922936 17.882394,23.2810353 17.6881061,23.7762789 C17.6119148,23.9705669 17.4138173,24.0962826 17.2119103,24.0429486 C16.625237,23.8867564 16.0690403,23.6543728 15.5547487,23.353417 C15.3833182,23.2543683 15.3185556,23.0334134 15.4023661,22.8505542 C15.6271305,22.3553105 15.5395105,21.753399 15.1356964,21.3495849 C14.7280727,20.9457708 14.1299708,20.8581508 13.6347271,21.0829152 C13.4518679,21.1667257 13.230913,21.1019631 13.1318643,20.9305326 C12.8309085,20.416241 12.5985249,19.8600443 12.4423327,19.273371 C12.3889987,19.071464 12.5147144,18.8733665 12.7090023,18.7971752 C13.2080556,18.6028873 13.5623453,18.1190723 13.5623453,17.5552564 C13.5623453,16.9914405 13.204246,16.5076255 12.7090023,16.3133376 C12.5147144,16.2371463 12.3889987,16.0390488 12.4423327,15.8371418 C12.5985249,15.2504685 12.8309085,14.6942717 13.1318643,14.1799802 C13.230913,14.0085497 13.4518679,13.9437871 13.6347271,14.0275975 C14.1299708,14.252362 14.7318823,14.1647419 15.1356964,13.7609279 C15.5395105,13.3533042 15.6271305,12.7552022 15.4023661,12.2599585 C15.3185556,12.0770993 15.3833182,11.8561445 15.5547487,11.7570957 C16.0690403,11.45614 16.625237,11.2237564 17.2119103,11.0675641 C17.4138173,11.0142302 17.6119148,11.1399459 17.6881061,11.3342338 C17.882394,11.8294775 18.366209,12.1837672 18.9300249,12.1837672 C19.4938408,12.1837672 19.9776558,11.8294775 20.1719437,11.3342338 C20.248135,11.1399459 20.4462325,11.0142302 20.6481395,11.0675641 Z M19.1580251,15.6165899 C17.9616593,15.6165899 16.9913584,16.5868908 16.9913584,17.7832565 C16.9913584,18.9796223 17.9616593,19.9499232 19.1580251,19.9499232 C20.3543908,19.9499232 21.3246917,18.9796223 21.3246917,17.7832565 C21.3246917,16.5868908 20.3543908,15.6165899 19.1580251,15.6165899 Z" id="Combined-Shape" fill="url(#linearGradient-1)"></path>
                            <path d="M5.45980299,12.218266 L11.9891961,12.2287522 C10.8392119,14.0253839 10.2345091,16.101647 10.2345091,18.2373318 C10.2345091,19.985028 10.6294884,21.659321 11.4054655,23.218266 L2.73339689,23.218266 C1.22688275,23.218266 0,22.1451806 0,20.8239222 C0,20.7225558 0.00699078487,20.6316756 0.0209723546,20.5373 L0.510327296,17.0069537 C0.681601525,15.7835663 1.24086432,14.6790223 2.12869399,13.8191558 C3.02001907,12.9592892 4.17000318,12.4070172 5.45980299,12.218266 Z M10.4240944,0 C11.8111678,0 13.1147262,0.526506899 14.0951184,1.4778504 C15.0609862,2.42193174 15.5947553,3.67102397 15.5947553,5 C15.5947553,6.32897603 15.0609862,7.57806826 14.0951184,8.5221496 C13.1183573,9.47712418 11.8147989,10 10.4277255,10 L10.2824822,10 C7.49744229,9.92737836 5.25706466,7.7124183 5.25706466,4.99636892 C5.25706466,3.66739288 5.79083372,2.41830065 6.75670155,1.47421932 C7.73346263,0.526506899 9.03702109,0 10.4240944,0 Z" id="Combined-Shape" fill="url(#linearGradient-2)"></path>
                        </g>
                    </g>
                </g>
            </g>
        </g>
    </g>
</svg>