<?xml version="1.0" encoding="UTF-8"?>
<svg width="44px" height="44px" viewBox="0 0 44 44" version="1.1" xmlns="http://www.w3.org/2000/svg" xmlns:xlink="http://www.w3.org/1999/xlink">
    <title>切片</title>
    <defs>
        <linearGradient x1="72.7060029%" y1="100%" x2="72.7060029%" y2="0%" id="linearGradient-1">
            <stop stop-color="#78ACFF" offset="0%"></stop>
            <stop stop-color="#4D7BFF" offset="100%"></stop>
        </linearGradient>
        <linearGradient x1="72.7060029%" y1="100%" x2="72.7060029%" y2="0%" id="linearGradient-2">
            <stop stop-color="#78ACFF" offset="0%"></stop>
            <stop stop-color="#4D7BFF" offset="100%"></stop>
        </linearGradient>
    </defs>
    <g id="Page-1" stroke="none" stroke-width="1" fill="none" fill-rule="evenodd">
        <g id="角色权限" transform="translate(-261.000000, -457.000000)">
            <g id="Group-3-Copy" transform="translate(-0.000000, 0.000000)">
                <g id="table/邮箱设置/收件人列表/表头-copy-4" transform="translate(237.000000, 444.000000)">
                    <g id="icon/角色/超级管理员" transform="translate(24.000000, 13.000000)">
                        <g id="Group-6" fill="#ECF1FF" fill-rule="nonzero">
                            <circle id="Oval" cx="22" cy="22" r="22"></circle>
                        </g>
                        <path d="M16.0465169,22.3201853 L22.57591,22.3306715 C21.4259259,24.1273032 20.821223,26.2035663 20.821223,28.3392511 C20.821223,30.0869473 21.2162023,31.7612403 21.9921795,33.3201853 L13.3201108,33.3201853 C11.8135967,33.3201853 10.5867139,32.2470998 10.5867139,30.9258415 C10.5867139,30.8244751 10.5937047,30.7335949 10.6076863,30.6392193 L11.0970412,27.1088729 C11.2683155,25.8854856 11.8275782,24.7809416 12.7154079,23.921075 C13.606733,23.0612085 14.7567171,22.5089365 16.0465169,22.3201853 Z M21.0108084,10.1019193 C22.3978817,10.1019193 23.7014402,10.6284262 24.6818323,11.5797697 C25.6477002,12.523851 26.1814692,13.7729432 26.1814692,15.1019193 C26.1814692,16.4308953 25.6477002,17.6799875 24.6818323,18.6240689 C23.7050713,19.5790434 22.4015128,20.1019193 21.0144395,20.1019193 L20.8691962,20.1019193 C18.0841562,20.0292976 15.8437786,17.8143376 15.8437786,15.0982882 C15.8437786,13.7693121 16.3775477,12.5202199 17.3434155,11.5761386 C18.3201766,10.6284262 19.623735,10.1019193 21.0108084,10.1019193 Z" id="Combined-Shape" fill="url(#linearGradient-1)"></path>
                        <path d="M29.5,22 C33.0897991,22 36,24.9102009 36,28.5 C36,32.0897991 33.0897991,35 29.5,35 C25.9102009,35 23,32.0897991 23,28.5 C23,24.9102009 25.9102009,22 29.5,22 Z M32.2857143,24.3214286 L28.1071429,24.3214286 L26.7142857,28.9642857 L29.0357143,28.9642857 L27.6428571,33.6071429 L33.2142857,27.5714286 L30.8417857,27.5714286 L32.2857143,24.3214286 Z" id="Combined-Shape" fill="url(#linearGradient-2)"></path>
                    </g>
                </g>
            </g>
        </g>
    </g>
</svg>