<?xml version="1.0" encoding="UTF-8"?>
<svg width="44px" height="44px" viewBox="0 0 44 44" version="1.1" xmlns="http://www.w3.org/2000/svg" xmlns:xlink="http://www.w3.org/1999/xlink">
    <title>切片</title>
    <defs>
        <linearGradient x1="72.7060029%" y1="100%" x2="72.7060029%" y2="0%" id="linearGradient-1">
            <stop stop-color="#78ACFF" offset="0%"></stop>
            <stop stop-color="#4D7BFF" offset="100%"></stop>
        </linearGradient>
        <linearGradient x1="72.7060029%" y1="100%" x2="72.7060029%" y2="0%" id="linearGradient-2">
            <stop stop-color="#78ACFF" offset="0%"></stop>
            <stop stop-color="#4D7BFF" offset="100%"></stop>
        </linearGradient>
    </defs>
    <g id="Page-1" stroke="none" stroke-width="1" fill="none" fill-rule="evenodd">
        <g id="角色权限" transform="translate(-261.000000, -319.000000)">
            <g id="Group-3-Copy" transform="translate(-0.000000, 0.000000)">
                <g id="table/邮箱设置/收件人列表/表头-copy-2" transform="translate(237.000000, 306.000000)">
                    <g id="icon/角色/超级管理员" transform="translate(24.000000, 13.000000)">
                        <g id="Group-6" fill="#ECF1FF" fill-rule="nonzero">
                            <circle id="Oval" cx="22" cy="22" r="22"></circle>
                        </g>
                        <g id="Group-2" transform="translate(9.586714, 10.101919)">
                            <path d="M24.2825375,22.7676592 C24.621765,22.7676592 24.8083394,22.9203109 24.842262,23.2256154 L24.8479158,23.3327025 C24.8479158,23.7096219 24.659457,23.8980807 24.2825375,23.8980807 L12.9786643,23.8980807 C12.6394368,23.8980807 12.4528624,23.7454291 12.4189398,23.4401245 L12.4132861,23.3330374 C12.4132861,22.956118 12.6017449,22.7676592 12.9786643,22.7676592 L24.2825375,22.7676592 Z M18.9864891,10.8980807 C19.7264167,10.8980807 20.3262481,11.4979105 20.3262481,12.2378381 L20.3262481,20.0147982 C20.3262481,20.7547258 19.7264185,21.3545571 18.9864891,21.3545571 L18.2747425,21.3545571 C17.5348149,21.3545571 16.9349854,20.7547276 16.9349854,20.0147982 L16.9349854,12.2378379 C16.9349854,11.4979103 17.5348149,10.8980807 18.2747443,10.8980807 L18.9864891,10.8980807 Z M23.5081727,12.8762276 C24.2481003,12.8762276 24.8479316,13.4760588 24.8479316,14.2159864 L24.8479316,20.0151338 C24.8479316,20.7550614 24.248102,21.3548927 23.5081727,21.3548927 L22.7964261,21.3548927 C22.0564985,21.3548927 21.4566689,20.7550631 21.4566689,20.0151338 L21.4566689,14.2159865 C21.4566689,13.476059 22.0564985,12.8762276 22.7964261,12.8762276 L23.5081727,12.8762276 Z M14.4648056,14.854713 C15.2047332,14.854713 15.8045645,15.4545426 15.8045645,16.1944702 L15.8045645,20.0147982 C15.8045645,20.7547258 15.204735,21.3545571 14.4648056,21.3545571 L13.753059,21.3545571 C13.0131314,21.3545571 12.4133018,20.7547276 12.4133018,20.0147982 L12.4133018,16.1941348 C12.4133018,15.4542072 13.0131314,14.8543758 13.753059,14.8543758 L14.4648056,14.854713 Z" id="Combined-Shape" fill="url(#linearGradient-1)"></path>
                            <path d="M5.45980299,12.218266 L11.9891961,12.2287522 C10.8392119,14.0253839 10.2345091,16.101647 10.2345091,18.2373318 C10.2345091,19.985028 10.6294884,21.659321 11.4054655,23.218266 L2.73339689,23.218266 C1.22688275,23.218266 0,22.1451806 0,20.8239222 C0,20.7225558 0.00699078487,20.6316756 0.0209723546,20.5373 L0.510327296,17.0069537 C0.681601525,15.7835663 1.24086432,14.6790223 2.12869399,13.8191558 C3.02001907,12.9592892 4.17000318,12.4070172 5.45980299,12.218266 Z M10.4240944,0 C11.8111678,0 13.1147262,0.526506899 14.0951184,1.4778504 C15.0609862,2.42193174 15.5947553,3.67102397 15.5947553,5 C15.5947553,6.32897603 15.0609862,7.57806826 14.0951184,8.5221496 C13.1183573,9.47712418 11.8147989,10 10.4277255,10 L10.2824822,10 C7.49744229,9.92737836 5.25706466,7.7124183 5.25706466,4.99636892 C5.25706466,3.66739288 5.79083372,2.41830065 6.75670155,1.47421932 C7.73346263,0.526506899 9.03702109,0 10.4240944,0 Z" id="Combined-Shape" fill="url(#linearGradient-2)"></path>
                        </g>
                    </g>
                </g>
            </g>
        </g>
    </g>
</svg>