<?xml version="1.0" encoding="UTF-8"?>
<svg width="44px" height="44px" viewBox="0 0 44 44" version="1.1" xmlns="http://www.w3.org/2000/svg" xmlns:xlink="http://www.w3.org/1999/xlink">
    <title>切片</title>
    <defs>
        <linearGradient x1="50%" y1="0%" x2="50%" y2="139.469789%" id="linearGradient-1">
            <stop stop-color="#8553FF" offset="0%"></stop>
            <stop stop-color="#CAB7FF" offset="100%"></stop>
        </linearGradient>
        <linearGradient x1="50%" y1="0%" x2="50%" y2="139.469789%" id="linearGradient-2">
            <stop stop-color="#8553FF" offset="0%"></stop>
            <stop stop-color="#CAB7FF" offset="100%"></stop>
        </linearGradient>
    </defs>
    <g id="Page-1" stroke="none" stroke-width="1" fill="none" fill-rule="evenodd">
        <g id="角色权限" transform="translate(-261.000000, -802.000000)">
            <g id="Group-3-Copy" transform="translate(-0.000000, 0.000000)">
                <g id="table/邮箱设置/收件人列表/表头-copy-7" transform="translate(237.000000, 789.000000)">
                    <g id="icon/角色/超级管理员" transform="translate(24.000000, 13.000000)">
                        <circle id="Oval" fill="#EEEAFF" cx="22" cy="22" r="22"></circle>
                        <path d="M16.0465169,22.3201853 L22.57591,22.3306715 C21.4259259,24.1273032 20.821223,26.2035663 20.821223,28.3392511 C20.821223,30.0869473 21.2162023,31.7612403 21.9921795,33.3201853 L13.3201108,33.3201853 C11.8135967,33.3201853 10.5867139,32.2470998 10.5867139,30.9258415 C10.5867139,30.8244751 10.5937047,30.7335949 10.6076863,30.6392193 L11.0970412,27.1088729 C11.2683155,25.8854856 11.8275782,24.7809416 12.7154079,23.921075 C13.606733,23.0612085 14.7567171,22.5089365 16.0465169,22.3201853 Z M21.0108084,10.1019193 C22.3978817,10.1019193 23.7014402,10.6284262 24.6818323,11.5797697 C25.6477002,12.523851 26.1814692,13.7729432 26.1814692,15.1019193 C26.1814692,16.4308953 25.6477002,17.6799875 24.6818323,18.6240689 C23.7050713,19.5790434 22.4015128,20.1019193 21.0144395,20.1019193 L20.8691962,20.1019193 C18.0841562,20.0292976 15.8437786,17.8143376 15.8437786,15.0982882 C15.8437786,13.7693121 16.3775477,12.5202199 17.3434155,11.5761386 C18.3201766,10.6284262 19.623735,10.1019193 21.0108084,10.1019193 Z" id="Combined-Shape" fill="url(#linearGradient-1)" fill-rule="nonzero"></path>
                        <path d="M29.5147392,22 C30.4089196,22 31.2515069,22.1695011 32.042517,22.5085034 C32.8335228,22.8475057 33.5238095,23.3117914 34.1133787,23.9013605 C34.7029478,24.4909297 35.1672336,25.1812165 35.5062358,25.9722222 C35.8452381,26.763228 36.0147392,27.6058153 36.0147392,28.5 C36.0147392,29.4040056 35.8452381,30.24906 35.5062358,31.0351474 C35.1672336,31.8212391 34.7029478,32.5090703 34.1133787,33.0986395 C33.5238095,33.6882086 32.8335228,34.1524943 32.042517,34.4914966 C31.2515112,34.8304989 30.4089239,35 29.5147392,35 C28.6107337,35 27.7632323,34.8304989 26.9722222,34.4914966 C26.1812165,34.1524943 25.4909297,33.6882086 24.9013605,33.0986395 C24.3117914,32.5090703 23.8475057,31.8212391 23.5085034,31.0351474 C23.1695011,30.2490557 23,29.4040012 23,28.5 C23,27.6058196 23.1695011,26.7632323 23.5085034,25.9722222 C23.8475057,25.1812165 24.3117914,24.4909297 24.9013605,23.9013605 C25.4909297,23.3117914 26.1812165,22.8475057 26.9722222,22.5085034 C27.763228,22.1695011 28.610738,22 29.5147392,22 Z M33.2290249,29.399093 C33.4845044,29.399093 33.7006803,29.308201 33.877551,29.1264172 C34.0544218,28.9446339 34.1428571,28.726001 34.1428571,28.4705215 C34.1428571,28.2150421 34.0544218,27.9988662 33.877551,27.8219955 C33.7006803,27.6451247 33.4845044,27.5566893 33.2290249,27.5566893 L30.4580499,27.5566893 L30.4580499,24.7857143 C30.4580499,24.5302348 30.3671579,24.3116019 30.1853741,24.1298186 C30.0035908,23.9480352 29.7849579,23.8571429 29.5294785,23.8571429 C29.273999,23.8571429 29.0578231,23.9480348 28.8809524,24.1298186 C28.7040816,24.3116019 28.6156463,24.5302348 28.6156463,24.7857143 L28.6156463,27.5566893 L25.8446712,27.5566893 C25.5891917,27.5566893 25.3730159,27.6451247 25.1961451,27.8219955 C25.0192744,27.9988662 24.930839,28.2150421 24.930839,28.4705215 C24.930839,28.726001 25.0192744,28.9446339 25.1961451,29.1264172 C25.3730159,29.3082006 25.5891917,29.399093 25.8446712,29.399093 L28.6156463,29.399093 L28.6156463,32.1553288 C28.6156463,32.4108083 28.7040816,32.6294411 28.8809524,32.8112245 C29.0578231,32.9930078 29.273999,33.0839002 29.5294785,33.0839002 C29.7849579,33.0839002 30.0035908,32.9930083 30.1853741,32.8112245 C30.3671575,32.6294411 30.4580499,32.4108083 30.4580499,32.1553288 L30.4580499,29.399093 L33.2290249,29.399093 Z" id="Shape" fill="url(#linearGradient-2)" fill-rule="nonzero"></path>
                    </g>
                </g>
            </g>
        </g>
    </g>
</svg>