<?xml version="1.0" encoding="UTF-8"?>
<svg width="92px" height="93px" viewBox="0 0 92 93" version="1.1" xmlns="http://www.w3.org/2000/svg" xmlns:xlink="http://www.w3.org/1999/xlink">
    <title>Group</title>
    <defs>
        <linearGradient x1="72.7060029%" y1="100%" x2="72.7060029%" y2="0%" id="linearGradient-1">
            <stop stop-color="#78ACFF" offset="0%"></stop>
            <stop stop-color="#4D7BFF" offset="100%"></stop>
        </linearGradient>
    </defs>
    <g id="Page-1" stroke="none" stroke-width="1" fill="none" fill-rule="evenodd">
        <g id="系统设置/账号管理/密码安全策略" transform="translate(-301.000000, -168.000000)">
            <g id="Group-3-Copy" transform="translate(-0.000000, 0.000000)">
                <g transform="translate(237.000000, 76.843030)" id="编组">
                    <g transform="translate(24.000000, 74.500000)">
                        <g id="Group" transform="translate(40.000000, 17.000000)">
                            <circle id="Oval" fill="#EAEFFF" cx="46" cy="46" r="46"></circle>
                            <g id="个人策略" transform="translate(24.000000, 22.000000)">
                                <path d="M30.5484047,6.59668736 L2.76228835,6.59668736 C1.7877755,6.59668736 0.938199315,7.52122457 0.938199315,8.69564 L0.938199315,47.9011055 C0.938199315,49.0505307 1.73779986,50.0000582 2.76228835,50.0000582 L30.5484047,50.0000582 C34.4714463,50.0000582 37.6198973,46.3768655 37.6198973,41.8791015 L37.6198973,14.6676928 C37.6198973,10.194924 34.4464805,6.59668736 30.5484047,6.59668736 L30.5484047,6.59668736 Z M6.03562224,14.2178876 L31.7228299,14.2178876 C32.7578472,14.2178876 33.5968945,15.056935 33.5968945,16.0919523 C33.5968945,17.1269697 32.7578472,17.966017 31.7228299,17.966017 L6.03562224,17.966017 C5.0006049,17.966017 4.16155756,17.1269697 4.16155756,16.0919523 C4.16155756,15.056935 5.0006049,14.2178876 6.03562224,14.2178876 Z M22.9022141,27.3363404 L6.31047607,27.3363404 C5.27545873,27.3363404 4.43641139,26.4972931 4.43641139,25.4622757 C4.43641139,24.4272584 5.27545873,23.588211 6.31047607,23.588211 L22.9022141,23.588211 C23.9372315,23.588211 24.7762788,24.4272584 24.7762788,25.4622757 C24.7762788,26.4972931 23.9372315,27.3363404 22.9022141,27.3363404 Z M18.5293868,42.9535363 L11.6577967,35.6321899 L6.63976471,40.808897 C5.91899952,41.5524535 4.73256841,41.5728794 3.98663548,40.8545739 C3.24215818,40.1376701 3.21980542,38.9529867 3.93670918,38.2085094 C3.93713664,38.2080655 3.93756431,38.2076218 3.93799221,38.2071784 L11.5578748,30.3098497 L11.5578748,30.3098497 L11.6828124,30.4347874 L11.80775,30.3098497 L14.1815663,32.8585783 L14.2315414,32.9085534 L20.1535698,39.230387 L31.5112199,29.7361227 C32.3037444,29.0736232 33.4832745,29.1790293 34.145774,29.9715539 C34.1460458,29.971879 34.1463175,29.9722042 34.146589,29.9725295 C34.8093531,30.7664666 34.7041221,31.9471208 33.9113942,32.6113307 L19.7787354,44.4527861 L19.7787354,44.4527861 L18.5293868,42.9535363 Z" id="Shape" fill="url(#linearGradient-1)"></path>
                                <path d="M35.5708715,-1.95312727e-05 L8.35946283,-1.95312727e-05 L8.35946283,3.74812936 L35.5459202,3.74812936 C38.419488,3.74812936 40.7433384,6.54673125 40.7433384,9.99501163 L40.7433384,37.5062741 L44.4914678,37.5062741 L44.4914678,9.9700116 C44.4914678,4.47273958 40.4934602,-1.95312727e-05 35.5709007,-1.95312727e-05 L35.5708715,-1.95312727e-05 Z" id="Path" fill="#88A7FF" fill-rule="nonzero"></path>
                            </g>
                        </g>
                    </g>
                </g>
            </g>
        </g>
    </g>
</svg>