<?xml version="1.0" encoding="UTF-8"?>
<svg width="44px" height="44px" viewBox="0 0 44 44" version="1.1" xmlns="http://www.w3.org/2000/svg" xmlns:xlink="http://www.w3.org/1999/xlink">
    <title>切片</title>
    <defs>
        <linearGradient x1="72.7060029%" y1="100%" x2="72.7060029%" y2="0%" id="linearGradient-1">
            <stop stop-color="#78ACFF" offset="0%"></stop>
            <stop stop-color="#4D7BFF" offset="100%"></stop>
        </linearGradient>
        <linearGradient x1="72.7060029%" y1="100%" x2="72.7060029%" y2="0%" id="linearGradient-2">
            <stop stop-color="#78ACFF" offset="0%"></stop>
            <stop stop-color="#4D7BFF" offset="100%"></stop>
        </linearGradient>
    </defs>
    <g id="Page-1" stroke="none" stroke-width="1" fill="none" fill-rule="evenodd">
        <g id="角色权限" transform="translate(-261.000000, -388.000000)">
            <g id="Group-3-Copy" transform="translate(-0.000000, 0.000000)">
                <g id="table/邮箱设置/收件人列表/表头-copy-3" transform="translate(237.000000, 375.000000)">
                    <g id="icon/角色/超级管理员" transform="translate(24.000000, 13.000000)">
                        <g id="Group-6" fill="#ECF1FF" fill-rule="nonzero">
                            <circle id="Oval" cx="22" cy="22" r="22"></circle>
                        </g>
                        <g id="Group" transform="translate(10.586714, 10.101919)">
                            <path d="M5.45980299,12.218266 L11.9891961,12.2287522 C10.8392119,14.0253839 10.2345091,16.101647 10.2345091,18.2373318 C10.2345091,19.985028 10.6294884,21.659321 11.4054655,23.218266 L2.73339689,23.218266 C1.22688275,23.218266 0,22.1451806 0,20.8239222 C0,20.7225558 0.00699078487,20.6316756 0.0209723546,20.5373 L0.510327296,17.0069537 C0.681601525,15.7835663 1.24086432,14.6790223 2.12869399,13.8191558 C3.02001907,12.9592892 4.17000318,12.4070172 5.45980299,12.218266 Z M10.4240944,0 C11.8111678,0 13.1147262,0.526506899 14.0951184,1.4778504 C15.0609862,2.42193174 15.5947553,3.67102397 15.5947553,5 C15.5947553,6.32897603 15.0609862,7.57806826 14.0951184,8.5221496 C13.1183573,9.47712418 11.8147989,10 10.4277255,10 L10.2824822,10 C7.49744229,9.92737836 5.25706466,7.7124183 5.25706466,4.99636892 C5.25706466,3.66739288 5.79083372,2.41830065 6.75670155,1.47421932 C7.73346263,0.526506899 9.03702109,0 10.4240944,0 Z" id="Combined-Shape" fill="url(#linearGradient-1)"></path>
                            <path d="M23.1060448,15.9767098 L16.5529708,15.9767098 L16.5529708,13.3732537 C16.5529708,12.2372002 17.4772836,11.3128828 18.6133417,11.3128828 C19.7494725,11.3128828 20.6738034,12.2371956 20.6738034,13.3732537 C20.6738034,13.7639159 20.9905408,14.0806532 21.381203,14.0806532 C21.7718651,14.0806532 22.0886025,13.7639159 22.0886025,13.3732537 C22.0886025,11.4570015 20.5295909,9.89808074 18.6133387,9.89808074 C16.6970865,9.89808074 15.1381657,11.4570015 15.1381657,13.3732537 L15.1381657,15.9767098 L14.1206856,15.9767098 C13.731618,15.9767098 13.4132861,16.2950418 13.4132861,16.6841093 L13.4132861,22.1906812 C13.4132861,22.5797488 13.731618,22.8980807 14.1206856,22.8980807 L23.1060463,22.8980807 C23.4951139,22.8980807 23.8134458,22.5797488 23.8134458,22.1906812 L23.8134458,16.6840942 C23.8134458,16.2950266 23.4951139,15.9767098 23.1060463,15.9767098 L23.1060448,15.9767098 Z M19.1988637,19.3507153 L19.1988637,20.6775332 C19.1988637,20.9935898 18.9402594,21.252194 18.6242028,21.252194 L18.6025596,21.252194 C18.286503,21.252194 18.0278988,20.9935898 18.0278988,20.6775332 L18.0278988,19.3507001 C17.7506087,19.1627997 17.5683438,18.8452105 17.5683438,18.4850318 C17.5683438,17.9078626 18.0362288,17.4399791 18.6133814,17.4399791 C19.1905506,17.4399791 19.6584341,17.9078641 19.6584341,18.4850318 C19.6584341,18.8452257 19.476154,19.1627997 19.198864,19.3507153 L19.1988637,19.3507153 Z" id="Shape" fill="url(#linearGradient-2)" transform="translate(18.613366, 16.398081) scale(-1, 1) translate(-18.613366, -16.398081) "></path>
                        </g>
                    </g>
                </g>
            </g>
        </g>
    </g>
</svg>