<?xml version="1.0" standalone="no"?><!DOCTYPE svg PUBLIC "-//W3C//DTD SVG 1.1//EN" "http://www.w3.org/Graphics/SVG/1.1/DTD/svg11.dtd"><svg t="1619416727701" class="icon" viewBox="0 0 1024 1024" version="1.1" xmlns="http://www.w3.org/2000/svg" p-id="7901" xmlns:xlink="http://www.w3.org/1999/xlink" width="200" height="200"><defs><style type="text/css"></style></defs><path d="M512 96m-96 0a96 96 0 1 0 192 0 96 96 0 1 0-192 0Z" fill="#D8DCE3" p-id="7902"></path><path d="M96 96m-96 0a96 96 0 1 0 192 0 96 96 0 1 0-192 0Z" fill="#D8DCE3" p-id="7903"></path><path d="M512 512m-96 0a96 96 0 1 0 192 0 96 96 0 1 0-192 0Z" fill="#9AB5E9" p-id="7904"></path><path d="M512 928m-96 0a96 96 0 1 0 192 0 96 96 0 1 0-192 0Z" fill="#D8DCE3" p-id="7905"></path><path d="M928 96m-96 0a96 96 0 1 0 192 0 96 96 0 1 0-192 0Z" fill="#9AB5E9" p-id="7906"></path><path d="M928 512m-96 0a96 96 0 1 0 192 0 96 96 0 1 0-192 0Z" fill="#D8DCE3" p-id="7907"></path><path d="M928 928m-96 0a96 96 0 1 0 192 0 96 96 0 1 0-192 0Z" fill="#D8DCE3" p-id="7908"></path><path d="M96 512m-96 0a96 96 0 1 0 192 0 96 96 0 1 0-192 0Z" fill="#D8DCE3" p-id="7909"></path><path d="M96 928m-96 0a96 96 0 1 0 192 0 96 96 0 1 0-192 0Z" fill="#9AB5E9" p-id="7910"></path></svg>