<?xml version="1.0" encoding="UTF-8"?>
<svg width="17px" height="17px" viewBox="0 0 17 17" version="1.1" xmlns="http://www.w3.org/2000/svg" xmlns:xlink="http://www.w3.org/1999/xlink">
    <!-- Generator: Sketch 63.1 (92452) - https://sketch.com -->
    <title>切换</title>
    <desc>Created with Sketch.</desc>
    <g id="Symbols" stroke="none" stroke-width="1" fill="none" fill-rule="evenodd">
        <g id="切换" fill-rule="nonzero">
            <g>
                <path d="M5.43009884,16.6895147 L14.0114163,16.6895147 C15.5078023,16.6895147 16.7207576,15.4765762 16.7207576,13.9801656 L16.7207576,5.39886388 C16.7207576,3.90247357 15.5078023,2.68951473 14.0114163,2.68951473 L5.43009884,2.68951473 C3.93371289,2.68951473 2.72075757,3.90247357 2.72075757,5.39886388 L2.72075757,13.9801656 C2.72075757,15.4765559 3.93371289,16.6895147 5.43009884,16.6895147 Z" id="Path" fill-opacity="0.45" fill="#4E79F2"></path>
                <path d="M2.79323003,14.0531905 L11.3749769,14.0531905 C12.8714377,14.0531905 14.0844537,12.8401745 14.0844537,11.3437137 L14.0844537,2.7609288 C14.0844537,1.26444762 12.8714377,0.0514519602 11.3749769,0.0514519602 L2.79323003,0.0514519602 C1.2967692,0.0514519602 0.0837531902,1.26444762 0.0837531902,2.7609288 L0.0837531902,11.3426756 C0.0837531902,12.8401745 1.29780723,14.0531905 2.79323003,14.0531905 L2.79323003,14.0531905 Z" id="Path" fill-opacity="0.26" fill="#4E79F2"></path>
                <path d="M5.56882235,2.68949437 L14.0844333,2.68949437 L14.0844333,11.2051054 C14.0844333,12.7776481 12.8099493,14.0531905 11.2363686,14.0531905 L2.7217956,14.0531905 L2.7217956,5.53652112 C2.7217956,3.96399873 3.99629996,2.68949437 5.56882235,2.68949437 Z" id="Path" fill-opacity="0.7" fill="#4E79F2"></path>
                <path d="M13.1268053,8.54318081 L6.87317149,8.54318081 C6.39078802,8.54318081 6.00006381,8.17596265 6.00006381,7.72259947 C6.00006381,7.26923629 6.39078802,6.90201812 6.87317149,6.90201812 L11.1819451,6.90201812 L10.6744513,6.36555506 L10.6744513,6.36555505 C10.3543175,6.02785858 10.3860785,5.51019516 10.7453896,5.20932068 C10.7461138,5.20871422 10.7468391,5.2081089 10.7475655,5.20750472 L10.7475655,5.20750474 C11.1068719,4.90662424 11.6576716,4.93646448 11.9778118,5.27415413 C11.9784637,5.27484185 11.9791145,5.2755306 11.979764,5.27622039 L13.7794401,7.17896341 C14.0075438,7.42000918 14.0643086,7.76567106 13.9235157,8.0600466 C13.7827228,8.35442215 13.4705911,8.54318081 13.1268049,8.54318081 L13.1268053,8.54318081 Z M8.67286897,13.3999988 C8.43165592,13.3999988 8.19265974,13.3066395 8.02021245,13.1240721 L6.22051497,11.2213492 L6.22051495,11.2213491 C5.99222586,10.9798746 5.93584263,10.6350161 6.07646071,10.340266 L6.07646066,10.3402661 C6.21758351,10.0456461 6.52939167,9.85616313 6.87317142,9.85611104 L13.1257181,9.85611104 C13.6081016,9.85611104 13.9988258,10.2233292 13.9988258,10.6766924 C13.9988258,11.1300556 13.6081016,11.4972737 13.1257181,11.4972737 L8.81692314,11.4972737 L9.32441698,12.0337168 L9.32441697,12.0337167 C9.64455077,12.3714132 9.61278977,12.8890766 9.25347868,13.1899511 C9.25275443,13.1905576 9.2520291,13.1911629 9.25130271,13.1917671 L9.2513027,13.1917671 C9.09260323,13.3261375 8.88647116,13.4003422 8.67286886,13.3999988 L8.67286897,13.3999988 Z" id="Shape" fill="#F7F8F8"></path>
            </g>
        </g>
    </g>
</svg>