<?xml version="1.0" encoding="UTF-8"?>
<svg width="203px" height="56px" viewBox="0 0 203 56" version="1.1" xmlns="http://www.w3.org/2000/svg" xmlns:xlink="http://www.w3.org/1999/xlink">
    <!-- Generator: Sketch 63.1 (92452) - https://sketch.com -->
    <title>Group 6</title>
    <desc>Created with Sketch.</desc>
    <g id="Page-1" stroke="none" stroke-width="1" fill="none" fill-rule="evenodd">
        <g id="组织管理/历史令牌/交互效果" transform="translate(-797.000000, -142.000000)">
            <g id="Group-6" transform="translate(797.000000, 142.000000)">
                <g id="Group-3" transform="translate(43.000000, 8.000000)" stroke="#BAC7EB" stroke-linecap="round" stroke-width="1.5">
                    <path d="M0,34 C11.9891805,16.1485244 28.7518131,6.81147332 50.2878979,5.9888467 C60.5240943,5.59784864 65.1281658,9.60072384 65.1281658,15.0397461 C65.1281658,21.2580961 61.0466517,24.4198352 54.8845058,24.4198352 C50.6317651,24.4198352 45.746795,21.5 45.746795,14.6274825 C45.746795,7.75496498 56.6458517,0.908870282 62.7924696,0.908870282 C68.9390875,0.908870282 80.2124457,-2.8054031 107,4.7832805" id="Path-3" stroke-dasharray="4,5"></path>
                    <polyline id="Path-4" points="110.191629 0 114 9.00595824 105 10"></polyline>
                </g>
                <path d="M193.890055,25.1642372 L171.390484,25.1642372 C169.524191,25.1642372 168,23.640083 168,21.7737529 L168,7.88001539 C168,6.0137221 169.524191,4.48953107 171.390484,4.48953107 L193.890055,4.48953107 C195.756348,4.48953107 197.280539,6.0137221 197.280539,7.88001539 L197.280539,21.7737529 C197.280539,23.640083 195.756348,25.1642372 193.890055,25.1642372 Z M171.390484,6.56322708 C170.664704,6.56322708 170.073696,7.15423467 170.073696,7.88005219 L170.073696,21.7737529 C170.073696,22.4995336 170.664704,23.090578 171.390521,23.090578 L193.890055,23.090578 C194.615835,23.090578 195.206843,22.4995336 195.206843,21.7737529 L195.206843,7.88001539 C195.206843,7.15423467 194.615835,6.56322708 193.890018,6.56322708 L171.390521,6.56322708 L171.390484,6.56322708 Z M169.047242,18.5906345 L196.596224,18.5906345 L196.596224,20.6643305 L169.047242,20.6643305 L169.047242,18.5906345 Z M192.127408,29.788615 L173.153131,29.788615 C172.582838,29.788615 172.116302,29.3220417 172.116302,28.7517854 C172.116302,28.1815291 172.582838,27.714919 173.153131,27.714919 L192.127408,27.714919 C192.697701,27.714919 193.164237,28.1814923 193.164237,28.7517486 C193.164237,29.3220049 192.697701,29.7885782 192.127408,29.7885782 L192.127408,29.788615 Z M181.297542,28.746524 L181.297542,23.7696683 L183.993373,23.7696683 L183.993373,28.746524 L181.297542,28.746524 Z M198.659545,1.95399252e-13 L176.159974,1.95399252e-13 C174.293681,1.95399252e-13 172.76949,1.52415424 172.76949,3.39048433 L172.76949,4.49990672 L174.843186,4.49990672 L174.843186,3.38010867 C174.843186,2.65432795 175.434193,2.06332035 176.160011,2.06332035 L198.659545,2.06332035 C199.385325,2.06332035 199.976333,2.65432795 199.976333,3.38014546 L199.976333,14.0907278 L197.280502,14.0907278 L197.280502,16.164387 L199.976333,16.164387 L199.976333,17.2738462 C199.976333,17.9996269 199.385325,18.5906713 198.659508,18.5906713 L197.280502,18.5906713 L197.280502,20.6643305 L198.659508,20.6643305 C200.525838,20.6643305 202.049992,19.1401763 202.049992,17.2738462 L202.049992,3.38010867 C202.049992,1.51381538 200.525838,1.95399252e-13 198.659508,1.95399252e-13 L198.659545,1.95399252e-13 Z" id="Shape" fill="#A7BCF3" fill-rule="nonzero"></path>
                <g id="Group-2" transform="translate(0.000000, 20.000000)" fill="#C3D2FB" fill-rule="nonzero">
                    <path d="M33.6307989,4.92939023e-14 L1.987307,4.92939023e-14 C0.889916075,4.92939023e-14 1.11732845e-12,0.889518613 1.11732845e-12,1.987307 L1.11732845e-12,5.95198447 C1.11732845e-12,7.04977285 0.889916075,7.93929147 1.987307,7.93929147 L33.6307989,7.93929147 C34.7285873,7.93929147 35.6181059,7.04977285 35.6181059,5.95198447 L35.6181059,1.987307 C35.6181059,0.889518613 34.7285873,4.92939023e-14 33.6307989,4.92939023e-14 Z M22.37032,4.64632377 C22.37032,5.10380184 21.9994885,5.47463332 21.5420104,5.47463332 L20.1886544,5.47463332 C19.7311763,5.47463332 19.3603448,5.10380184 19.3603448,4.64632377 L19.3603448,3.33271384 C19.3603448,2.87523577 19.7311763,2.50440428 20.1886544,2.50440428 L21.5420104,2.50440428 C21.9994885,2.50440428 22.37032,2.87523577 22.37032,3.33271384 L22.37032,4.64632377 Z M27.5770643,4.64632377 C27.5770643,5.10380184 27.2062328,5.47463332 26.7487548,5.47463332 L25.3953987,5.47463332 C24.9379206,5.47463332 24.5670891,5.10380184 24.5670891,4.64632377 L24.5670891,3.33271384 C24.5670891,2.87523577 24.9379206,2.50440428 25.3953987,2.50440428 L26.7487548,2.50440428 C27.2062328,2.50440428 27.5770643,2.87523577 27.5770643,3.33271384 L27.5770643,4.64632377 Z M32.7838087,4.64632377 C32.7838087,5.10380184 32.4129772,5.47463332 31.9554991,5.47463332 L30.602143,5.47463332 C30.144665,5.47463332 29.7738335,5.10380184 29.7738335,4.64632377 L29.7738335,3.33271384 C29.7738335,2.87523577 30.144665,2.50440428 30.602143,2.50440428 L31.9554991,2.50440428 C32.4129772,2.50440428 32.7838087,2.87523577 32.7838087,3.33271384 L32.7838087,4.64632377 Z" id="Shape"></path>
                    <path d="M22.37032,3.4188706 L22.37032,3.46465814 C22.37032,2.93764349 21.9994885,2.51044569 21.5420104,2.51044569 L20.1886544,2.51044569 C19.7311763,2.51044569 19.3603448,2.93764349 19.3603448,3.46465814 L19.3603448,3.4188706 C19.3603448,2.89185594 19.7311763,2.46465814 20.1886544,2.46465814 L21.5420104,2.46465814 C21.9994885,2.46465814 22.37032,2.89185594 22.37032,3.4188706 Z M27.5770643,3.4188706 L27.5770643,3.46465814 C27.5770643,2.93764349 27.2062328,2.51044569 26.7487548,2.51044569 L25.3953987,2.51044569 C24.9379206,2.51044569 24.5670891,2.93764349 24.5670891,3.46465814 L24.5670891,3.4188706 C24.5670891,2.89185594 24.9379206,2.46465814 25.3953987,2.46465814 L26.7487548,2.46465814 C27.2062328,2.46465814 27.5770643,2.89185594 27.5770643,3.4188706 Z M32.7838087,3.4188706 L32.7838087,3.46465814 C32.7838087,2.93764349 32.4129772,2.51044569 31.9554991,2.51044569 L30.602143,2.51044569 C30.144665,2.51044569 29.7738335,2.93764349 29.7738335,3.46465814 L29.7738335,3.4188706 C29.7738335,2.89185594 30.144665,2.46465814 30.602143,2.46465814 L31.9554991,2.46465814 C32.4129772,2.46465814 32.7838087,2.89185594 32.7838087,3.4188706 Z" id="Shape"></path>
                    <g id="Group" transform="translate(0.000000, 0.039746)">
                        <path d="M33.6307989,4.92939023e-14 L1.987307,4.92939023e-14 C0.889916075,4.92939023e-14 1.11732845e-12,0.889518613 1.11732845e-12,1.987307 L1.11732845e-12,5.95198447 C1.11732845e-12,7.04977285 0.889916075,7.93929147 1.987307,7.93929147 L33.6307989,7.93929147 C34.7285873,7.93929147 35.6181059,7.04977285 35.6181059,5.95198447 L35.6181059,1.987307 C35.6181059,0.889518613 34.7285873,4.92939023e-14 33.6307989,4.92939023e-14 Z M29.7738335,3.2929677 C29.7738335,2.83548963 30.144665,2.46465814 30.602143,2.46465814 L31.9554991,2.46465814 C32.4129772,2.46465814 32.7838087,2.83548963 32.7838087,3.2929677 L32.7838087,4.60657763 C32.7838087,5.0640557 32.4129772,5.43488718 31.9554991,5.43488718 L30.602143,5.43488718 C30.144665,5.43488718 29.7738335,5.0640557 29.7738335,4.60657763 L29.7738335,3.2929677 Z M24.5670891,3.2929677 C24.5670891,2.83548963 24.9379206,2.46465814 25.3953987,2.46465814 L26.7487548,2.46465814 C27.2062328,2.46465814 27.5770643,2.83548963 27.5770643,3.2929677 L27.5770643,4.60657763 C27.5770643,5.0640557 27.2062328,5.43488718 26.7487548,5.43488718 L25.3953987,5.43488718 C24.9379206,5.43488718 24.5670891,5.0640557 24.5670891,4.60657763 L24.5670891,3.2929677 Z M19.3603448,3.2929677 C19.3603448,2.83548963 19.7311763,2.46465814 20.1886544,2.46465814 L21.5420104,2.46465814 C21.9994885,2.46465814 22.37032,2.83548963 22.37032,3.2929677 L22.37032,4.60657763 C22.37032,5.0640557 21.9994885,5.43488718 21.5420104,5.43488718 L20.1886544,5.43488718 C19.7311763,5.43488718 19.3603448,5.0640557 19.3603448,4.60657763 L19.3603448,3.2929677 Z" id="Shape"></path>
                        <path d="M33.6307989,9.38008904 L1.987307,9.38008904 C0.889916075,9.38008904 1.11430865e-12,10.2696077 1.11430865e-12,11.367396 L1.11430865e-12,15.3320735 C1.11430865e-12,16.4298619 0.889916075,17.3193805 1.987307,17.3193805 L33.6307989,17.3193805 C34.7285873,17.3193805 35.6181059,16.4298619 35.6181059,15.3320735 L35.6181059,11.367396 C35.6181059,10.2696077 34.7285873,9.38008904 33.6307989,9.38008904 Z M22.37032,14.0264128 C22.37032,14.4838909 21.9994885,14.8547224 21.5420104,14.8547224 L20.1886544,14.8547224 C19.7311763,14.8547224 19.3603448,14.4838909 19.3603448,14.0264128 L19.3603448,12.6730567 C19.3603448,12.2155787 19.7311763,11.8447472 20.1886544,11.8447472 L21.5420104,11.8447472 C21.9994885,11.8447472 22.37032,12.2155787 22.37032,12.6730567 L22.37032,14.0264128 Z M27.5770643,14.0264128 C27.5770643,14.4838909 27.2062328,14.8547224 26.7487548,14.8547224 L25.3953987,14.8547224 C24.9379206,14.8547224 24.5670891,14.4838909 24.5670891,14.0264128 L24.5670891,12.6730567 C24.5670891,12.2155787 24.9379206,11.8447472 25.3953987,11.8447472 L26.7487548,11.8447472 C27.2062328,11.8447472 27.5770643,12.2155787 27.5770643,12.6730567 L27.5770643,14.0264128 Z M32.7838087,14.0264128 C32.7838087,14.4838909 32.4129772,14.8547224 31.9554991,14.8547224 L30.602143,14.8547224 C30.144665,14.8547224 29.7738335,14.4838909 29.7738335,14.0264128 L29.7738335,12.6730567 C29.7738335,12.2155787 30.144665,11.8447472 30.602143,11.8447472 L31.9554991,11.8447472 C32.4129772,11.8447472 32.7838087,12.2155787 32.7838087,12.6730567 L32.7838087,14.0264128 Z M33.6307989,18.7601781 L1.987307,18.7601781 C0.889916075,18.7601781 1.11075593e-12,19.6496967 1.11075593e-12,20.7474851 L1.11075593e-12,24.7121625 C1.11075593e-12,25.8099509 0.889916075,26.6994695 1.987307,26.6994695 L33.6307989,26.6994695 C34.7285873,26.6994695 35.6181059,25.8099509 35.6181059,24.7121625 L35.6181059,20.7474851 C35.6181059,19.6496967 34.7285873,18.7601781 33.6307989,18.7601781 Z M22.37032,23.4065018 C22.37032,23.8639799 21.9994885,24.2348114 21.5420104,24.2348114 L20.1886544,24.2348114 C19.7311763,24.2348114 19.3603448,23.8639799 19.3603448,23.4065018 L19.3603448,22.0531458 C19.3603448,21.5956677 19.7311763,21.2248362 20.1886544,21.2248362 L21.5420104,21.2248362 C21.9994885,21.2248362 22.37032,21.5956677 22.37032,22.0531458 L22.37032,23.4065018 Z M27.5770643,23.4065018 C27.5770643,23.8639799 27.2062328,24.2348114 26.7487548,24.2348114 L25.3953987,24.2348114 C24.9379206,24.2348114 24.5670891,23.8639799 24.5670891,23.4065018 L24.5670891,22.0531458 C24.5670891,21.5956677 24.9379206,21.2248362 25.3953987,21.2248362 L26.7487548,21.2248362 C27.2062328,21.2248362 27.5770643,21.5956677 27.5770643,22.0531458 L27.5770643,23.4065018 Z M32.7838087,23.4065018 C32.7838087,23.8639799 32.4129772,24.2348114 31.9554991,24.2348114 L30.602143,24.2348114 C30.144665,24.2348114 29.7738335,23.8639799 29.7738335,23.4065018 L29.7738335,22.0531458 C29.7738335,21.5956677 30.144665,21.2248362 30.602143,21.2248362 L31.9554991,21.2248362 C32.4129772,21.2248362 32.7838087,21.5956677 32.7838087,22.0531458 L32.7838087,23.4065018 Z" id="Shape"></path>
                        <path d="M15.3646653,32.4360299 L15.3646653,32.4360304 C15.3646653,34.0511982 16.6740185,35.3605514 18.2891863,35.3605514 C19.9043542,35.3605514 21.2137073,34.0511982 21.2137073,32.4360304 L21.2137073,32.4360303 C21.2137073,30.8208624 19.9043542,29.5115093 18.2891863,29.5115093 C16.6740185,29.5115093 15.3646653,30.8208624 15.3646653,32.4360303 C15.3646653,32.4360304 15.3646653,32.4360304 15.3646653,32.4360304 L15.3646653,32.4360299 Z" id="Path"></path>
                        <path d="M11.4059498,33.7448703 L1.33388046,33.7448703 C0.610898172,33.7448703 0.0246426068,33.1586148 0.0246426068,32.4356325 C0.0246426068,31.7126502 0.610898172,31.1263946 1.33388046,31.1263946 L11.4063473,31.1263946 C12.1293295,31.1263946 12.7155851,31.7126502 12.7155851,32.4356325 C12.7151876,33.1590122 12.1289321,33.7448703 11.4059498,33.7448703 L11.4059498,33.7448703 Z M16.9799485,26.7173553 L16.9799485,26.0961231 C16.9799485,25.3731409 17.566204,24.7868853 18.2891863,24.7868853 C19.0121686,24.7868853 19.5984242,25.3731409 19.5984242,26.0961231 L19.5984242,26.7173553 C19.5984242,27.4403376 19.0121686,28.0265932 18.2891863,28.0265932 C17.566204,28.0261957 16.9799485,27.4403376 16.9799485,26.7173553 L16.9799485,26.7173553 Z M34.2599803,33.7448703 L24.187911,33.7448703 C23.4649287,33.7448703 22.8786731,33.1586148 22.8786731,32.4356325 C22.8786731,31.7126502 23.4649287,31.1263946 24.187911,31.1263946 L34.2603778,31.1263946 C34.98336,31.1263946 35.5696156,31.7126502 35.5696156,32.4356325 C35.5692181,33.1590122 34.9829626,33.7448703 34.2599803,33.7448703 Z" id="Shape"></path>
                        <path d="M9.4432854,31.9996173 L26.4379399,31.9996173 L26.4379399,32.8724425 L9.4432854,32.8724425 L9.4432854,31.9996173 Z M17.852575,31.3995301 L17.852575,25.6864199 L18.7254002,25.6864199 L18.7254002,31.3995301 L17.852575,31.3995301 Z" id="Shape"></path>
                    </g>
                    <path d="M22.37032,4.64632377 L22.37032,4.69211131 C22.37032,5.21912596 21.9994885,5.64632377 21.5420104,5.64632377 L20.1886544,5.64632377 C19.7311763,5.64632377 19.3603448,5.21912596 19.3603448,4.69211131 L19.3603448,4.64632377 C19.3603448,5.17333842 19.7311763,5.60053622 20.1886544,5.60053622 L21.5420104,5.60053622 C21.9994885,5.60053622 22.37032,5.17333842 22.37032,4.64632377 Z M27.5770643,4.64632377 L27.5770643,4.69211131 C27.5770643,5.21912596 27.2062328,5.64632377 26.7487548,5.64632377 L25.3953987,5.64632377 C24.9379206,5.64632377 24.5670891,5.21912596 24.5670891,4.69211131 L24.5670891,4.64632377 C24.5670891,5.17333842 24.9379206,5.60053622 25.3953987,5.60053622 L26.7487548,5.60053622 C27.2062328,5.60053622 27.5770643,5.17333842 27.5770643,4.64632377 Z M32.7838087,4.64632377 L32.7838087,4.69211131 C32.7838087,5.21912596 32.4129772,5.64632377 31.9554991,5.64632377 L30.602143,5.64632377 C30.144665,5.64632377 29.7738335,5.21912596 29.7738335,4.69211131 L29.7738335,4.64632377 C29.7738335,5.17333842 30.144665,5.60053622 30.602143,5.60053622 L31.9554991,5.60053622 C32.4129772,5.60053622 32.7838087,5.17333842 32.7838087,4.64632377 Z" id="Shape"></path>
                </g>
            </g>
        </g>
    </g>
</svg>