<?xml version="1.0" encoding="UTF-8"?>
<svg width="39px" height="38px" viewBox="0 0 39 38" version="1.1" xmlns="http://www.w3.org/2000/svg" xmlns:xlink="http://www.w3.org/1999/xlink">
    <title>联动</title>
    <defs>
        <linearGradient x1="11.3794155%" y1="16.7071704%" x2="81.510861%" y2="82.0823734%" id="linearGradient-1">
            <stop stop-color="#82ADFA" offset="0%"></stop>
            <stop stop-color="#618BFF" offset="100%"></stop>
        </linearGradient>
        <path d="M15.2308748,28.2489362 C15.2560599,28.2730496 15.2686525,28.2971631 15.2686525,28.3212766 C15.2434674,28.3212766 15.2056896,28.3453901 15.1553192,28.393617 C15.2056896,28.3453901 15.2308748,28.2971631 15.2308748,28.2489362 L15.2308748,28.2489362 Z M15.3000001,27.3446808 C15.3000001,27.4411347 15.3120568,27.5255319 15.3361703,27.5978723 L15.4085107,27.8148936 C15.3843972,27.9113475 15.3241135,28.0560284 15.2276596,28.2489362 C14.9865249,27.8390071 14.9865249,27.5496454 15.2276596,27.3808511 L15.3000001,27.3446808 Z M15.1553192,28.393617 C15.1070923,28.5141844 15.0407802,28.6468085 14.956383,28.7914894 C14.8719859,28.9361702 14.7936171,29.0687943 14.7212766,29.1893617 C14.6489362,29.1170213 14.6007093,28.9964539 14.5765958,28.8276596 C14.6730497,28.7553191 14.7634752,28.6829787 14.8478724,28.6106383 C14.9322695,28.5382978 15.0347518,28.4659574 15.1553192,28.393617 L15.1553192,28.393617 Z M16.2042553,28.393617 C16.4212766,28.3453901 16.6262412,28.3574468 16.819149,28.4297872 C16.9879433,28.4780142 17.1567376,28.5804964 17.325532,28.737234 C17.4943263,28.8939716 17.6390072,29.1411348 17.7595745,29.4787234 C17.9524823,29.9851064 17.9705674,30.4734043 17.8138298,30.943617 C17.6570922,31.4138298 17.4219859,31.7815603 17.1085107,32.0468085 C16.8673759,32.2397163 16.7166667,32.414539 16.656383,32.5712766 C16.5960994,32.7280142 16.590071,32.8666667 16.6382979,32.987234 C16.6624114,33.1319149 16.7226951,33.2886525 16.819149,33.4574468 C16.9156029,33.6262411 17.0241135,33.8070922 17.1446809,34 L17,34 C14.6609929,34 12.4606383,33.5539007 10.3989362,32.6617021 C8.33723404,31.7695036 6.53475177,30.5578014 4.99148936,29.0265958 C3.44822695,27.4953901 2.23049645,25.6989362 1.33829786,23.6372341 C0.446099262,21.575532 0,19.3631206 0,17 C0,14.6609929 0.446099286,12.4606383 1.33829786,10.3989362 C2.23049643,8.33723404 3.44822693,6.53475177 4.99148936,4.99148936 C6.53475179,3.44822695 8.33723406,2.23049645 10.3989362,1.33829786 C12.4606383,0.446099262 14.6609929,0 17,0 C19.3390071,0 21.5453901,0.446099309 23.6191489,1.33829786 C25.6929078,2.2304964 27.49539,3.44822691 29.0265958,4.99148936 C30.5578015,6.53475182 31.7695036,8.33723409 32.6617021,10.3989362 C33.5539007,12.4606383 34,14.6609929 34,17 L34,17.5425532 C34,17.7113475 33.9879433,17.8921986 33.9638298,18.0851064 C33.8673759,18.0368794 33.7769504,17.9886525 33.6925532,17.9404255 C33.608156,17.8921986 33.5297873,17.8439716 33.4574468,17.7957447 C33.312766,17.7475177 33.15,17.7535461 32.9691489,17.8138298 C32.7882979,17.8741135 32.6375887,17.9524823 32.5170213,18.0489362 C32.3241135,18.241844 32.137234,18.356383 31.956383,18.3925532 C31.7755319,18.4287234 31.5826241,18.4166667 31.3776596,18.356383 C31.172695,18.2960994 30.9556737,18.2117022 30.7265957,18.1031915 C30.4975177,17.9946809 30.2503546,17.8801419 29.9851064,17.7595745 C29.4546099,17.5425533 29.0024823,17.3436171 28.6287234,17.162766 C28.2549645,16.981915 28.0801418,16.6503547 28.1042553,16.1680852 C28.1042553,16.0234043 28.0741135,15.8666667 28.0138298,15.6978724 C27.9535461,15.5290781 27.8269503,15.396454 27.6340426,15.3000001 C27.4893617,15.2276597 27.2783688,15.1613476 27.0010638,15.1010639 C26.7237589,15.0407802 26.4283688,15.00461 26.1148936,14.9925533 C25.8014184,14.9804966 25.4939716,15.0046101 25.1925532,15.0648937 C24.8911347,15.1251774 24.6439716,15.2397164 24.4510638,15.4085108 C24.3787234,15.5049647 24.3304964,15.6134753 24.306383,15.7340427 L24.2340425,16.0957448 C24.1858156,16.2886526 24.1014184,16.5297874 23.980851,16.819149 C23.8602837,17.1085107 23.5347518,17.3617022 23.0042553,17.5787235 C22.7390071,17.6751774 22.4978723,17.7957448 22.2808511,17.9404256 C22.0638298,18.0851065 21.8648936,18.2056739 21.6840426,18.3021278 C21.5031915,18.3985817 21.3223404,18.4468086 21.1414894,18.4468086 C20.9606383,18.4468086 20.7737589,18.3503547 20.5808511,18.1574469 C20.3638298,17.9404257 20.122695,17.8439718 19.8574468,17.8680852 C19.664539,17.8921987 19.4656028,17.9705675 19.2606383,18.1031916 C19.0556738,18.2358158 18.8567376,18.3925533 18.6638298,18.5734044 C18.470922,18.7542554 18.2900709,18.9531916 18.1212766,19.1702129 C17.9524823,19.3872342 17.8319149,19.5921987 17.7595745,19.7851065 C17.735461,19.80922 17.7234043,19.8453902 17.7234043,19.8936171 C17.6992908,19.8453902 17.6872341,19.7851065 17.6872341,19.7127661 C17.6872341,19.6404257 17.6751774,19.5560285 17.6510639,19.4595746 C17.6028369,18.9531916 17.4099291,18.5191491 17.0723405,18.1574469 C16.7347518,17.7957448 16.3489362,17.5907803 15.9148937,17.5425533 C15.577305,17.5184398 15.3180852,17.4581562 15.1372341,17.3617023 C14.956383,17.2652484 14.7815603,17.1687945 14.612766,17.0723406 C14.4439717,16.9758866 14.2450355,16.8854611 14.0159575,16.801064 C13.7868795,16.7166668 13.4432625,16.6624115 12.9851064,16.638298 C12.3340426,16.6141845 11.8698582,16.5840427 11.5925532,16.5478724 C11.3152483,16.5117022 11.1163121,16.4815604 10.9957447,16.4574469 C10.8751774,16.4333334 10.7787235,16.40922 10.706383,16.3851065 C10.6340426,16.360993 10.4893617,16.360993 10.2723405,16.3851065 C10.0553192,16.3851065 9.66950359,16.4815604 9.11489366,16.6744682 C8.56028373,16.867376 7.99964544,17.0904256 7.43297878,17.3436171 C6.86631213,17.5968086 6.36595752,17.8620568 5.93191495,18.1393618 C5.49787239,18.4166667 5.28085111,18.6397164 5.28085111,18.8085107 C5.28085111,19.7730497 5.38333338,20.5507093 5.58829793,21.1414894 C5.79326248,21.7322696 6.01631213,22.148227 6.25744686,22.3893618 C6.37801423,22.5099292 6.54078019,22.588298 6.74574474,22.6244682 C6.95070929,22.6606384 7.17375893,22.6907803 7.41489367,22.7148937 C7.6560284,22.7390072 7.87907804,22.769149 8.08404259,22.8053193 C8.28900715,22.8414895 8.4517731,22.931915 8.57234047,23.0765959 C8.83758869,23.3659576 9.14503551,23.486525 9.49468091,23.438298 C9.84432632,23.390071 10.181915,23.3117022 10.5074469,23.2031916 C10.8329788,23.094681 11.1102837,23.0524824 11.3393618,23.0765959 C11.5684398,23.1007094 11.6950355,23.3297874 11.719149,23.7638299 C11.719149,23.9567377 11.7553192,24.1014186 11.8276596,24.1978725 C11.9,24.2943264 11.9964539,24.3666668 12.1170213,24.4148938 L12.5510639,24.631915 C12.7198582,24.7283689 12.9007093,24.8609931 13.0936171,25.0297874 C13.2865249,25.2226952 13.3528369,25.4035462 13.2925532,25.5723406 C13.2322695,25.7411349 13.1358156,25.9039008 13.0031915,26.0606384 C12.8705674,26.217376 12.75,26.3861704 12.6414894,26.5670214 C12.5329787,26.7478725 12.5390071,26.9226952 12.6595745,27.0914895 C12.8283688,27.3567377 13.0092199,27.5496455 13.2021277,27.6702129 C13.3950355,27.7907803 13.5819149,27.8932626 13.762766,27.9776598 C13.9436171,28.0620569 14.1003546,28.1585108 14.2329788,28.2670215 C14.3656029,28.3755321 14.4680851,28.5503548 14.5404256,28.7914895 C14.5404256,28.815603 14.5524823,28.8276597 14.5765958,28.8276597 C14.2390071,29.0687945 14.0581561,29.3460995 14.0340426,29.6595746 C13.9858156,29.9248229 14.040071,29.9911349 14.1968086,29.8585108 C14.3535462,29.7258867 14.5283689,29.502837 14.7212766,29.1893619 C14.7453901,29.2375888 14.7815603,29.2375888 14.8297873,29.1893619 C14.8539007,29.1652484 14.8659575,29.1290782 14.8659575,29.0808512 C14.8900709,29.1049647 15.0166667,29.207447 15.2457447,29.3882981 C15.4748227,29.5691492 15.7219858,29.7500002 15.987234,29.9308513 C16.2524823,30.1117023 16.5056737,30.2624115 16.7468085,30.3829789 C16.9879433,30.5035463 17.1326241,30.5276598 17.1808511,30.4553193 C17.2049645,30.4070924 17.1507092,30.3106385 17.0180851,30.1659576 C16.885461,30.0212768 16.7166667,29.8464541 16.5117021,29.6414895 C16.3067376,29.436525 16.0836879,29.2195037 15.8425532,28.9904257 C15.6014184,28.7613477 15.4085106,28.538298 15.2638298,28.3212768 C15.4085106,28.2489364 15.5170212,28.1765959 15.5893617,28.1042555 C15.7822695,28.2730498 15.987234,28.3695037 16.2042553,28.3936172 L16.2042553,28.393617 Z M16.312766,8.49999997 C16.1198582,8.49999997 15.8184398,8.5542553 15.4085107,8.66276594 C14.9985816,8.77127659 14.5826242,8.95212765 14.1606383,9.20531913 C13.7386525,9.45851061 13.3769504,9.78404253 13.075532,10.1819149 C12.7741135,10.5797872 12.635461,11.0680851 12.6595745,11.6468085 C12.683688,12.2978724 12.798227,12.7198582 13.0031915,12.912766 C13.2081561,13.1056738 13.4734043,13.2141844 13.7989362,13.2382979 C14.1244681,13.2624114 14.5102837,13.2865248 14.956383,13.3106383 C15.4024823,13.3347518 15.8907802,13.4914894 16.4212766,13.7808511 C17.0241135,13.829078 17.5907802,13.9014185 18.1212766,13.9978724 C18.5794327,14.0702128 19.0436171,14.1606383 19.5138298,14.269149 C19.9840426,14.3776596 20.3758866,14.5283688 20.6893618,14.7212766 C21.0510639,14.9382979 21.1776596,15.1131206 21.069149,15.2457447 C20.9606383,15.3783688 20.7978724,15.4868794 20.5808511,15.5712766 C20.3638298,15.6556737 20.170922,15.7521276 20.0021277,15.8606383 C19.8333333,15.9691489 19.8815603,16.1198582 20.1468085,16.3127659 C20.5085107,16.5780142 20.7375887,16.7046099 20.8340426,16.6925532 C20.9304965,16.6804964 21.0329788,16.608156 21.1414894,16.4755319 C21.25,16.3429078 21.4368795,16.1982269 21.7021277,16.0414893 C21.9673759,15.8847517 22.4496454,15.8063829 23.1489362,15.8063829 C22.9560284,15.8063829 22.9017731,15.7641843 22.9861702,15.6797872 C23.0705674,15.59539 23.2152483,15.4929077 23.4202128,15.3723403 C23.6251774,15.251773 23.8542554,15.1070921 24.1074469,14.9382978 C24.3606383,14.7695035 24.583688,14.6127659 24.7765958,14.468085 C24.8971632,14.3475176 25.1021277,14.3113474 25.3914894,14.3595744 C25.6808511,14.4078013 26.0124114,14.4801418 26.3861702,14.5765957 C26.7599291,14.6730496 27.1517731,14.7815602 27.5617022,14.9021276 C27.9716313,15.022695 28.3453901,15.1070921 28.6829788,15.1553191 C29.0205674,15.203546 29.2978724,15.1854609 29.5148937,15.1010637 C29.731915,15.0166666 29.8524823,14.8297872 29.8765958,14.5404254 C29.9007093,14.1063829 29.8946809,13.7024822 29.8585107,13.3287233 C29.8223405,12.9549645 29.7439717,12.587234 29.6234043,12.2255318 C29.5028369,11.8638297 29.3400709,11.4840425 29.1351064,11.0861701 C28.9301419,10.6882978 28.670922,10.2361702 28.3574468,9.72978717 C28.0198582,9.19929073 27.7184397,8.75319144 27.4531915,8.39148931 C27.1879433,8.02978719 26.9226951,7.72234037 26.6574468,7.46914887 C26.3921986,7.21595737 26.1148936,6.98687935 25.8255319,6.78191483 C25.5361702,6.5769503 25.1985816,6.36595739 24.812766,6.1489361 C24.4269504,5.9319148 24.0471632,5.69680841 23.6734043,5.44361694 C23.2996454,5.19042546 22.8957447,5.02163113 22.4617022,4.93723394 C22.0276596,4.85283676 21.5574469,4.90709208 21.0510639,5.09999991 C20.5446809,5.29290774 19.9780142,5.71489357 19.3510639,6.36595738 C19.1581561,6.5347517 18.9351064,6.74574461 18.681915,6.99893611 C18.4287235,7.25212761 18.1574469,7.487234 17.8680852,7.70425527 C17.5787235,7.92127654 17.2953901,8.10815598 17.0180852,8.26489357 C16.7407802,8.42163117 16.5056738,8.49999997 16.312766,8.49999997 L16.312766,8.49999997 Z M17.831915,20.8702128 L18.2659575,21.3042553 C18.3624114,21.4007092 18.4166667,21.4971631 18.4287235,21.593617 C18.4407802,21.6900709 18.4226951,21.8106383 18.3744682,21.9553192 C18.3262412,22.1 18.2418441,22.3049646 18.1212767,22.5702128 C18.0007093,22.883688 17.8680852,23.179078 17.7234044,23.456383 C17.5787235,23.733688 17.4099292,23.9687944 17.2170214,24.1617022 C17.3617022,23.9929079 17.4702129,23.8120568 17.5425533,23.619149 C17.7113476,23.0886525 17.8078015,22.606383 17.831915,22.1723405 C17.8560285,21.7382979 17.8439717,21.2801419 17.7957448,20.7978724 L17.831915,20.8340426 L17.831915,20.8702128 L17.831915,20.8702128 Z" id="path-2"></path>
        <filter x="-14.7%" y="-5.9%" width="123.5%" height="123.5%" filterUnits="objectBoundingBox" id="filter-3">
            <feOffset dx="-1" dy="2" in="SourceAlpha" result="shadowOffsetOuter1"></feOffset>
            <feGaussianBlur stdDeviation="1" in="shadowOffsetOuter1" result="shadowBlurOuter1"></feGaussianBlur>
            <feColorMatrix values="0 0 0 0 0.786547256   0 0 0 0 0.897757929   0 0 0 0 1  0 0 0 0.6 0" type="matrix" in="shadowBlurOuter1"></feColorMatrix>
        </filter>
        <linearGradient x1="11.7943789%" y1="14.0363567%" x2="100%" y2="60.6021193%" id="linearGradient-4">
            <stop stop-color="#7EEBB5" offset="0%"></stop>
            <stop stop-color="#75DFAB" offset="100%"></stop>
        </linearGradient>
        <path d="M33.8723892,25.2085211 C33.9680973,25.4010432 34.0099696,25.6657611 33.9980061,26.0026748 C33.9860426,26.3395885 33.9322068,26.652437 33.8364987,26.9412202 C33.7886446,27.1337423 33.7108818,27.2600849 33.6032101,27.3202481 C33.4955385,27.3804112 33.3938487,27.4104928 33.2981406,27.4104928 C32.9392352,27.3864276 32.5922934,27.4646397 32.257315,27.6451292 C31.9223367,27.8256187 31.6830664,28.0843203 31.5395043,28.421234 C31.3959422,28.7581477 31.3600516,29.0890451 31.4318327,29.4139261 C31.5036138,29.7388072 31.6711029,30.0336067 31.9343002,30.2983246 C31.9582272,30.3464552 31.9941178,30.4066183 32.0419718,30.4788141 C32.0658988,30.5269446 32.0898259,30.5931241 32.1137529,30.6773525 C32.1376799,30.761581 32.1376799,30.8397931 32.1137529,30.9119889 C32.0658988,31.1767068 31.8804644,31.4715063 31.5574496,31.7963874 C31.2344347,32.1212684 30.9293652,32.2957416 30.6422409,32.3198069 C30.4986787,32.3438721 30.3850254,32.3318395 30.3012808,32.283709 C30.2175362,32.2355785 30.1278099,32.1754153 30.0321018,32.1032195 C29.8406856,31.9347627 29.5774883,31.7783384 29.24251,31.6339469 C28.9075316,31.4895553 28.5725533,31.4775226 28.2375749,31.597849 C27.9025966,31.7422406 27.6513628,31.9708606 27.4838737,32.283709 C27.3163845,32.5965575 27.2326399,32.9214385 27.2326399,33.2583523 C27.2326399,33.5230702 27.1249683,33.7155923 26.9096251,33.8359186 C26.7182089,33.956245 26.4191211,34.0103918 26.0123617,33.9983592 C25.6056023,33.9863266 25.2706239,33.9201471 25.0074267,33.7998208 C24.8160105,33.727625 24.7203024,33.5591681 24.7203024,33.2944502 C24.7203024,32.9575365 24.6365578,32.6206228 24.4690686,32.2837091 C24.3015795,31.9467954 24.0503457,31.6941101 23.7153674,31.5256532 C23.380389,31.3812616 23.0274654,31.3632127 22.6565966,31.4715064 C22.2857277,31.5798001 21.9806581,31.7663059 21.7413879,32.0310238 C21.5738987,32.1994806 21.346592,32.2235459 21.0594677,32.1032196 C20.7962704,31.9828933 20.5091461,31.7602896 20.1980948,31.4354085 C19.8870435,31.1105274 19.7075908,30.8157279 19.6597368,30.55101 C19.6118827,30.3584879 19.7075908,30.1419005 19.9468611,29.9012478 C20.1382773,29.732791 20.2878212,29.4921383 20.3954927,29.1792899 C20.5031643,28.8664415 20.4971826,28.5415604 20.3775475,28.2046467 C20.3057664,27.9880593 20.1861313,27.8196024 20.0186421,27.6992761 C19.8511529,27.5789497 19.6717002,27.4826887 19.480284,27.4104929 C19.2649408,27.3382971 19.0376341,27.2901666 18.7983639,27.2661013 C18.6069477,27.2179708 18.475349,27.145775 18.403568,27.0495139 C18.2121518,26.8569918 18.1224254,26.5260944 18.1343889,26.0568217 C18.1463525,25.5875491 18.2241153,25.2325864 18.3676774,24.9919338 C18.5112396,24.7753464 18.6667652,24.6790853 18.8342544,24.7031506 C19.1931598,24.7031506 19.5460834,24.6189222 19.8930252,24.4504653 C20.2399671,24.2820085 20.4852191,24.0293232 20.6287812,23.6924095 C20.7723434,23.3554958 20.7843069,23.0065494 20.6646717,22.6455704 C20.5450366,22.2845915 20.3655839,21.971743 20.1263137,21.7070251 C19.9588245,21.5385683 19.9348975,21.3099483 20.0545326,21.0211651 C20.1741677,20.7564472 20.3715657,20.4917292 20.6467265,20.2270113 C20.9218872,19.9622934 21.1791028,19.8058692 21.418373,19.7577387 C21.5858622,19.7336734 21.7533513,19.8058692 21.9208405,19.9743261 C22.1601108,20.2149787 22.4532168,20.3774193 22.8001587,20.4616477 C23.1471005,20.5458761 23.4880606,20.5278272 23.823039,20.4075008 C23.9905281,20.3353051 24.140072,20.2209951 24.2716707,20.0645708 C24.4032693,19.9081466 24.5109409,19.7517224 24.5946855,19.5952982 C24.6784301,19.4388739 24.7442294,19.288466 24.7920834,19.1440745 C24.8399375,18.9996829 24.8638645,18.8913892 24.8638645,18.8191934 C24.8877915,18.7710629 24.9057368,18.6988671 24.9177003,18.602606 C24.9296638,18.5063449 24.9715361,18.4341491 25.0433172,18.3860186 C25.1629523,18.2897575 25.3184779,18.2235781 25.5098941,18.1874802 C25.7013103,18.1513823 25.8987083,18.1333333 26.102088,18.1333333 C26.3054677,18.1333333 26.5028656,18.1573986 26.6942818,18.2055291 L27.1249683,18.3138228 C27.2446034,18.3619533 27.3223662,18.4461818 27.3582568,18.5665081 C27.3941473,18.6868344 27.4120926,18.7951281 27.4120926,18.8913891 C27.3881656,19.2283029 27.4599466,19.5471676 27.6274358,19.8479834 C27.794925,20.1487992 28.0461587,20.3714029 28.3811371,20.5157945 C28.7161154,20.6601861 29.0570755,20.696284 29.4040174,20.6240882 C29.7509592,20.5518924 30.0440652,20.3834355 30.2833355,20.1187176 C30.3551166,20.0705871 30.4508247,20.0224566 30.5704598,19.974326 C30.6900949,19.9261955 30.7977665,19.9261955 30.8934746,19.974326 C31.1566719,20.0946523 31.4318327,20.2992071 31.718957,20.5879903 C32.0060813,20.8767735 32.1735704,21.1896219 32.2214245,21.5265356 C32.2453515,21.6227967 32.2274062,21.7130414 32.1675887,21.7972698 C32.1077711,21.8814983 32.0539353,21.9476777 32.0060813,21.9958083 C31.742884,22.2364609 31.5694131,22.5252441 31.4856685,22.8621578 C31.4019239,23.1990715 31.4318327,23.5359852 31.5753948,23.8728989 C31.718957,24.2098126 31.9582272,24.4624979 32.2932056,24.6309548 C32.6281839,24.7994116 32.9631622,24.88364 33.2981406,24.88364 C33.5613378,24.8355095 33.752754,24.9438032 33.8723892,25.2085211 L33.8723892,25.2085211 Z" id="path-5"></path>
        <filter x="-25.2%" y="-12.6%" width="150.4%" height="150.4%" filterUnits="objectBoundingBox" id="filter-6">
            <feOffset dx="0" dy="2" in="SourceAlpha" result="shadowOffsetOuter1"></feOffset>
            <feGaussianBlur stdDeviation="1" in="shadowOffsetOuter1" result="shadowBlurOuter1"></feGaussianBlur>
            <feColorMatrix values="0 0 0 0 0.786547256   0 0 0 0 0.897757929   0 0 0 0 1  0 0 0 0.6 0" type="matrix" in="shadowBlurOuter1"></feColorMatrix>
        </filter>
        <path d="M28.1583925,26.8981838 C28.3916469,26.3320182 28.3916469,25.7658527 28.1583925,25.1996871 C27.9251381,24.6335215 27.5328466,24.2246242 26.9815179,23.972995 C26.4089843,23.742335 25.8311495,23.742335 25.2480135,23.972995 C24.6648774,24.2036551 24.2566822,24.5915833 24.0234277,25.1367798 C23.7689684,25.7029454 23.7318597,26.2953223 23.9121018,26.9139106 C24.0923438,27.5324989 24.4899366,27.9676076 25.1048801,28.2192368 L25.1684949,28.1248759 C25.7834384,28.3974741 26.3718757,28.4027164 26.9338068,28.1406027 C27.4957379,27.878489 27.9039332,27.4643494 28.1583925,26.8981838 L28.1583925,26.8981838 Z" id="path-7"></path>
        <filter x="-198.5%" y="-132.4%" width="497.1%" height="497.1%" filterUnits="objectBoundingBox" id="filter-8">
            <feOffset dx="0" dy="3" in="SourceAlpha" result="shadowOffsetOuter1"></feOffset>
            <feGaussianBlur stdDeviation="2.5" in="shadowOffsetOuter1" result="shadowBlurOuter1"></feGaussianBlur>
            <feColorMatrix values="0 0 0 0 0.48627451   0 0 0 0 0.694117647   0 0 0 0 0.97254902  0 0 0 1 0" type="matrix" in="shadowBlurOuter1"></feColorMatrix>
        </filter>
    </defs>
    <g id="胸科样板间" stroke="none" stroke-width="1" fill="none" fill-rule="evenodd">
        <g id="漏洞利用/门户3" transform="translate(-1052.000000, -458.000000)" fill-rule="nonzero">
            <g id="Group-9" transform="translate(1025.000000, 394.000000)">
                <g id="联动" transform="translate(30.000000, 64.000000)">
                    <g id="形状">
                        <use fill="black" fill-opacity="1" filter="url(#filter-3)" xlink:href="#path-2"></use>
                        <use fill="url(#linearGradient-1)" xlink:href="#path-2"></use>
                    </g>
                    <g id="路径">
                        <use fill="black" fill-opacity="1" filter="url(#filter-6)" xlink:href="#path-5"></use>
                        <use fill="url(#linearGradient-4)" xlink:href="#path-5"></use>
                    </g>
                    <g id="路径">
                        <use fill="black" fill-opacity="1" filter="url(#filter-8)" xlink:href="#path-7"></use>
                        <use fill="#FFFFFF" xlink:href="#path-7"></use>
                    </g>
                </g>
            </g>
        </g>
    </g>
</svg>