<svg width="40" height="40" viewBox="0 0 40 40" fill="none" xmlns="http://www.w3.org/2000/svg">
<g clip-path="url(#clip0_639_48450)">
<g filter="url(#filter0_d_639_48450)">
<path d="M36 29.1875H4V12C4 9.25 6.25 7 9 7H31C33.75 7 36 9.25 36 12V29.1875Z" fill="url(#paint0_linear_639_48450)"/>
</g>
<g filter="url(#filter1_d_639_48450)">
<path d="M36.6875 35.625H3.125C2.0625 35.625 1.25 34.8125 1.25 33.75V32.25C1.25 31.1454 2.14543 30.25 3.25 30.25H36.5625C37.6671 30.25 38.5625 31.1454 38.5625 32.25V33.75C38.5625 34.8125 37.75 35.625 36.6875 35.625Z" fill="url(#paint1_linear_639_48450)"/>
</g>
<g filter="url(#filter2_d_639_48450)">
<path d="M7.6875 33.5625H4.25C3.9375 33.5625 3.625 33.3125 3.625 32.9375V32.875C3.625 32.5625 3.875 32.25 4.25 32.25H7.6875C8 32.25 8.3125 32.5 8.3125 32.875V32.9375C8.3125 33.3125 8.0625 33.5625 7.6875 33.5625ZM13.6875 33.5625H10.25C9.9375 33.5625 9.625 33.3125 9.625 32.9375V32.875C9.625 32.5625 9.875 32.25 10.25 32.25H13.6875C14 32.25 14.3125 32.5 14.3125 32.875V32.9375C14.3125 33.3125 14.0625 33.5625 13.6875 33.5625ZM35.1875 33.5625H31.75C31.4375 33.5625 31.125 33.3125 31.125 32.9375V32.875C31.125 32.5625 31.375 32.25 31.75 32.25H35.1875C35.5 32.25 35.8125 32.5 35.8125 32.875V32.9375C35.8125 33.3125 35.5 33.5625 35.1875 33.5625ZM19.8125 16.25H9.6875C9.1875 16.25 8.75 15.8125 8.75 15.3125V15.1875C8.75 14.6875 9.1875 14.25 9.6875 14.25H19.8125C20.3125 14.25 20.75 14.6875 20.75 15.1875V15.3125C20.75 15.875 20.3125 16.25 19.8125 16.25ZM15.8125 19.8125H9.6875C9.1875 19.8125 8.75 19.375 8.75 18.875V18.75C8.75 18.25 9.1875 17.8125 9.6875 17.8125H15.8125C16.3125 17.8125 16.75 18.25 16.75 18.75V18.875C16.75 19.4375 16.3125 19.8125 15.8125 19.8125ZM21.125 23.4375H9.6875C9.1875 23.4375 8.75 23 8.75 22.5V22.375C8.75 21.875 9.1875 21.4375 9.6875 21.4375H21.125C21.625 21.4375 22.0625 21.875 22.0625 22.375V22.5C22.0625 23 21.6875 23.4375 21.125 23.4375Z" fill="url(#paint2_linear_639_48450)"/>
</g>
<g filter="url(#filter3_d_639_48450)">
<path d="M39.7358 19.2714L38.0432 17.5744C37.8394 17.3683 37.5669 17.2553 37.2767 17.2553C36.9864 17.2553 36.7139 17.3683 36.5101 17.5744C36.087 17.9997 36.087 18.6909 36.5101 19.1163L38.2005 20.8155C38.4043 21.0215 38.6768 21.1345 38.967 21.1345C39.2573 21.1345 39.5297 21.0193 39.7358 20.8133C40.1589 20.3879 40.1589 19.6967 39.7358 19.2714ZM38.2935 10.6822C38.2935 9.55456 38.0808 8.4557 37.6599 7.41447C37.2257 6.33777 36.5877 5.37186 35.7613 4.54328C34.9372 3.71472 33.9735 3.07225 32.9012 2.63582C31.8644 2.21489 30.77 2 29.6468 2C28.5236 2 27.4291 2.21489 26.3923 2.63582C25.3201 3.07225 24.3586 3.71472 23.5322 4.54328C22.7081 5.37186 22.0678 6.33777 21.6336 7.41447C21.2127 8.4557 21 9.55454 21 10.6822C21 11.8098 21.2127 12.9087 21.6336 13.9499C22.0678 15.0266 22.7059 15.9925 23.5322 16.8211C24.3586 17.6497 25.3201 18.2922 26.3923 18.7286C27.4291 19.1495 28.5236 19.3644 29.6468 19.3644C30.7678 19.3644 31.8644 19.1495 32.9012 18.7286C33.9735 18.2922 34.935 17.6497 35.7613 16.8211C36.5854 15.9925 37.2257 15.0266 37.6599 13.9499C38.0809 12.9087 38.2935 11.8099 38.2935 10.6822Z" fill="url(#paint3_linear_639_48450)"/>
</g>
<g filter="url(#filter4_d_639_48450)">
<path d="M33.3964 10.1629C32.908 10.1629 32.4506 10.5013 32.3052 10.9717L32.0313 11.8646L30.2207 6.68982C29.9539 5.92417 29.0129 5.82815 28.5888 6.50741L26.1016 10.4917H24.1576C23.724 10.4917 23.3715 10.8469 23.3715 11.2837C23.3715 11.7205 23.7216 12.0758 24.1552 12.0758H26.2708C26.6853 12.0758 27.1189 11.8358 27.3404 11.4806L29.1939 8.51394L31.2332 14.4016C31.5357 15.2656 32.6436 15.2248 32.908 14.368L33.7156 11.7494H34.6423C35.0759 11.7494 35.4285 11.3941 35.4285 10.9573C35.4285 10.5205 35.0759 10.1653 34.6447 10.1653H33.3964V10.1629Z" fill="url(#paint4_linear_639_48450)"/>
</g>
</g>
<defs>
<filter id="filter0_d_639_48450" x="1" y="5" width="38" height="28.1875" filterUnits="userSpaceOnUse" color-interpolation-filters="sRGB">
<feFlood flood-opacity="0" result="BackgroundImageFix"/>
<feColorMatrix in="SourceAlpha" type="matrix" values="0 0 0 0 0 0 0 0 0 0 0 0 0 0 0 0 0 0 127 0" result="hardAlpha"/>
<feOffset dy="1"/>
<feGaussianBlur stdDeviation="1.5"/>
<feColorMatrix type="matrix" values="0 0 0 0 0.486275 0 0 0 0 0.694118 0 0 0 0 0.972549 0 0 0 1 0"/>
<feBlend mode="normal" in2="BackgroundImageFix" result="effect1_dropShadow_639_48450"/>
<feBlend mode="normal" in="SourceGraphic" in2="effect1_dropShadow_639_48450" result="shape"/>
</filter>
<filter id="filter1_d_639_48450" x="-0.75" y="29.25" width="41.3125" height="9.375" filterUnits="userSpaceOnUse" color-interpolation-filters="sRGB">
<feFlood flood-opacity="0" result="BackgroundImageFix"/>
<feColorMatrix in="SourceAlpha" type="matrix" values="0 0 0 0 0 0 0 0 0 0 0 0 0 0 0 0 0 0 127 0" result="hardAlpha"/>
<feOffset dy="1"/>
<feGaussianBlur stdDeviation="1"/>
<feColorMatrix type="matrix" values="0 0 0 0 0.486275 0 0 0 0 0.694118 0 0 0 0 0.972549 0 0 0 1 0"/>
<feBlend mode="normal" in2="BackgroundImageFix" result="effect1_dropShadow_639_48450"/>
<feBlend mode="normal" in="SourceGraphic" in2="effect1_dropShadow_639_48450" result="shape"/>
</filter>
<filter id="filter2_d_639_48450" x="-1.375" y="12.25" width="42.1875" height="29.3125" filterUnits="userSpaceOnUse" color-interpolation-filters="sRGB">
<feFlood flood-opacity="0" result="BackgroundImageFix"/>
<feColorMatrix in="SourceAlpha" type="matrix" values="0 0 0 0 0 0 0 0 0 0 0 0 0 0 0 0 0 0 127 0" result="hardAlpha"/>
<feOffset dy="3"/>
<feGaussianBlur stdDeviation="2.5"/>
<feColorMatrix type="matrix" values="0 0 0 0 0.486275 0 0 0 0 0.694118 0 0 0 0 0.972549 0 0 0 1 0"/>
<feBlend mode="normal" in2="BackgroundImageFix" result="effect1_dropShadow_639_48450"/>
<feBlend mode="normal" in="SourceGraphic" in2="effect1_dropShadow_639_48450" result="shape"/>
</filter>
<filter id="filter3_d_639_48450" x="18" y="0" width="25.0531" height="25.1348" filterUnits="userSpaceOnUse" color-interpolation-filters="sRGB">
<feFlood flood-opacity="0" result="BackgroundImageFix"/>
<feColorMatrix in="SourceAlpha" type="matrix" values="0 0 0 0 0 0 0 0 0 0 0 0 0 0 0 0 0 0 127 0" result="hardAlpha"/>
<feOffset dy="1"/>
<feGaussianBlur stdDeviation="1.5"/>
<feColorMatrix type="matrix" values="0 0 0 0 0.447059 0 0 0 0 0.615686 0 0 0 0 0.988235 0 0 0 0.4 0"/>
<feBlend mode="normal" in2="BackgroundImageFix" result="effect1_dropShadow_639_48450"/>
<feBlend mode="normal" in="SourceGraphic" in2="effect1_dropShadow_639_48450" result="shape"/>
</filter>
<filter id="filter4_d_639_48450" x="18.3715" y="4.05176" width="22.057" height="18.9785" filterUnits="userSpaceOnUse" color-interpolation-filters="sRGB">
<feFlood flood-opacity="0" result="BackgroundImageFix"/>
<feColorMatrix in="SourceAlpha" type="matrix" values="0 0 0 0 0 0 0 0 0 0 0 0 0 0 0 0 0 0 127 0" result="hardAlpha"/>
<feOffset dy="3"/>
<feGaussianBlur stdDeviation="2.5"/>
<feColorMatrix type="matrix" values="0 0 0 0 0.359541 0 0 0 0 0.943331 0 0 0 0 0.331496 0 0 0 1 0"/>
<feBlend mode="normal" in2="BackgroundImageFix" result="effect1_dropShadow_639_48450"/>
<feBlend mode="normal" in="SourceGraphic" in2="effect1_dropShadow_639_48450" result="shape"/>
</filter>
<linearGradient id="paint0_linear_639_48450" x1="15.5" y1="5" x2="29.905" y2="20.4759" gradientUnits="userSpaceOnUse">
<stop offset="0.212724" stop-color="#79AEFF"/>
<stop offset="1" stop-color="#5789FF"/>
</linearGradient>
<linearGradient id="paint1_linear_639_48450" x1="3.5" y1="21" x2="22.2604" y2="35.2953" gradientUnits="userSpaceOnUse">
<stop stop-color="#79AEFF"/>
<stop offset="0.830278" stop-color="#5789FF"/>
</linearGradient>
<linearGradient id="paint2_linear_639_48450" x1="3.6" y1="29.3" x2="33" y2="24" gradientUnits="userSpaceOnUse">
<stop stop-color="white"/>
<stop offset="0.221367" stop-color="#EBF9FF"/>
</linearGradient>
<linearGradient id="paint3_linear_639_48450" x1="18.9678" y1="13.1281" x2="35.6807" y2="21.9137" gradientUnits="userSpaceOnUse">
<stop stop-color="#67ECB6"/>
<stop offset="1" stop-color="#44E4A8"/>
</linearGradient>
<linearGradient id="paint4_linear_639_48450" x1="22.0854" y1="11.2735" x2="31.0691" y2="17.6423" gradientUnits="userSpaceOnUse">
<stop stop-color="white"/>
<stop offset="1" stop-color="white"/>
</linearGradient>
<clipPath id="clip0_639_48450">
<rect width="40" height="40" fill="white"/>
</clipPath>
</defs>
</svg>
