<?xml version="1.0" encoding="UTF-8"?>
<svg width="40px" height="40px" viewBox="0 0 40 40" version="1.1" xmlns="http://www.w3.org/2000/svg" xmlns:xlink="http://www.w3.org/1999/xlink">
    <title>编组 20</title>
    <defs>
        <linearGradient x1="52.4939004%" y1="80.3980833%" x2="40.747828%" y2="15.6885297%" id="linearGradient-1">
            <stop stop-color="#BDD2F7" offset="0%"></stop>
            <stop stop-color="#C1CFF7" offset="100%"></stop>
        </linearGradient>
        <linearGradient x1="85.8964503%" y1="46.0273938%" x2="15.6899353%" y2="56.6995893%" id="linearGradient-2">
            <stop stop-color="#A2BDEB" offset="0.0491695804%"></stop>
            <stop stop-color="#A5B5E2" offset="100%"></stop>
        </linearGradient>
        <linearGradient x1="131.061556%" y1="48.0125279%" x2="-41.497254%" y2="57.3733634%" id="linearGradient-3">
            <stop stop-color="#A2B7DB" offset="0.0491695804%"></stop>
            <stop stop-color="#B2BDDD" offset="100%"></stop>
        </linearGradient>
    </defs>
    <g id="页面-1" stroke="none" stroke-width="1" fill="none" fill-rule="evenodd">
        <g id="画板备份-24" transform="translate(-1056.000000, -452.000000)">
            <g id="编组-20" transform="translate(1056.000000, 452.000000)">
                <g id="编组-19" transform="translate(0.000000, 5.000000)">
                    <path d="M11.9250618,0.821376408 C16.1856147,0.182624648 20.157286,3.11867466 20.7960377,7.37922765 C20.9109917,8.14598463 20.9109917,8.92559541 20.7960377,9.69235239 L18.1885177,27.0848324 L10.4285801,28.2482198 C9.33621872,28.4119891 8.3179236,27.6592165 8.15415431,26.5668551 C8.12468131,26.3702666 8.12468131,26.1703825 8.15415431,25.973794 L11.9250618,0.821376408 Z" id="矩形" fill="url(#linearGradient-1)" transform="translate(14.507151, 14.502348) rotate(-45.000000) translate(-14.507151, -14.502348) "></path>
                    <path d="M11.5019067,18.5046489 L12.6652942,10.7447113 L30.0577742,8.13719127 C34.3183272,7.49843951 38.2899984,10.4344895 38.9287502,14.6950425 C39.0272821,15.3522628 39.0413581,16.0189267 38.9709781,16.6788451 L38.9287502,17.0081673 L13.7763325,20.7790747 C12.6839712,20.942844 11.665676,20.1900714 11.5019067,19.09771 C11.4724338,18.9011215 11.4724338,18.7012374 11.5019067,18.5046489 Z" id="矩形备份-10" fill="url(#linearGradient-2)" transform="translate(25.247384, 14.425683) rotate(-45.000000) translate(-25.247384, -14.425683) "></path>
                    <path d="M19.9546537,9 L16.95994,4.95713653 C16.7626989,4.6908611 16.8186624,4.31510674 17.0849378,4.11786568 C17.1882757,4.04131906 17.3134737,4 17.4420743,4 L22.467233,4 C22.7986039,4 23.067233,4.26862915 23.067233,4.6 C23.067233,4.72860061 23.025914,4.85379858 22.9493674,4.95713653 L19.9546537,9 L19.9546537,9 Z" id="路径-3" fill="url(#linearGradient-3)"></path>
                </g>
                <rect id="矩形" x="0" y="0" width="40" height="40"></rect>
            </g>
        </g>
    </g>
</svg>