<?xml version="1.0" standalone="no"?><!DOCTYPE svg PUBLIC "-//W3C//DTD SVG 1.1//EN" "http://www.w3.org/Graphics/SVG/1.1/DTD/svg11.dtd"><svg t="1617346205388" class="icon" viewBox="0 0 1024 1024" version="1.1" xmlns="http://www.w3.org/2000/svg" p-id="20800" xmlns:xlink="http://www.w3.org/1999/xlink" width="200" height="200"><defs><style type="text/css"></style></defs><path d="M506.496 292.571429a109.750857 109.750857 0 0 0-219.428571 0c0 16.566857 3.986286 32.585143 10.861714 47.433142A113.261714 113.261714 0 0 0 250.496 329.142857a109.750857 109.750857 0 0 0 0 219.428572c60.562286 0 109.714286-49.152 109.714286-109.714286 0-16.566857-3.986286-32.585143-10.861715-47.433143 14.848 6.838857 30.866286 10.861714 47.433143 10.861714 60.562286 0 109.714286-49.152 109.714286-109.714285z m486.290286 402.285714c0 13.129143-52.553143 65.718857-65.718857 65.718857-14.848 0-61.147429-53.723429-73.142858-65.718857L799.067429 749.714286l125.696 125.696c10.276571 10.276571 16.018286 24.576 16.018285 38.838857 0 32-36.571429 68.571429-68.571428 68.571428a55.222857 55.222857 0 0 1-38.838857-16.018285L449.956571 583.387429c-60.013714 44.580571-133.156571 74.861714-208.566857 74.861714-124.562286 0-210.285714-86.272-210.285714-210.285714 0-187.428571 187.428571-374.857143 374.857143-374.857143 124.013714 0 210.285714 85.723429 210.285714 210.285714 0 75.446857-30.281143 148.553143-74.861714 208.566857l202.861714 202.861714 54.857143-54.857142c-11.995429-11.995429-65.718857-58.294857-65.718857-73.142858 0-13.129143 52.553143-65.718857 65.718857-65.718857a19.748571 19.748571 0 0 1 13.129143 5.705143c21.138286 21.138286 180.553143 171.446857 180.553143 188.013714z" fill="#bfbfbf" p-id="20801"></path></svg>