<?xml version="1.0" encoding="UTF-8"?>
<svg width="186px" height="41px" viewBox="0 0 186 41" version="1.1" xmlns="http://www.w3.org/2000/svg" xmlns:xlink="http://www.w3.org/1999/xlink">
    <title>logo_xdr_1</title>
    <defs>
        <linearGradient x1="54.0139393%" y1="11.2180558%" x2="32.1826177%" y2="83.9428134%" id="linearGradient-1">
            <stop stop-color="#DE600F" offset="0%"></stop>
            <stop stop-color="#E78E46" offset="19%"></stop>
            <stop stop-color="#E2761C" offset="67%"></stop>
            <stop stop-color="#DE600F" offset="100%"></stop>
        </linearGradient>
        <linearGradient x1="6.99225915e-05%" y1="49.8951942%" x2="100.022613%" y2="49.8951942%" id="linearGradient-2">
            <stop stop-color="#676763" offset="0%"></stop>
            <stop stop-color="#C9C9C6" offset="19%"></stop>
            <stop stop-color="#44433F" offset="100%"></stop>
        </linearGradient>
        <linearGradient x1="65.0956672%" y1="74.0720342%" x2="39.7119961%" y2="6.72473788%" id="linearGradient-3">
            <stop stop-color="#2BA23A" offset="0%"></stop>
            <stop stop-color="#96C03F" offset="19%"></stop>
            <stop stop-color="#58AC48" offset="70%"></stop>
            <stop stop-color="#169243" offset="100%"></stop>
        </linearGradient>
    </defs>
    <g id="Symbols" stroke="none" stroke-width="1" fill="none" fill-rule="evenodd">
        <g id="topbar" transform="translate(-16.000000, -10.000000)" fill-rule="nonzero">
            <g id="logo_xdr_1" transform="translate(16.000000, 10.000000)">
                <g id="XDR安全运营平台" transform="translate(46.000000, 21.000007)" fill="#53627C" font-family="PingFangSC-Medium, PingFang SC" font-size="14" font-weight="400">
                    <text id="信池统一安全管理平台">
                        <tspan x="0" y="15">信池统一安全管理平台</tspan>
                    </text>
                </g>
                <path d="M96.157274,16.2834081 L92.9331395,16.2834081 L90.0021081,14.2720721 L86.1331468,16.2834081 L82.9163398,16.2834081 L88.5952131,13.3028413 L85.7887506,11.3716672 C85.424044,11.1039012 85.263651,10.6398587 85.3857338,10.2056753 L85.3857338,10.2056753 L85.8473712,8.40567532 L83.4512531,8.40567532 L83.729701,7.20324617 L86.0891813,7.20324617 L86.3090086,6.2485903 L88.6684889,6.2485903 L88.4486615,7.20324617 L94.8089995,7.20324617 L95.0288269,6.2485903 L97.3956347,6.2485903 L97.1684798,7.20324617 L99.52796,7.20324617 L99.2568396,8.40567532 L96.8973594,8.40567532 L96.4723598,10.2129628 L96.4723598,10.2129628 C96.3373839,10.7149481 95.9972395,11.1378001 95.5344298,11.3789547 L91.8266751,13.3028413 L96.157274,16.2834081 Z M87.7671967,10.1328008 C87.7213886,10.3288732 87.789198,10.5339972 87.9430586,10.6647846 L90.4344353,12.3627603 L93.7245179,10.6647846 C93.9274837,10.5493424 94.075329,10.3576708 94.1348623,10.1328008 L94.1348623,10.1328008 L94.1348623,10.1328008 L94.5378791,8.42025021 L88.162886,8.42025021 L87.7671967,10.1328008 L87.7671967,10.1328008 Z M91.4309859,2.03644455 L94.2667587,2.03644455 L93.9883108,3.24616115 L99.1835638,3.24616115 C99.4962513,3.22450004 99.8003302,3.35373331 100.000707,3.59344641 C100.201084,3.83315952 100.273299,4.15409114 100.19477,4.45587775 L100.19477,4.45587775 C100.192996,4.49229364 100.192996,4.52877359 100.19477,4.56518949 L99.9016665,5.88421783 L97.5348587,5.88421783 L97.7913239,4.77652552 C97.8132825,4.6958785 97.7941327,4.60964907 97.7400629,4.54570192 C97.685993,4.48175477 97.6038596,4.4481989 97.5202035,4.45587775 L87.0710768,4.45587775 C86.8729455,4.4553109 86.6989117,4.58661351 86.6460772,4.77652552 L86.3969396,5.88421783 L84.0374593,5.88421783 L84.3159073,4.65992633 C84.3159073,4.58705183 84.3598728,4.51417734 84.3818555,4.45587775 L84.3818555,4.45587775 C84.5760479,3.7538606 85.2106947,3.26196194 85.9426297,3.24616115 L91.1378828,3.24616115 L91.4309859,2.03644455 Z" id="Shape" fill="#DC3636"></path>
                <polygon id="Path" fill="#DC3636" points="99.1102881 15.1101288 105.587867 15.1101288 106.408556 11.5830033 100.964165 11.5830033 101.235286 10.3732867 106.687004 10.3732867 107.236572 7.9902907 103.939162 7.9902907 104.210283 6.7805741 107.51502 6.7805741 109.999069 6.7805741 113.303807 6.7805741 113.025359 7.9902907 109.720621 7.9902907 109.171053 10.3732867 114.615444 10.3732867 114.336996 11.5830033 108.892605 11.5830033 108.071916 15.1101288 114.549496 15.1101288 114.271048 16.3125579 107.793468 16.3125579 105.309419 16.3125579 98.8391677 16.3125579"></polygon>
                <path d="M107.221917,3.50122187 C107.434476,3.34420345 107.690053,3.25524151 107.954675,3.24616115 L111.134844,3.24616115 C111.428399,3.23058735 111.707909,3.37235672 111.867602,3.61782107 L114.798633,8.40567532 L117.158114,8.40567532 L113.882686,3.02025021 L113.882686,3.02025021 C113.464851,2.37160636 112.729042,1.99597803 111.955533,2.03644455 L107.764158,2.03644455 C106.891304,2.05802931 106.056839,2.39776764 105.419333,2.99110042 L99.615891,8.40567532 L101.968044,8.40567532 L107.221917,3.50122187 Z" id="Path" fill="#DC3636"></path>
                <polygon id="Path" fill="#DC3636" points="49.7077547 2.51741621 64.8245488 2.51741621 64.4874802 3.7708575 49.370686 3.7708575"></polygon>
                <polygon id="Path" fill="#DC3636" points="46.3370686 15.0226794 61.4538628 15.0226794 61.1167942 16.2834081 46 16.2834081"></polygon>
                <polygon id="Path" fill="#DC3636" points="53.1736992 2.51741621 55.3060245 2.51741621 51.5982699 16.2834081 49.4659446 16.2834081"></polygon>
                <polygon id="Path" fill="#DC3636" points="59.2116238 2.51741621 61.3366215 2.51741621 57.6361945 16.2834081 55.4965416 16.2834081"></polygon>
                <polygon id="Path" fill="#DC3636" points="57.2844707 9.60810447 63.5861881 6.86802349 62.9633439 9.25101945 56.654299 11.9911004"></polygon>
                <polygon id="Path" fill="#DC3636" points="53.3935266 9.60810447 48.5646524 6.86802349 47.9198255 9.25101945 52.7413721 11.9911004"></polygon>
                <polygon id="Path" fill="#DC3636" points="71.8370413 2.99110042 83.0042708 2.99110042 82.6598746 4.25182916 71.4999727 4.25182916"></polygon>
                <polygon id="Path" fill="#DC3636" points="71.1775593 5.43968341 82.3374612 5.43968341 82.0003925 6.70041216 70.8331631 6.70041216"></polygon>
                <polygon id="Path" fill="#DC3636" points="70.5180772 7.88826641 81.6853067 7.88826641 81.3409105 9.1417077 70.1810086 9.1417077"></polygon>
                <path d="M71.287473,10.329562 L72.0202308,10.329562 L70.3861808,16.2834081 L68.2611831,16.2834081 L69.4848887,11.7506146 C69.7234548,10.9426886 70.4492397,10.3728385 71.2948005,10.329562 L71.287473,10.329562 Z" id="Path" fill="#DC3636"></path>
                <polygon id="Path" fill="#DC3636" points="78.8861717 10.329562 81.018497 10.329562 79.9193603 14.3959587 77.7943626 14.3959587"></polygon>
                <polygon id="Path" fill="#DC3636" points="71.6611795 10.329562 81.018497 10.329562 80.6814284 11.5830033 71.3241109 11.5830033"></polygon>
                <path d="M68.5909241,15.0226794 L86.3309914,15.0226794 L86.0378882,16.1012219 C85.7466517,16.218172 85.4360032,16.2799614 85.1219409,16.2834081 L68.2611831,16.2834081 L68.5909241,15.0226794 Z" id="Path" fill="#DC3636"></path>
                <polygon id="Path" fill="#DC3636" points="76.1383299 2.0000073 78.2706552 2.0000073 78.6223789 4.25182916 76.4900536 4.25182916"></polygon>
                <path d="M71.5292831,12.0421126 L71.4413521,12.0421126 L71.5879037,11.4955539 L72.17411,11.4955539 L72.17411,11.5830033 L72.1301445,11.5830033 C71.8659217,11.6004126 71.6392602,11.7767028 71.5585934,12.0275377 L71.5292831,12.0421126 Z" id="Path" fill="#DC3636"></path>
                <polygon id="Path" fill="#DC3636" points="66.3706679 4.16437977 65.9383408 5.67288179 67.7555802 4.63806398 64.6413594 16.2834081 66.7590295 16.2834081 70.6206633 2.0000073"></polygon>
                <g id="Group-14">
                    <path d="M9.40296873,2.52001545 C0.412080512,7.72412098 -2.66836912,19.2340815 2.51943821,28.2400155 L2.51943821,28.2400155 C4.65744117,31.9521278 7.99935818,34.8208326 11.9905368,36.3700154 L11.9905368,36.3700154 C11.9905368,36.3700154 11.6808279,28.7500154 9.74264947,28.3700154 L9.74264947,28.3700154 C7.74452742,28.0100154 4.79729736,25.4400155 6.65555089,20.4400155 L6.65555089,20.4400155 C7.72454619,17.6200154 8.9933537,14.7600154 13.9886589,7.45001546 L13.9886589,7.45001546 C13.9886589,7.45001546 16.6561519,4.10001546 18.5543678,3.00001545 L18.5543678,3.00001545 C21.4749736,1.12704449 25.1708285,0.95179309 28.2552504,2.54001546 L28.2552504,2.54001546 C25.3804137,0.873280284 22.116411,-0.00299835976 18.7941424,-7.66880905e-06 L18.7941424,-7.66880905e-06 C15.4974684,0.003683434 12.2593871,0.872580684 9.40296873,2.52001545" id="Path" fill="url(#linearGradient-1)"></path>
                    <path d="M31.6220861,21.9000155 C32.2814663,23.7900155 31.5521519,27.6500155 26.2871002,28.5400155 L26.2871002,28.5400155 C23.2899171,29.0400155 20.2028185,29.3800155 11.3811096,28.7000154 L11.3811096,28.7000154 C11.3811096,28.7000154 7.14509079,28.0500155 5.25686544,27.0000155 L5.25686544,27.0000155 C2.16279637,25.4026814 0.158354133,22.2711344 0.00172588931,18.7900155 L0.00172588931,18.7900155 C-0.00943081742,25.5275887 3.58041915,31.7566063 9.41295934,35.1200155 L9.41295934,35.1200155 C13.731231,37.6187372 18.8648032,38.2965841 23.6827172,37.004222 C28.5006313,35.7118601 32.6075952,32.5553228 35.0988185,28.2300155 L35.0988185,28.2300155 C37.2337877,24.5342599 38.041119,20.2185653 37.3866683,16.0000155 L37.3866683,16.0000155 C37.3866683,16.0000155 30.9726964,20.0000155 31.6220861,21.8900155" id="Shape" fill="url(#linearGradient-2)"></path>
                    <path d="M18.5543678,3.00001545 C17.2816906,3.86373863 16.1351224,4.90032196 15.1475697,6.08001546 L15.1475697,6.08001546 C16.5062926,4.60001546 20.1428748,3.43001545 23.4597575,7.47001546 L23.4597575,7.47001546 C25.3879452,9.81001546 27.2362081,12.3300155 31.0626119,20.3200155 L31.0626119,20.3200155 C31.0626119,20.3200155 32.6211472,24.3200154 32.6211472,26.5000155 L32.6211472,26.5000155 C32.7788923,29.968727 31.0816955,33.25966 28.1653349,35.1400155 L28.1653349,35.1400155 C34.0071353,31.7855457 37.6117458,25.5611767 37.6164523,18.8200154 L37.6164523,18.8200154 C37.6155945,15.5198721 36.7473222,12.2780343 35.0988185,9.42001546 L35.0988185,9.42001546 C33.4390006,6.5467503 31.0506779,4.16308215 28.1753256,2.51001546 L28.1753256,2.51001546 C26.8948378,1.82577223 25.4604979,1.48148255 24.0092411,1.51001546 L24.0092411,1.51001546 C22.0914046,1.51584959 20.2093165,2.02994241 18.5543678,3.00001545" id="Shape" fill="url(#linearGradient-3)"></path>
                </g>
            </g>
        </g>
    </g>
</svg>