<svg xmlns="http://www.w3.org/2000/svg" xmlns:xlink="http://www.w3.org/1999/xlink" viewBox="0 0 141.73 37.65"><defs><linearGradient id="linear-gradient" x1="16.02" y1="4.08" x2="5.79" y2="30.53" gradientUnits="userSpaceOnUse"><stop offset="0" stop-color="#de600f"/><stop offset="0.19" stop-color="#e78e46"/><stop offset="0.67" stop-color="#e2761c"/><stop offset="1" stop-color="#de600f"/></linearGradient><linearGradient id="linear-gradient-2" y1="26.8" x2="37.65" y2="26.8" gradientUnits="userSpaceOnUse"><stop offset="0" stop-color="#676763"/><stop offset="0.19" stop-color="#c9c9c6"/><stop offset="1" stop-color="#44433f"/></linearGradient><linearGradient id="linear-gradient-3" x1="34" y1="26.42" x2="21.17" y2="3.77" gradientUnits="userSpaceOnUse"><stop offset="0" stop-color="#2ba23a"/><stop offset="0.19" stop-color="#96c03f"/><stop offset="0.7" stop-color="#58ac48"/><stop offset="1" stop-color="#169243"/></linearGradient></defs><g id="图层_2" data-name="图层 2"><g id="图层_1-2" data-name="图层 1"><path d="M9.41,2.52A18.84,18.84,0,0,0,2.52,28.24h0A18.78,18.78,0,0,0,12,36.37h0s-.31-7.62-2.25-8h0c-2-.36-4.95-2.93-3.09-7.93h0C7.73,17.62,9,14.76,14,7.45h0S16.67,4.1,18.57,3h0a9.74,9.74,0,0,1,9.71-.46h0A18.86,18.86,0,0,0,18.81,0h0a18.87,18.87,0,0,0-9.4,2.52" fill="url(#linear-gradient)"/><path d="M0,18.79H0m0,0H0m0,0H0m0,0H0m31.65,3.11c.66,1.89-.07,5.75-5.34,6.64h0c-3,.5-6.09.84-14.92.16h0S7.15,28.05,5.26,27h0A9.73,9.73,0,0,1,0,18.79H0A18.81,18.81,0,0,0,9.42,35.12h0a18.81,18.81,0,0,0,25.71-6.89h0A18.7,18.7,0,0,0,37.42,16h0S31,20,31.65,21.89" fill="url(#linear-gradient-2)"/><path d="M15.09,6.17l.07-.08h0l-.07.08M18.57,3a16.61,16.61,0,0,0-3.41,3.08h0c1.36-1.48,5-2.65,8.32,1.39h0c1.93,2.34,3.78,4.86,7.61,12.85h0s1.56,4,1.56,6.18h0a9.75,9.75,0,0,1-4.46,8.64h0a18.83,18.83,0,0,0,9.46-16.32h0a18.81,18.81,0,0,0-2.52-9.4h0A18.85,18.85,0,0,0,28.2,2.51h0a8.5,8.5,0,0,0-4.17-1h0A10.87,10.87,0,0,0,18.57,3" fill="url(#linear-gradient-3)"/><path d="M113.07,28.09h-4.4l-4-2.76-5.28,2.76H95L102.75,24l-3.83-2.65a1.49,1.49,0,0,1-.55-1.6h0L99,17.28H95.73l.38-1.65h3.22l.3-1.31h3.22l-.3,1.31h8.68l.3-1.31h3.23l-.31,1.31h3.22l-.37,1.65h-3.22l-.58,2.48h0a2.55,2.55,0,0,1-1.28,1.6L107.16,24Zm-11.45-8.44a.74.74,0,0,0,.24.73l3.4,2.33,4.49-2.33a1.19,1.19,0,0,0,.56-.73v0h0l.55-2.35h-8.7l-.54,2.35Zm5-11.11h3.87l-.38,1.66h7.09a1.33,1.33,0,0,1,1.38,1.66h0a1.55,1.55,0,0,0,0,.15l-.4,1.81h-3.23l.35-1.52a.35.35,0,0,0-.37-.44H100.67a.6.6,0,0,0-.58.44l-.34,1.52H96.53l.38-1.68c0-.1.06-.2.09-.28h0a2.26,2.26,0,0,1,2.13-1.66h7.09Z" fill="#d0121b"/><polygon points="117.1 26.48 125.94 26.48 127.06 21.64 119.63 21.64 120 19.98 127.44 19.98 128.19 16.71 123.69 16.71 124.06 15.05 128.57 15.05 131.96 15.05 136.47 15.05 136.09 16.71 131.58 16.71 130.83 19.98 138.26 19.98 137.88 21.64 130.45 21.64 129.33 26.48 138.17 26.48 137.79 28.13 128.95 28.13 125.56 28.13 116.73 28.13 117.1 26.48" fill="#d0121b"/><path d="M128.17,10.55a1.78,1.78,0,0,1,1-.35h4.34a1.12,1.12,0,0,1,1,.51l4,6.57h3.22l-4.47-7.39h0a2.94,2.94,0,0,0-2.63-1.35h-5.72a4.86,4.86,0,0,0-3.2,1.31l-7.92,7.43H121Z" fill="#d0121b"/><polygon points="49.68 9.2 70.31 9.2 69.85 10.92 49.22 10.92 49.68 9.2" fill="#d0121b" fill-rule="evenodd"/><polygon points="45.08 26.36 65.71 26.36 65.25 28.09 44.62 28.09 45.08 26.36" fill="#d0121b" fill-rule="evenodd"/><polygon points="54.41 9.2 57.32 9.2 52.26 28.09 49.35 28.09 54.41 9.2" fill="#d0121b" fill-rule="evenodd"/><polygon points="62.65 9.2 65.55 9.2 60.5 28.09 57.58 28.09 62.65 9.2" fill="#d0121b" fill-rule="evenodd"/><polygon points="60.02 18.93 68.62 15.17 67.77 18.44 59.16 22.2 60.02 18.93" fill="#d0121b" fill-rule="evenodd"/><polygon points="54.71 18.93 48.12 15.17 47.24 18.44 53.82 22.2 54.71 18.93" fill="#d0121b" fill-rule="evenodd"/><polygon points="79.88 9.85 95.12 9.85 94.65 11.58 79.42 11.58 79.88 9.85" fill="#d0121b" fill-rule="evenodd"/><polygon points="78.98 13.21 94.21 13.21 93.75 14.94 78.51 14.94 78.98 13.21" fill="#d0121b" fill-rule="evenodd"/><polygon points="78.08 16.57 93.32 16.57 92.85 18.29 77.62 18.29 78.08 16.57" fill="#d0121b" fill-rule="evenodd"/><path d="M79.13,19.92h1L77.9,28.09H75l1.67-6.22a2.72,2.72,0,0,1,2.47-1.95Z" fill="#d0121b" fill-rule="evenodd"/><polygon points="89.5 19.92 92.41 19.92 90.91 25.5 88.01 25.5 89.5 19.92" fill="#d0121b" fill-rule="evenodd"/><polygon points="79.64 19.92 92.41 19.92 91.95 21.64 79.18 21.64 79.64 19.92" fill="#d0121b" fill-rule="evenodd"/><path d="M75.45,26.36H99.66l-.4,1.48a3.44,3.44,0,0,1-1.25.25H75Z" fill="#d0121b" fill-rule="evenodd"/><polygon points="85.75 8.49 88.66 8.49 89.14 11.58 86.23 11.58 85.75 8.49" fill="#d0121b" fill-rule="evenodd"/><path d="M79.46,22.27h-.12l.2-.75h.8l0,.12h-.06a.88.88,0,0,0-.78.61Z" fill="#d0121b" fill-rule="evenodd"/><polygon points="72.42 11.46 71.83 13.53 74.31 12.11 70.06 28.09 72.95 28.09 78.22 8.49 72.42 11.46" fill="#d0121b" fill-rule="evenodd"/></g></g></svg>