<?xml version="1.0" encoding="UTF-8"?>
<svg width="26px" height="26px" viewBox="0 0 26 26" version="1.1" xmlns="http://www.w3.org/2000/svg" xmlns:xlink="http://www.w3.org/1999/xlink">
    <!-- Generator: Sketch 63.1 (92452) - https://sketch.com -->
    <title>Group 5</title>
    <desc>Created with Sketch.</desc>
    <g id="Symbols" stroke="none" stroke-width="1" fill="none" fill-rule="evenodd">
        <g id="矩形" transform="translate(-1168.000000, -17.000000)">
            <g id="Group-7" transform="translate(1169.000000, 18.000000)">
                <g id="Group-5">
                    <circle id="Oval" stroke="#5A84EE" cx="12" cy="12" r="12"></circle>
                    <g id="Group" transform="translate(1.714286, 1.714286)">
                        <circle id="Oval" fill="#5A84EE" cx="10.2857143" cy="10.2857143" r="10.2857143"></circle>
                        <path d="M7.27493117,8.60056496 C7.27493117,6.968173 8.64698594,5.64970122 10.3457187,5.64970122 C12.0444514,5.64970122 13.4165062,6.968173 13.4165062,8.60056496 C13.4165062,10.2329569 12.0444514,11.5514287 10.3457187,11.5514287 C8.64698594,11.5514287 7.27493117,10.295748 7.27493117,8.60056496 M16.02993,15.946323 C15.5072428,14.1255812 14.2005236,12.681539 12.5017909,11.9909193 C13.6778364,11.3002926 14.5272016,10.0446072 14.5272016,8.60056496 C14.5272016,6.403112 12.6977952,4.64516129 10.4110494,4.64516129 C8.12429147,4.64516129 6.22955437,6.40312366 6.22955437,8.60056496 C6.22955437,10.0446072 7.01358394,11.3002879 8.25496509,11.9909193 C6.55623235,12.681546 5.18417758,14.1255812 4.66149525,15.946323 C4.59615941,16.1974603 4.72683109,16.5113816 5.05351003,16.5741657 C5.31485362,16.63695 5.64153281,16.5113814 5.7068684,16.1974603 C6.29489118,14.0627984 8.18963071,12.6187562 10.4110458,12.6187562 C12.6324608,12.6187562 14.4618672,14.1255777 15.1152231,16.1974603 C15.180559,16.3230284 15.2458943,16.4485976 15.3765667,16.5113816 C15.5072379,16.5741659 15.6379103,16.5741659 15.7685815,16.5741659 C15.9645895,16.5113816 16.0952607,16.1974605 16.0299251,15.9463232" id="Shape" fill="#FFFFFF" fill-rule="nonzero"></path>
                    </g>
                </g>
            </g>
        </g>
    </g>
</svg>