<?xml version="1.0" encoding="UTF-8"?>
<svg width="14px" height="14px" viewBox="0 0 14 14" version="1.1" xmlns="http://www.w3.org/2000/svg" xmlns:xlink="http://www.w3.org/1999/xlink">
    <!-- Generator: Sketch 63.1 (92452) - https://sketch.com -->
    <title>Slice</title>
    <desc>Created with Sketch.</desc>
    <g id="Page-1" stroke="none" stroke-width="1" fill="none" fill-rule="evenodd">
        <g id="组织管理/交互效果" transform="translate(-469.000000, -333.000000)">
            <g id="Group-8">
                <g id="Group-7">
                    <g id="Group-4" transform="translate(384.000000, 284.000000)">
                        <g id="Group-2" transform="translate(85.000000, 49.000000)">
                            <g id="0.Icon/常用/更多" transform="translate(7.000000, 7.000000) rotate(90.000000) translate(-7.000000, -7.000000) ">
                                <g id="icon/放大镜/1">
                                    <rect id="矩形" x="0" y="0" width="14" height="14"></rect>
                                    <path d="M7.35026712,10.5 C8.31663467,10.5 9.1,11.2834369 9.1,12.2499447 C9.1,13.2163114 8.3166417,14 7.35026712,14 C6.3836437,14 5.6,13.2163418 5.6,12.2499447 C5.6,11.2834424 6.38364229,10.5 7.35026712,10.5 Z M7.35026712,5.25 C8.31663467,5.25 9.1,6.03360713 9.1,7.00013831 C9.1,7.9668009 8.3166417,8.75 7.35026712,8.75 C6.3836437,8.75 5.6,7.96677877 5.6,7.00013831 C5.6,6.03355457 6.38364229,5.25 7.35026712,5.25 Z M7.35026712,0 C8.31660655,0 9.1,0.783636924 9.1,1.75015907 C9.1,2.71660514 8.3166417,3.5 7.35026712,3.5 C6.3836437,3.5 5.6,2.71659823 5.6,1.75015907 C5.6,0.783641074 6.38364229,0 7.35026712,0 Z" id="Combined-Shape" fill="#4E79F2"></path>
                                </g>
                            </g>
                        </g>
                    </g>
                </g>
            </g>
        </g>
    </g>
</svg>