<?xml version="1.0" encoding="UTF-8"?>
<svg width="88px" height="62px" viewBox="0 0 88 62" version="1.1" xmlns="http://www.w3.org/2000/svg" xmlns:xlink="http://www.w3.org/1999/xlink">
    <!-- Generator: Sketch 63.1 (92452) - https://sketch.com -->
    <title>Group 11</title>
    <desc>Created with Sketch.</desc>
    <g id="Page-1" stroke="none" stroke-width="1" fill="none" fill-rule="evenodd">
        <g id="运维中心/统一更新/更新管理/联网更新-copy" transform="translate(-992.000000, -668.000000)">
            <g id="Group-11" transform="translate(992.000000, 669.000000)">
                <ellipse id="Oval" fill="#F0F1F4" cx="44" cy="51" rx="44" ry="10"></ellipse>
                <path d="M11.1,21 L76.9,21 C76.9552285,21 77,21.0447715 77,21.1 L77,47 C77,49.209139 75.209139,51 73,51 L15,51 C12.790861,51 11,49.209139 11,47 L11,21.1 C11,21.0447715 11.0447715,21 11.1,21 Z" id="Rectangle-Copy-2" stroke="#C9CED6" fill="#FFFFFF"></path>
                <path d="M25.8492056,-5.32907052e-14 L62.1507944,-5.32907052e-14 C63.5567019,-5.17726094e-14 64.8593916,0.738086902 65.5820011,1.94407679 L76.9092847,20.8486019 C76.9376711,20.895977 76.9222777,20.9573938 76.8749026,20.9857802 C76.859373,20.9950853 76.8416086,21 76.8235046,21 L58.4723016,21 C56.8154473,21 55.4723016,22.3431458 55.4723016,24 L55.4723016,24.9118142 C55.4723016,27.0722496 53.7209227,28.8236284 51.5604874,28.8236284 L34.9811502,28.8236284 C32.8207149,28.8236284 31.069336,27.0722496 31.069336,24.9118142 L31.069336,24 C31.069336,22.3431458 29.7261902,21 28.069336,21 L11.1764954,21 C11.121267,21 11.0764954,20.9552285 11.0764954,20.9 C11.0764954,20.881896 11.0814102,20.8641316 11.0907153,20.8486019 L22.4179989,1.94407679 C23.1406084,0.738086902 24.4432981,-5.56969794e-14 25.8492056,-5.32907052e-14 Z" id="Rectangle" stroke="#C9CED6" fill="#FFFFFF"></path>
            </g>
        </g>
    </g>
</svg>