<?xml version="1.0" encoding="UTF-8"?>
<svg width="44px" height="44px" viewBox="0 0 44 44" version="1.1" xmlns="http://www.w3.org/2000/svg" xmlns:xlink="http://www.w3.org/1999/xlink">
    <!-- Generator: Sketch 63.1 (92452) - https://sketch.com -->
    <title>Group 6</title>
    <desc>Created with Sketch.</desc>
    <g id="Page-1" stroke="none" stroke-width="1" fill="none" fill-rule="evenodd">
        <g id="组织管理" transform="translate(-260.000000, -261.000000)">
            <g id="Rectangle-Copy">
                <g id="Rectangle" transform="translate(236.000000, 238.000000)">
                    <g id="Group-6" transform="translate(24.000000, 23.000000)">
                        <circle id="Oval" fill="#EBEFFD" cx="22" cy="22" r="22"></circle>
                        <g id="组织" transform="translate(10.421053, 10.421053)" fill-rule="nonzero">
                            <path d="M12.4608739,18.3143115 L10.06883,18.3143115 L10.06883,17.1089699 L12.4608739,17.1089699 L12.4608739,18.3143115 Z M13.6848548,9.88934665 L13.6848548,10.4795912 L13.6848548,10.4795898 C13.6852121,10.7666448 13.8879812,11.0136082 14.1694742,11.0698344 L14.2887658,11.0822606 L15.4941073,11.0822606 C16.4335282,11.0822606 17.206438,11.7992524 17.2934214,12.7163061 L17.3021197,12.890273 L17.3021197,13.4917011 L16.0967781,13.4917011 L16.0967781,12.890273 L16.0967781,12.8902473 C16.0970001,12.6027263 15.8940857,12.3550882 15.612132,12.2987819 L15.4940831,12.2863557 L14.2887415,12.2863557 L14.2887416,12.2863557 C13.3576623,12.2868984 12.5784132,11.5802489 12.4881849,10.6535528 L12.4807292,10.479586 L12.4794866,9.88809877 L13.6848282,9.88809877 L13.6848548,9.88934665 Z M10.06883,9.88934665 L10.06883,10.4795912 C10.06883,11.4190121 9.35183818,12.1919219 8.43478448,12.2789053 L8.26081765,12.2876036 L7.05547607,12.2876036 L7.05547607,12.2876036 C6.76842109,12.2879617 6.52145761,12.4907312 6.46523148,12.7722255 L6.45280527,12.8902744 L6.45280527,13.4917026 L5.24746369,13.4917026 L5.24746369,12.8902744 C5.24746369,11.9496109 5.96445554,11.1779438 6.88150924,11.0897177 L7.05547607,11.082262 L8.26081765,11.082262 L8.26081766,11.082262 C8.54833861,11.0824962 8.79598651,10.8795924 8.85230487,10.5976402 L8.86473107,10.4795912 L8.86348845,9.88810403 L10.06883,9.88810403 L10.06883,9.88934665 Z" id="Shape" fill="#156CBB"></path>
                            <path d="M15.0741138,0.211810917 L15.0741138,0.211810917 C15.7398063,0.211810917 16.2794554,0.751459992 16.2794554,1.4171525 L16.2794554,8.64920199 L16.2794554,8.64920199 C16.2794554,9.3148945 15.7398063,9.85454357 15.0741138,9.85454357 L13.8687722,9.85454357 L13.8687722,9.86696978 L12.6634306,9.86696978 L12.6634306,9.85454357 L10.2527475,9.85454357 L10.2527475,9.86696978 L9.04740588,9.86696978 L9.04740588,9.85454357 L7.8420643,9.85454357 L7.84206425,9.85454357 C7.17637174,9.85454355 6.63672267,9.3148945 6.63672267,8.64920199 L6.63672267,1.4171525 L6.63672267,1.41715268 C6.63672267,0.751460174 7.17637174,0.211810917 7.84206425,0.211810917 L15.0741138,0.211810917 Z" id="Path" fill="#2A94F4"></path>
                            <path d="M16.2806945,5.08040652 L16.2806945,8.64920199 C16.2809716,8.97841372 16.1462068,9.29327717 15.9078732,9.52031262 L9.4549854,3.93344857 L13.646353,2.59141876 L16.2806945,5.08040652 Z" id="Path" fill="#2C80CD"></path>
                            <path d="M9.27729066,3.10587819 L9.27729066,3.10587951 C9.27998962,2.79543318 9.5309939,2.54442876 9.8414378,2.54172751 L13.3816676,2.54172751 C13.6923226,2.54421275 13.9408467,2.79646465 13.9408467,3.10587708 L13.9408467,3.47369266 L13.9408467,3.47369266 C13.9408467,3.816833 13.6626769,4.09500275 13.3195366,4.09500275 C13.3195366,4.09500275 13.3195366,4.09500275 13.3195366,4.09500275 L9.84267557,4.09500275 L9.84267557,4.09500275 C9.533035,4.09500275 9.28125394,3.84545209 9.278526,3.53582366 L9.278526,3.10587708 L9.27729066,3.10587819 Z" id="Path" fill="#FFFFFF"></path>
                            <path d="M8.86101291,13.4146502 L8.86101286,13.4146502 C9.52670536,13.4146502 10.0663544,13.9542995 10.0663544,14.619992 L10.0663544,21.8520415 L10.0663544,21.8520415 C10.0663544,22.517734 9.52670536,23.0573831 8.86101286,23.0573831 L7.65567127,23.0573831 L7.65567127,23.0698093 L6.45032969,23.0698093 L6.45032969,23.0573831 L4.03964653,23.0573831 L4.03964653,23.0698093 L2.83430495,23.0698093 L2.83430495,23.0573831 L1.62896336,23.0573831 L1.62896331,23.0573831 C0.963270803,23.057383 0.423621728,22.517734 0.423621728,21.8520415 C0.423621728,21.8520415 0.423621728,21.8520415 0.423621728,21.8520415 L0.423621728,14.619992 L0.423621728,14.6199918 C0.423621728,13.9542993 0.963270803,13.4146502 1.62896331,13.4146502 L8.86101291,13.4146502 Z M20.899527,13.4146502 L20.8995269,13.4146502 C21.5652195,13.4146502 22.1048685,13.9542995 22.1048685,14.619992 L22.1048685,21.8520415 L22.1048685,21.8520415 C22.1048685,22.517734 21.5652195,23.0573831 20.8995269,23.0573831 L19.6941854,23.0573831 L19.6941854,23.0698093 L18.4888438,23.0698093 L18.4888438,23.0573831 L16.0781606,23.0573831 L16.0781606,23.0698093 L14.872819,23.0698093 L14.872819,23.0573831 L13.6674775,23.0573831 L13.6674774,23.0573831 C13.0017849,23.057383 12.4621358,22.517734 12.4621358,21.8520415 L12.4621358,14.619992 L12.4621358,14.6199918 C12.4621358,13.9542993 13.0017849,13.4146502 13.6674774,13.4146502 L20.899527,13.4146502 Z" id="Shape" fill="#2A94F4"></path>
                            <path d="M19.4717515,15.7942681 L22.1048691,18.283246 L22.1048691,21.8520415 L22.1048691,21.8520899 C22.105147,22.1812532 21.9703822,22.4961167 21.7320486,22.7231521 L15.2803743,17.1350988 L19.4717419,15.793069 L19.4717515,15.7942681 Z" id="Path" fill="#2C80CD"></path>
                            <path d="M15.1027038,16.3099555 L15.1027038,16.3099542 C15.1047294,15.9990225 15.355929,15.7472706 15.6668558,15.7445645 L19.2058478,15.7445645 C19.5165029,15.7470497 19.7650269,15.9993016 19.7650269,16.308714 L19.7650269,16.6765296 L19.7650269,16.6765296 C19.7650269,17.01967 19.4868572,17.2978397 19.1437168,17.2978397 C19.1437168,17.2978397 19.1437168,17.2978397 19.1437168,17.2978397 L15.6668558,17.2978397 L15.6668558,17.2978397 C15.3572153,17.2978397 15.1054342,17.048289 15.1027038,16.7386606 L15.1027038,16.308714 L15.1027038,16.3099555 Z" id="Path" fill="#FFFFFF"></path>
                            <path d="M7.43323746,15.7942681 L10.0675927,18.283246 L10.0675927,21.8520415 L10.0675927,21.8520899 C10.0678707,22.1812532 9.93310585,22.4961167 9.69477227,22.7231521 L3.24183592,17.1350988 L7.43320352,15.793069 L7.43323746,15.7942681 Z" id="Path" fill="#2C80CD"></path>
                            <path d="M3.06418973,16.3099555 L3.06418973,16.3099542 C3.06621532,15.9990225 3.31741486,15.7472706 3.62834173,15.7445645 L7.1685715,15.7445645 C7.47922655,15.7470497 7.72775059,15.9993016 7.72775059,16.308714 L7.72775059,16.6765296 L7.72775059,16.6765296 C7.72775059,17.01967 7.44958084,17.2978397 7.10644049,17.2978397 C7.10644049,17.2978397 7.10644049,17.2978397 7.10644049,17.2978397 L3.6295795,17.2978397 L3.6295795,17.2978397 C3.31993894,17.2978397 3.06815788,17.048289 3.06542994,16.7386606 L3.06542994,16.308714 L3.06418973,16.3099555 Z" id="Path" fill="#FFFFFF"></path>
                        </g>
                    </g>
                </g>
            </g>
        </g>
    </g>
</svg>