<?xml version="1.0" encoding="UTF-8"?>
<svg width="160px" height="100px" viewBox="0 0 160 100" version="1.1" xmlns="http://www.w3.org/2000/svg" xmlns:xlink="http://www.w3.org/1999/xlink">
    <title>蓝</title>
    <g id="系统设置" stroke="none" stroke-width="1" fill="none" fill-rule="evenodd">
        <g id="界面配置" transform="translate(-260.000000, -571.000000)">
            <g id="主题颜色" transform="translate(236.000000, 505.644444)">
                <g id="蓝" transform="translate(24.000000, 65.355556)">
                    <g id="页面" transform="translate(1.000000, 0.638968)">
                        <path d="M4,0 L154,0 C156.209139,1.4402886e-14 158,1.790861 158,4 L158,23.796034 L158,23.796034 L0,23.796034 L0,4 C-7.1463071e-16,1.790861 1.790861,-3.82769592e-17 4,0 Z" id="矩形" fill="#1C2340"></path>
                        <rect id="矩形" fill="#1C2340" x="0" y="23.796034" width="35" height="47.592068"></rect>
                        <rect id="矩形" fill="#4369E2" x="0" y="23.796034" width="35" height="11.898017"></rect>
                        <rect id="矩形" fill="#18C4EE" x="0" y="23.796034" width="1" height="11.898017"></rect>
                        <rect id="矩形备份" fill-opacity="0.303996906" fill="#53627C" x="43" y="31.7280453" width="106" height="6.94050992"></rect>
                        <rect id="矩形备份-2" fill-opacity="0.303996906" fill="#53627C" x="43" y="44.6175637" width="106" height="6.94050992"></rect>
                        <rect id="矩形备份-3" fill-opacity="0.303996906" fill="#53627C" x="43" y="57.5070822" width="106" height="6.94050992"></rect>
                    </g>
                    <rect id="矩形" stroke="#E1E4E8" x="0.5" y="0.5" width="159" height="98.1501416" rx="4"></rect>
                    <path d="M159.5,72.7379603 L159.5,96 C159.5,96.9664983 159.108249,97.8414983 158.474874,98.4748737 C157.841498,99.1082492 156.966498,99.5 156,99.5 L156,99.5 L4,99.5 C3.03350169,99.5 2.15850169,99.1082492 1.52512627,98.4748737 C0.891750844,97.8414983 0.5,96.9664983 0.5,96 L0.5,96 L0.5,72.7379603 L159.5,72.7379603 Z" id="矩形" stroke="#E1E4E8" fill="#ECF1FF"></path>
                </g>
            </g>
        </g>
    </g>
</svg>