<?xml version="1.0" encoding="UTF-8"?>
<svg width="19px" height="20px" viewBox="0 0 19 20" version="1.1" xmlns="http://www.w3.org/2000/svg" xmlns:xlink="http://www.w3.org/1999/xlink">
    <!-- Generator: Sketch 63.1 (92452) - https://sketch.com -->
    <title>Group 4</title>
    <desc>Created with Sketch.</desc>
    <g id="Page-1" stroke="none" stroke-width="1" fill="none" fill-rule="evenodd">
        <g id="奇安信统一运维平台/门户2" transform="translate(-291.000000, -538.000000)" fill-rule="nonzero">
            <g id="Group-4" transform="translate(291.000000, 538.000000)">
                <path d="M4.49402422,0.000541070632 L4.4940243,0.000541071339 C3.65628548,-0.00662507415 2.97135485,0.666686378 2.96418861,1.5044252 C2.96410886,1.51374811 2.96411506,1.52307159 2.96420722,1.53239439 L2.96420722,11.2612946 L2.96420724,11.2612939 C2.93045589,12.1055146 3.58746969,12.8172498 4.43169043,12.851001 C4.45245757,12.8518313 4.47323951,12.8522383 4.4940232,12.8522217 L7.1251938,12.8522217 L7.1251938,15.0549456 L7.12519379,15.0549459 C7.11495552,15.5179681 7.48200989,15.9016222 7.94503213,15.9118599 C7.95738948,15.9120648 7.96975145,15.9120648 7.9821088,15.9118599 C8.20618313,15.8948845 8.42007227,15.8100079 8.59322062,15.6674152 L11.4084091,12.8522267 L17.2832307,12.8522267 L17.2832307,12.8522267 C18.1209696,12.8593824 18.8058922,12.1860623 18.8130473,11.3483235 C18.8131211,11.3396859 18.8131211,11.3310478 18.8130473,11.3224103 L18.8130473,1.53239887 L18.8130473,1.53239867 C18.8684745,0.743450127 18.2738382,0.0589475942 17.4848897,0.00352102507 C17.4383432,0.000250924332 17.3916647,-0.000742227865 17.3450213,0.000545101468 L4.49402401,0.000545101468 L4.49402422,0.000541070632 Z M12.8160145,9.058571 L6.20785868,9.058571 L6.20785864,9.058571 C5.76834829,9.058571 5.41205578,8.70227689 5.41205578,8.26276813 C5.41205578,7.82325778 5.76834989,7.46696527 6.20785864,7.46696527 L12.8160145,7.46696527 L12.8160145,7.46696527 C13.255337,7.47980202 13.601072,7.84634953 13.5882354,8.28567209 C13.5759258,8.70695412 13.2372965,9.04558328 12.8160145,9.05789305 L12.8160145,9.058571 Z M15.6305187,5.38647326 L6.20649004,5.38647326 L6.20649007,5.38647326 C5.78106553,5.39984428 5.4253507,5.06580825 5.41197945,4.64038371 C5.41145162,4.62358975 5.41147314,4.60678306 5.41204397,4.58999054 L5.41204397,4.58999074 C5.41932755,4.15375557 5.77160052,3.80208458 6.20784683,3.79554537 L15.6318754,3.79554537 L15.6318754,3.79554537 C16.0780507,3.80425029 16.4326913,4.173004 16.4239862,4.61917929 C16.4200418,4.82135226 16.3404365,5.01469913 16.200889,5.16104132 L16.200889,5.16104133 C16.0504665,5.31150724 15.8445328,5.39309353 15.6318754,5.38647316 L15.6305174,5.38647316 L15.6305187,5.38647326 Z" id="Shape" fill="#608DFF" opacity="0.248697917"></path>
                <g id="Group-3" transform="translate(0.000000, 3.333333)">
                    <path d="M1.53106126,0.000541070633 L1.53106134,0.00054107134 C0.693322516,-0.00662507415 0.00839188695,0.666686378 0.00122564597,1.5044252 C0.00114589651,1.51374811 0.00115209914,1.52307159 0.00124425337,1.53239439 L0.00124425337,11.2612946 L0.00124428166,11.2612939 C-0.0325070742,12.1055146 0.624506726,12.8172498 1.46872747,12.851001 C1.48949461,12.8518313 1.51027655,12.8522383 1.53106024,12.8522217 L4.16223084,12.8522217 L4.16223084,15.0549456 L4.16223083,15.0549459 C4.15199256,15.5179681 4.51904693,15.9016222 4.98206917,15.9118599 C4.99442652,15.9120648 5.00678848,15.9120648 5.01914583,15.9118599 C5.24322017,15.8948845 5.45710931,15.8100079 5.63025765,15.6674152 L8.44544612,12.8522267 L14.3202678,12.8522267 L14.3202678,12.8522267 C15.1580066,12.8593824 15.8429293,12.1860623 15.8500844,11.3483235 C15.8501581,11.3396859 15.8501581,11.3310478 15.8500844,11.3224103 L15.8500844,1.53239887 L15.8500844,1.53239867 C15.9055116,0.743450127 15.3108753,0.0589475942 14.5219267,0.00352102507 C14.4753802,0.000250924333 14.4287018,-0.000742227865 14.3820583,0.000545101469 L1.53106105,0.000545101469 L1.53106126,0.000541070633 Z M9.85305155,9.058571 L3.24489572,9.058571 L3.24489568,9.058571 C2.80538533,9.058571 2.44909282,8.70227689 2.44909282,8.26276813 C2.44909282,7.82325778 2.80538692,7.46696527 3.24489568,7.46696527 L9.85305152,7.46696527 L9.85305152,7.46696527 C10.2923741,7.47980202 10.638109,7.84634953 10.6252725,8.28567209 C10.6129629,8.70695412 10.2743335,9.04558328 9.85305152,9.05789305 L9.85305155,9.058571 Z M12.6675557,5.38647326 L3.24352708,5.38647326 L3.2435271,5.38647326 C2.81810256,5.39984428 2.46238774,5.06580825 2.44901649,4.64038371 C2.44848866,4.62358975 2.44851017,4.60678306 2.44908101,4.58999054 L2.449081,4.58999074 C2.45636458,4.15375557 2.80863756,3.80208458 3.24488387,3.79554537 L12.6689125,3.79554537 L12.6689125,3.79554537 C13.1150878,3.80425029 13.4697284,4.173004 13.4610232,4.61917929 C13.4570788,4.82135226 13.3774736,5.01469913 13.237926,5.16104132 L13.237926,5.16104133 C13.0875035,5.31150724 12.8815698,5.39309353 12.6689125,5.38647316 L12.6675545,5.38647316 L12.6675557,5.38647326 Z" id="Shape-Copy" fill="#608DFF" opacity="0.999488467"></path>
                    <path d="M15.2617392,0.272124777 C15.6484576,0.552800925 15.8860388,1.02062525 15.8500844,1.53239867 L15.8500844,1.53239867 L15.8500844,11.3483235 C15.8429293,12.1860623 15.1580066,12.8593824 14.3202678,12.8522267 L14.3202678,12.8522267 L8.44544612,12.8522267 L5.63025765,15.6674152 C5.45710931,15.8100079 5.24322017,15.8948845 5.01914583,15.9118599 L5.01914583,15.9118599 L4.98206917,15.9118599 C4.51904693,15.9016222 4.15199256,15.5179681 4.16223083,15.0549459 L4.16223083,15.0549459 L4.16223084,12.8522217 L3.05319127,12.8513496 L6.73419127,9.0583496 L9.85305155,9.058571 C10.2743335,9.04558328 10.6129629,8.70695412 10.6252725,8.28567209 C10.638109,7.84634953 10.2923741,7.47980202 9.85305152,7.46696527 L9.85305152,7.46696527 L8.27919127,7.4663496 L10.2971913,5.3863496 L12.6689125,5.38647316 C12.8461269,5.39199014 13.0186722,5.33625249 13.1583147,5.23044484 L13.237926,5.16104133 L13.3143357,5.06790087 C13.4062892,4.93700734 13.4578677,4.78091767 13.4610232,4.61917929 C13.4697284,4.173004 13.1150878,3.80425029 12.6689125,3.79554537 L12.6689125,3.79554537 L11.8411913,3.7953496 Z" id="Combined-Shape" fill="#4E79F2"></path>
                </g>
            </g>
        </g>
    </g>
</svg>