<?xml version="1.0" encoding="UTF-8"?>
<svg width="312px" height="186px" viewBox="0 0 312 186" version="1.1" xmlns="http://www.w3.org/2000/svg" xmlns:xlink="http://www.w3.org/1999/xlink">
    <title>Group 6</title>
    <defs>
        <linearGradient x1="50%" y1="0%" x2="50%" y2="96.8855574%" id="linearGradient-1">
            <stop stop-color="#3B6FFF" offset="0%"></stop>
            <stop stop-color="#6B92FF" offset="100%"></stop>
        </linearGradient>
        <path d="M306,0 C308.209139,-8.49901461e-16 310,1.790861 310,4 L310.000376,134.876656 C274.67924,165.93053 218.618906,186 155.5,186 C91.7790639,186 35.2519922,165.545858 -0.0053861584,133.985088 L-1.73472348e-18,4 C-2.72351586e-16,1.790861 1.790861,4.05812251e-16 4,0 L306,0 Z" id="path-2"></path>
        <linearGradient x1="54.0214879%" y1="11.2180558%" x2="32.1491107%" y2="83.9428134%" id="linearGradient-4">
            <stop stop-color="#DE600F" offset="0%"></stop>
            <stop stop-color="#E78E46" offset="19%"></stop>
            <stop stop-color="#E2761C" offset="67%"></stop>
            <stop stop-color="#DE600F" offset="100%"></stop>
        </linearGradient>
        <linearGradient x1="6.99225915e-05%" y1="49.8951942%" x2="100.022613%" y2="49.8951942%" id="linearGradient-5">
            <stop stop-color="#676763" offset="0%"></stop>
            <stop stop-color="#C9C9C6" offset="19%"></stop>
            <stop stop-color="#44433F" offset="100%"></stop>
        </linearGradient>
        <linearGradient x1="65.1240558%" y1="74.0720342%" x2="39.6926487%" y2="6.72473788%" id="linearGradient-6">
            <stop stop-color="#2BA23A" offset="0%"></stop>
            <stop stop-color="#96C03F" offset="19%"></stop>
            <stop stop-color="#58AC48" offset="70%"></stop>
            <stop stop-color="#169243" offset="100%"></stop>
        </linearGradient>
    </defs>
    <g id="全部" stroke="none" stroke-width="1" fill="none" fill-rule="evenodd">
        <g id="XDR安全运营平台/门户4" transform="translate(-485.000000, -146.000000)">
            <g id="Group-6" transform="translate(486.000000, 146.000000)">
                <g id="Oval">
                    <mask id="mask-3" fill="white">
                        <use xlink:href="#path-2"></use>
                    </mask>
                    <use id="Mask" fill="url(#linearGradient-1)" xlink:href="#path-2"></use>
                    <ellipse fill-opacity="0.076486014" fill="#FFFFFF" mask="url(#mask-3)" cx="155" cy="93" rx="169" ry="93"></ellipse>
                    <circle id="Oval-Copy-4" fill-opacity="0.076486014" fill="#FFFFFF" mask="url(#mask-3)" cx="154" cy="66" r="134"></circle>
                </g>
                <g id="Group-4" transform="translate(113.000000, 20.000000)" fill="#FFFFFF">
                    <circle id="Oval-Copy-2" fill-opacity="0.221481643" cx="41" cy="41" r="41"></circle>
                    <circle id="Oval-Copy" cx="41" cy="41" r="36"></circle>
                </g>
                <g id="Group-3" transform="translate(134.000000, 40.000000)" fill-rule="nonzero">
                    <path d="M10.4025225,2.78527172 C0.455885471,8.53717782 -2.95202193,21.2587131 2.78725938,31.2126401 L2.78725938,31.2126401 C5.1525362,35.3155012 8.84970546,38.4861748 13.2651541,40.1984296 L13.2651541,40.1984296 C13.2651541,40.1984296 12.9225225,31.7763244 10.778312,31.3563244 L10.778312,31.3563244 C8.56778569,30.9584296 5.30725938,28.1179033 7.36304885,22.5915875 L7.36304885,22.5915875 C8.54568043,19.4747454 9.94936464,16.3136928 15.4756804,8.23421909 L15.4756804,8.23421909 C15.4756804,8.23421909 18.4267331,4.53158751 20.5267331,3.31579804 L20.5267331,3.31579804 C23.7578049,1.24567224 27.8465365,1.05197332 31.2588383,2.80737698 L31.2588383,2.80737698 C28.0784009,0.965196005 24.4674284,-0.00332249619 20.7919962,-3.40443463e-12 L20.7919962,-3.40443463e-12 C17.1448794,0.00406264427 13.5625837,0.964422762 10.4025225,2.78527172" id="Path" fill="url(#linearGradient-4)"></path>
                    <path d="M34.9835752,24.2052717 C35.7130489,26.2942191 34.9062067,30.5605349 29.0814699,31.5442191 L29.0814699,31.5442191 C25.7656804,32.0968507 22.3504173,32.4726401 12.5909436,31.7210612 L12.5909436,31.7210612 C12.5909436,31.7210612 7.9046278,31.0026401 5.81568043,29.8421138 L5.81568043,29.8421138 C2.39270582,28.0766393 0.175187485,24.6154558 0.00196712985,20.7679033 L0.00196712985,20.7679033 C-0.0104333308,28.2146948 3.96102465,35.0993985 10.4135752,38.8168507 L10.4135752,38.8168507 C15.1908875,41.5785958 20.8701683,42.3277949 26.200236,40.8993948 C31.5303037,39.4709947 36.0738458,35.9821904 38.829891,31.2015875 L38.829891,31.2015875 C41.1918116,27.1168051 42.0849637,22.3468269 41.3609436,17.6842191 L41.3609436,17.6842191 C41.3609436,17.6842191 34.2651541,22.1052717 34.9835752,24.1942191" id="Shape" fill="url(#linearGradient-5)"></path>
                    <path d="M20.5267331,3.31579804 C19.1187678,4.27043944 17.8503171,5.41613681 16.7577857,6.72000856 L16.7577857,6.72000856 C18.2609436,5.08421909 22.2841015,3.7910612 25.9535752,8.25632435 L25.9535752,8.25632435 C28.0867331,10.8426401 30.1314699,13.6279033 34.3646278,22.4589559 L34.3646278,22.4589559 C34.3646278,22.4589559 36.0888383,26.8800086 36.0888383,29.2894822 L36.0888383,29.2894822 C36.2633521,33.1233213 34.38574,36.7606684 31.1593646,38.8389559 L31.1593646,38.8389559 C37.6221598,35.1313841 41.6099472,28.2518184 41.6151541,20.8010612 L41.6151541,20.8010612 C41.6142052,17.1535343 40.6536338,13.5704505 38.829891,10.4115875 L38.829891,10.4115875 C36.9936312,7.23587339 34.3514252,4.60129281 31.1704173,2.77421909 L31.1704173,2.77421909 C29.7538111,2.01795025 28.1669982,1.63741956 26.5614699,1.66895593 L26.5614699,1.66895593 C24.4397637,1.67540418 22.3576061,2.24361204 20.5267331,3.31579804" id="Shape" fill="url(#linearGradient-6)"></path>
                </g>
                <g id="Group-2" transform="translate(117.000000, 112.000000)" fill="#FFFFFF">
                    <path d="M52.8312221,13.7678443 L49.4380348,13.7678443 L46.3533191,11.8241486 L42.2814944,13.7678443 L38.8960189,13.7678443 L44.8726556,10.8875127 L41.9190403,9.02128312 C41.5352109,8.762522 41.366408,8.31408502 41.4948919,7.89450303 L41.4948919,7.89450303 L41.9807346,6.15503626 L39.4589796,6.15503626 L39.7520276,4.99304429 L42.2352237,4.99304429 L42.4665774,4.07049309 L44.9497735,4.07049309 L44.7184198,4.99304429 L51.4122529,4.99304429 L51.6436066,4.07049309 L54.1345145,4.07049309 L53.895449,4.99304429 L56.3786451,4.99304429 L56.0933089,6.15503626 L53.6101128,6.15503626 L53.162829,7.90154541 L53.162829,7.90154541 C53.0207758,8.3866492 52.6627965,8.79528081 52.17572,9.0283255 L48.2735547,10.8875127 L52.8312221,13.7678443 Z M44.0012234,7.82407927 C43.9530134,8.01355786 44.0243783,8.21178361 44.1863064,8.33817269 L46.8083147,9.9790462 L50.2709081,8.33817269 C50.484516,8.22661268 50.6401134,8.04138701 50.7027683,7.82407927 L50.7027683,7.82407927 L50.7027683,7.82407927 L51.1269167,6.16912101 L44.41766,6.16912101 L44.0012234,7.82407927 L44.0012234,7.82407927 Z M47.857118,1.687539e-12 L50.8415805,1.687539e-12 L50.5485325,1.16903435 L56.016191,1.16903435 C56.3452739,1.14810169 56.6652966,1.27298891 56.87618,1.50464056 C57.0870634,1.73629221 57.1630653,2.04643104 57.080418,2.33806869 L57.080418,2.33806869 C57.0785511,2.37325994 57.0785511,2.40851308 57.080418,2.44370433 L56.7719464,3.71837431 L54.2810385,3.71837431 L54.5509511,2.64793322 C54.574061,2.56999832 54.5539072,2.48666875 54.4970023,2.42487212 C54.4400973,2.36307548 54.3536573,2.33064808 54.2656149,2.33806869 L43.2686034,2.33806869 C43.0600834,2.33752091 42.8769244,2.46440787 42.8213197,2.64793322 L42.5591188,3.71837431 L40.0759227,3.71837431 L40.3689707,2.53525521 C40.3689707,2.46483145 40.4152414,2.3944077 40.4383768,2.33806869 L40.4383768,2.33806869 C40.6427514,1.65966008 41.3106749,1.18430376 42.0809879,1.16903435 L47.5486465,1.16903435 L47.857118,1.687539e-12 Z" id="Shape" fill-rule="nonzero"></path>
                    <polygon id="Path" fill-rule="nonzero" points="55.923761 12.5913231 62.7970597 12.5913231 63.6678849 9.14019433 57.8908929 9.14019433 58.1785762 7.95654273 63.9633434 7.95654273 64.5464852 5.62489169 61.0476341 5.62489169 61.3353174 4.44124009 64.8419438 4.44124009 67.477745 4.44124009 70.9843713 4.44124009 70.6889128 5.62489169 67.1822864 5.62489169 66.5991446 7.95654273 72.3761365 7.95654273 72.080678 9.14019433 66.303686 9.14019433 65.4328609 12.5913231 72.3061595 12.5913231 72.010701 13.7678443 65.1374023 13.7678443 62.5016011 13.7678443 55.6360777 13.7678443"></polygon>
                    <path d="M64.7329164,1.43216727 C64.9596189,1.27895499 65.2322015,1.1921495 65.5144318,1.18328924 L68.9062084,1.18328924 C69.2192967,1.16809296 69.5174051,1.30642582 69.6877237,1.54594008 L72.8137851,6.21773612 L75.3302645,6.21773612 L71.8368909,0.962854422 L71.8368909,0.962854422 C71.3912532,0.329933771 70.6064834,-0.0365892749 69.7815056,0.00289633073 L65.3112378,0.00289633073 C64.3803042,0.023957872 63.490314,0.355460903 62.8103886,0.934411219 L56.6207871,6.21773612 L59.1294513,6.21773612 L64.7329164,1.43216727 Z" id="Path" fill-rule="nonzero"></path>
                    <polygon id="Path" points="3.800866 0.444124009 19.6941868 0.444124009 19.3398035 1.77649603 3.44648269 1.77649603"></polygon>
                    <polygon id="Path" points="0.354383305 12.4354722 16.2477041 12.4354722 15.8933208 13.7678443 7.63833441e-14 13.7678443"></polygon>
                    <polygon id="Path" points="7.51010756 0.444124009 9.8470934 0.444124009 5.78346854 13.7678443 3.44648269 13.7678443"></polygon>
                    <polygon id="Path" points="13.9187492 0.444124009 16.2477041 0.444124009 12.1921101 13.7678443 9.8470934 13.7678443"></polygon>
                    <polygon id="Path" points="11.9955501 7.0541802 18.7094775 4.44124009 18.0458916 6.71366407 11.3241574 9.32660418"></polygon>
                    <polygon id="Path" points="7.87767472 7.0541802 2.66543813 4.44124009 1.96941868 6.71366407 7.17374596 9.32660418"></polygon>
                    <polygon id="Path" points="27.4401488 0.888248017 39.3883736 0.888248017 39.0198916 2.22062004 27.0795069 2.22062004"></polygon>
                    <polygon id="Path" points="26.4632795 3.10886806 38.4036643 3.10886806 38.0430223 4.44124009 26.0947975 4.44124009"></polygon>
                    <polygon id="Path" points="25.9630848 5.77361211 37.9113096 5.77361211 37.5428276 7.10598414 25.6024429 7.10598414"></polygon>
                    <path d="M26.804057,7.99423216 L27.5718615,7.99423216 L25.8596574,13.7678443 L23.6330242,13.7678443 L24.9152578,9.37226687 C25.1652342,8.58879835 25.9257322,8.03619866 26.811735,7.99423216 L26.804057,7.99423216 Z" id="Path"></path>
                    <polygon id="Path" points="36.9266003 7.99423216 35.751663 11.9913482 33.4801176 11.9913482 34.6472219 7.99423216"></polygon>
                    <polygon id="Path" points="26.9466493 7.99423216 36.9266003 7.99423216 36.5671032 9.32660418 26.5871522 9.32660418"></polygon>
                    <path d="M23.9834226,12.4354722 L42.8348563,12.4354722 L42.5233911,13.575305 C42.2139093,13.698901 41.8837996,13.7642017 41.5500622,13.7678443 L23.6330242,13.7678443 L23.9834226,12.4354722 Z" id="Path"></path>
                    <polygon id="Path" points="32.0030536 -1.60627067e-12 34.1162572 -1.60627067e-12 34.4648269 2.22062004 32.3516232 2.22062004"></polygon>
                    <path d="M26.7053173,9.65969719 L26.5871522,9.65969719 L26.7840941,8.99351118 L27.5718615,8.99351118 L27.5718615,9.10010094 L27.512779,9.10010094 C27.1577059,9.12132076 26.853109,9.33619625 26.7447057,9.64193223 L26.7053173,9.65969719 Z" id="Path"></path>
                    <polygon id="Path" points="21.5453438 2.08624987 21.0825546 3.54030281 23.0278382 2.54283654 19.6941868 13.7678443 21.9610698 13.7678443 26.0947975 1.69464442e-12"></polygon>
                </g>
                <text id="信池统一安全管理平台" font-family="PingFangSC-Semibold, PingFang SC" font-size="18" font-weight="500" letter-spacing="-1.08" fill="#FFFFFF">
                    <tspan x="71.4" y="152">信池统一安全管理平台</tspan>
                </text>
            </g>
        </g>
    </g>
</svg>