<?xml version="1.0" encoding="UTF-8"?>
<svg width="18px" height="18px" viewBox="0 0 18 18" version="1.1" xmlns="http://www.w3.org/2000/svg" xmlns:xlink="http://www.w3.org/1999/xlink">
    <title>客服</title>
    <g id="UAP运维中心" stroke="none" stroke-width="1" fill="none" fill-rule="evenodd">
        <g id="XDR安全运营平台/门户默认" transform="translate(-1126.000000, -21.000000)">
            <g id="客服" transform="translate(1126.000000, 21.000000)">
                <path d="M9.14787726,3.14285714 C11.2071971,3.14285714 12.8765933,4.85331094 12.8765933,6.96477541 C12.8765933,8.65294153 11.8067148,10.0837101 10.3248416,10.5891209 C12.7471092,11.2150193 14.5731288,13.3713943 14.7631042,16 L14.7631042,16 L3,16 C3.19798637,13.2555989 5.17752306,11.0199602 7.75935685,10.5098572 C6.38832987,9.94512427 5.41916126,8.57200206 5.41916126,6.96477541 C5.41916126,4.85398126 7.08855747,3.14285714 9.14787726,3.14285714 Z M9.17812619,1 C11.8898995,1 14.1093926,3.16960169 14.3617963,5.94037348 C14.7425178,6.18342987 15,6.61724383 15,7.11860301 C14.9997697,7.84394662 14.4654356,8.44636025 13.7747166,8.5 L13.7747166,8.5 L13.7747166,5.737206 C13.777933,5.73738328 13.7808108,5.73880155 13.7840272,5.73880155 C13.4490126,3.3858882 11.5188272,1.5775913 9.17812619,1.5775913 C6.76226271,1.5775913 4.78179974,3.50271834 4.54344673,5.96696607 L4.54344673,5.96696607 L4.54395457,8.5 C3.96162824,8.45659908 3.47583234,8.01743946 3.34978864,7.42047365 C3.22374494,6.82350785 3.48744681,6.21079 3.99801108,5.91431273 C4.26141824,3.15612811 6.4748171,1 9.17812619,1 Z" id="形状结合" fill="#53627C" fill-rule="nonzero"></path>
                <rect id="矩形" x="0" y="0" width="18" height="18"></rect>
            </g>
        </g>
    </g>
</svg>