<?xml version="1.0" encoding="UTF-8"?>
<svg width="48px" height="38px" viewBox="0 0 48 38" version="1.1" xmlns="http://www.w3.org/2000/svg" xmlns:xlink="http://www.w3.org/1999/xlink">
    <title>编组 3</title>
    <g id="UAP运维中心" stroke="none" stroke-width="1" fill="none" fill-rule="evenodd">
        <g id="XDR安全运营平台/门户快捷" transform="translate(-1031.000000, -319.000000)">
            <g id="产品" transform="translate(13.000000, 319.000000)">
                <g id="SAAS" transform="translate(1016.000000, 0.000000)">
                    <g id="编组-3" transform="translate(2.000000, 0.000000)">
                        <path d="M48,0 L48,17.0829063 C48,18.3050589 47.4412729,19.4601521 46.4831251,20.2188415 L26.0401065,36.4062203 C24.5614678,37.5770496 22.4658677,37.555922 21.0111354,36.3555189 L1.45415397,20.2176616 C0.533297118,19.4577971 0,18.326317 0,17.1324278 L0,0 L48,0 Z M24.175,34.258 L23.166,34.258 L23.1019063,34.7126897 C23.4744075,34.7658906 23.8523308,34.7722727 24.2264062,34.7316962 L24.175,34.258 Z M23.2432923,33.7227351 L23.1720358,34.2176319 C23.5034123,34.2650073 23.8395908,34.2707032 24.1722676,34.2346358 L24.1185673,33.7375278 C23.8274107,33.76911 23.5332127,33.7641418 23.2432923,33.7227351 Z M25.760781,33.1155554 C25.5204124,33.2857565 25.2615155,33.4237967 24.9893823,33.5277847 L25.1673908,33.9950246 C25.5402304,33.8526081 25.896544,33.6522915 26.2228178,33.3939384 L25.760781,33.1155554 Z M21.6287379,33.0498002 L21.3270933,33.4485614 C21.5986773,33.6540951 21.8902338,33.8205538 22.1941797,33.9478611 L22.3867582,33.4864351 C22.1181154,33.3738568 21.8637161,33.2276421 21.6287379,33.0498002 Z M27.3109623,31.8945456 L26.5269784,32.5153268 L26.836,32.907 L27.62,32.286 L27.3109623,31.8945456 Z M20.0607227,31.7599666 L19.742,32.145 L20.513,32.782 L20.8320312,32.3964281 L20.0607227,31.7599666 Z M28.8789299,30.6529831 L28.0949461,31.2737643 L28.404,31.665 L29.189,31.044 L28.8789299,30.6529831 Z M18.5181058,30.4870436 L18.199,30.873 L18.97,31.509 L19.2894142,31.1235051 L18.5181058,30.4870436 Z M30.4468975,29.4114205 L29.6629137,30.0322018 L29.972,30.424 L30.756,29.803 L30.4468975,29.4114205 Z M16.9754888,29.2141206 L16.657,29.6 L17.428,30.236 L17.7467973,29.8505821 L16.9754888,29.2141206 Z M32.0148652,28.169858 L31.2308813,28.7906393 L31.54,29.182 L32.325,28.561 L32.0148652,28.169858 Z M15.4328719,27.9411976 L15.114,28.326 L15.885,28.963 L16.2041804,28.5776591 L15.4328719,27.9411976 Z M33.5828328,26.9282955 L32.798849,27.5490767 L33.108,27.941 L33.892,27.32 L33.5828328,26.9282955 Z M13.890255,26.6682746 L13.571,27.054 L14.343,27.69 L14.6615635,27.3047361 L13.890255,26.6682746 Z M35.1508004,25.6867329 L34.3668166,26.3075142 L34.676,26.699 L35.46,26.078 L35.1508004,25.6867329 Z M12.3476381,25.3953515 L12.029,25.781 L12.8,26.417 L13.1189465,26.0318131 L12.3476381,25.3953515 Z M36.718768,24.4451704 L35.9347842,25.0659517 L36.245,25.457 L37.028,24.837 L36.718768,24.4451704 Z M10.8050211,24.1224285 L10.486,24.508 L11.257,25.144 L11.5763296,24.75889 L10.8050211,24.1224285 Z M38.2867357,23.2036079 L37.5027519,23.8243891 L37.812,24.216 L38.596,23.595 L38.2867357,23.2036079 Z M9.26240419,22.8495055 L8.944,23.234 L9.715,23.871 L10.0337127,23.485967 L9.26240419,22.8495055 Z M39.8547033,21.9620454 L39.0707195,22.5828266 L39.381,22.974 L40.164,22.354 L39.8547033,21.9620454 Z M7.71978726,21.5765825 L7.401,21.962 L8.173,22.598 L8.49109573,22.213044 L7.71978726,21.5765825 Z M41.4226709,20.7204828 L40.6386871,21.3412641 L40.948,21.733 L41.732,21.112 L41.4226709,20.7204828 Z M6.17717033,20.3036595 L5.858,20.689 L6.63,21.325 L6.9484788,20.940121 L6.17717033,20.3036595 Z M42.9906386,19.4789203 L42.2066547,20.0997016 L42.517,20.491 L43.301,19.87 L42.9906386,19.4789203 Z M4.6345534,19.0307365 L4.316,19.416 L5.087,20.052 L5.40586187,19.667198 L4.6345534,19.0307365 Z M44.5213989,18.2264635 C44.4219124,18.3297862 44.3160045,18.4270551 44.2041533,18.5177293 L43.7744357,18.858287 L44.085,19.25 L44.4831251,18.9348942 C44.6248024,18.8227099 44.7577467,18.7018586 44.8814429,18.5734049 L44.5213989,18.2264635 Z M3.3302255,17.7366791 L2.90901739,18.006093 C3.08808699,18.2856673 3.30263811,18.5440024 3.54932074,18.7739908 L3.89059849,18.4085736 C3.67596726,18.208517 3.48788351,17.9827757 3.3302255,17.7366791 Z M46,16.813 L46,17.855 L46.0781704,17.7012023 C46.1973303,17.4457439 46.2923742,17.1793661 46.3618467,16.9055741 L46,16.813 Z M45.3925636,16.6596264 C45.3205197,16.9435526 45.2131045,17.217263 45.0730076,17.4742635 L45.5126058,17.712496 C45.6720613,17.4197687 45.794724,17.1075277 45.8771099,16.7829756 L45.3925636,16.6596264 Z M2.277,16.097 L1.78592636,16.1283277 L1.81232263,16.4096126 C1.84750232,16.6896362 1.90893185,16.9654867 1.9957076,17.2336633 L2.277,17.142 L2.277,16.097 Z M2.78399467,16.0662017 L2.28497007,16.0974182 C2.30593452,16.434008 2.36919947,16.7638065 2.47141389,17.0797038 L2.9471389,16.9258022 C2.8571556,16.6477127 2.80222338,16.3590498 2.78399467,16.0662017 Z M46.5,14.790298 L45.5,14.790298 L45.5,15.790298 L46.5,15.790298 L46.5,14.790298 Z M2.77722772,14.0176077 L1.77722772,14.0176077 L1.77722772,15.0176077 L2.77722772,15.0176077 L2.77722772,14.0176077 Z M46.5,12.790298 L45.5,12.790298 L45.5,13.790298 L46.5,13.790298 L46.5,12.790298 Z M2.77722772,12.0176077 L1.77722772,12.0176077 L1.77722772,13.0176077 L2.77722772,13.0176077 L2.77722772,12.0176077 Z M46.5,10.790298 L45.5,10.790298 L45.5,11.790298 L46.5,11.790298 L46.5,10.790298 Z M2.77722772,10.0176077 L1.77722772,10.0176077 L1.77722772,11.0176077 L2.77722772,11.0176077 L2.77722772,10.0176077 Z M46.5,8.79029803 L45.5,8.79029803 L45.5,9.79029803 L46.5,9.79029803 L46.5,8.79029803 Z M2.77722772,8.01760766 L1.77722772,8.01760766 L1.77722772,9.01760766 L2.77722772,9.01760766 L2.77722772,8.01760766 Z M46.5,6.79029803 L45.5,6.79029803 L45.5,7.79029803 L46.5,7.79029803 L46.5,6.79029803 Z M2.77722772,6.01760766 L1.77722772,6.01760766 L1.77722772,7.01760766 L2.77722772,7.01760766 L2.77722772,6.01760766 Z M46.5,4.79029803 L45.5,4.79029803 L45.5,5.79029803 L46.5,5.79029803 L46.5,4.79029803 Z M2.77722772,4.01760766 L1.77722772,4.01760766 L1.77722772,5.01760766 L2.77722772,5.01760766 L2.77722772,4.01760766 Z M46.5,2.79029803 L45.5,2.79029803 L45.5,3.79029803 L46.5,3.79029803 L46.5,2.79029803 Z M2.77722772,2.01760766 L1.77722772,2.01760766 L1.77722772,3.01760766 L2.77722772,3.01760766 L2.77722772,2.01760766 Z M46.5,0.790298029 L45.5,0.790298029 L45.5,1.79029803 L46.5,1.79029803 L46.5,0.790298029 Z M2.77722772,0.0176076605 L1.77722772,0.0176076605 L1.77722772,1.01760766 L2.77722772,1.01760766 L2.77722772,0.0176076605 Z" id="形状结合" fill-opacity="0.3" fill="#0A1F44" opacity="0.5"></path>
                        <g id="0.Icon/6.病毒/高级威胁" transform="translate(15.248711, 5.278389)">
                            <g id="icon/放大镜/1">
                                <rect id="矩形" x="0" y="0" width="18" height="18.0736913"></rect>
                            </g>
                            <path d="M8.99449373,0 C8.99449373,0 11.885286,1.45776382 13.457877,1.45776382 C15.0805751,1.45776382 16.7032732,0.735332189 16.7032732,0.735332189 L16.7032732,10.1269434 C16.7032732,14.5157155 10.2111961,18.0736913 8.99449373,18.0736913 C7.77779137,18.0736913 1.28571429,14.5157155 1.28571429,10.1269434 L1.28571429,0.735332189 C1.28571429,0.735332189 2.90969715,1.45776382 4.53111044,1.45776382 C6.15509331,1.45776382 8.99449373,0 8.99449373,0 Z M9.02789844,3.88307 C6.17565004,3.88307 3.85530743,6.19743132 3.85530743,9.04329592 C3.85530743,11.8891605 6.17565004,14.2035218 9.02789844,14.2035218 C11.8801468,14.2035218 14.1992047,11.8878704 14.1992047,9.04329592 C14.1992047,6.19872138 11.878862,3.88307 9.02789844,3.88307 Z M12.099847,7.03596805 C12.4801468,7.61262329 12.7011318,8.30151345 12.7024166,9.04329592 C12.6939189,11.0736854 11.0500229,12.7139229 9.02789844,12.7096448 C8.3125832,12.7105426 7.61251375,12.5020827 7.01333742,12.1097602 L12.099847,7.03596805 Z M9.02789844,5.37694956 C9.77051085,5.37824546 10.4617314,5.59884512 11.0398899,5.97812173 L5.95594983,11.0532039 C5.56233264,10.4573744 5.35230095,9.75829132 5.35209545,9.04329592 C5.36129857,7.01320289 7.00478005,5.373379 9.02661365,5.37694956 L9.02789844,5.37694956 Z" id="形状" fill="#FFFFFF"></path>
                        </g>
                    </g>
                </g>
            </g>
        </g>
    </g>
</svg>