<?xml version="1.0" encoding="UTF-8"?>
<svg width="20px" height="20px" viewBox="0 0 20 20" version="1.1" xmlns="http://www.w3.org/2000/svg" xmlns:xlink="http://www.w3.org/1999/xlink">
    <title>Group</title>
    <g id="UAP运维中心" stroke="none" stroke-width="1" fill="none" fill-rule="evenodd">
        <g id="XDR安全运营平台/登录备份-5" transform="translate(-365.000000, -181.000000)" fill="#FFFFFF">
            <g id="5.反馈/1.Alert警告提示/亮色/短暂提示/失败" transform="translate(345.000000, 165.000000)">
                <g id="Group" transform="translate(20.000000, 16.000000)">
                    <path d="M10,0 C15.5,0 20,4.5 20,10 C20,15.5 15.5,20 10,20 C4.5,20 0,15.5 0,10 C0,4.5 4.5,0 10,0 Z M10.382113,13.6333315 C9.6016263,13.6333315 9.01626066,14.2333319 9.01626066,15.0333317 C9.11382237,15.7333329 9.6016263,16.3333333 10.2845536,16.3333333 C10.9674787,16.3333333 11.552845,15.7333329 11.650406,14.9333332 C11.5528443,14.2333319 11.0650404,13.6333315 10.382113,13.6333315 Z M10.7723576,3.33333333 L9.89430911,3.33333333 C8.82113726,3.33333333 8.33333333,4.03333223 8.33333333,4.73333348 L8.33333333,4.73333348 L8.91869896,11.0333376 C8.91869896,11.7333389 9.40650289,12.3333333 10.0894302,12.3333333 L10.0894302,12.3333333 L10.4796747,12.3333333 C11.1626021,12.3333333 11.650406,11.7333389 11.650406,11.0333376 L11.650406,11.0333376 L12.3333333,4.73333348 C12.3333333,3.93333373 11.7479677,3.33333333 10.7723576,3.33333333 L10.7723576,3.33333333 Z" id="Combined-Shape"></path>
                </g>
            </g>
        </g>
    </g>
</svg>