<?xml version="1.0" encoding="UTF-8"?>
<svg width="14px" height="14px" viewBox="0 0 14 14" version="1.1" xmlns="http://www.w3.org/2000/svg" xmlns:xlink="http://www.w3.org/1999/xlink">
    <title>Shape</title>
    <g id="UAP运维中心" stroke="none" stroke-width="1" fill="none" fill-rule="evenodd">
        <g id="XDR安全运营平台/登录备份-5" transform="translate(-351.000000, -513.000000)" fill="#4E79F2">
            <g id="Group-4" transform="translate(321.000000, 102.000000)">
                <g id="编组-3" transform="translate(0.000000, 384.000000)">
                    <g id="编组-4" transform="translate(30.000000, 16.000000)">
                        <g id="0.Icon/2.常用/提示/疑问/面性" transform="translate(0.000000, 11.000000)">
                            <path d="M6.99998373,0 C3.13472013,0 0,3.13470386 0,6.99998373 C0,10.8652961 3.13470386,14 6.99998373,14 C10.8652636,14 13.9999675,10.8652961 13.9999675,6.99998373 C13.9999675,3.13472013 10.8652961,0 6.99998373,0 M6.95497342,11.8983287 C6.38529858,11.8983287 5.92179437,11.4445836 5.92179437,10.8861504 C5.92179437,10.327797 6.38365497,9.87397216 6.95497342,9.87397216 C7.52455061,9.87397216 7.9880532,10.327797 7.9880532,10.8861504 C7.9880532,11.4445836 7.52619259,11.8983287 6.95497342,11.8983287 M9.72915737,6.17129566 C9.5264532,6.48991168 9.0967162,6.92275364 8.43700089,7.47150745 C8.09584139,7.75469312 7.8834562,7.98316777 7.8013734,8.1570144 C7.71932949,8.32915883 7.68067295,8.63821263 7.6886892,9.08394145 L6.21795544,9.08394145 C6.2147291,8.87310224 6.21152257,8.74432467 6.21152257,8.69765268 C6.21152257,8.2213625 6.29034012,7.83038212 6.44803463,7.52298983 C6.60570928,7.21561707 6.92111734,6.86964717 7.39265733,6.48666352 C7.86415664,6.10205742 8.14734231,5.85103603 8.23912404,5.73197854 C8.38070662,5.54372348 8.45307146,5.33612917 8.45307146,5.11078063 C8.45307146,4.79701407 8.3260371,4.5283182 8.0749568,4.30304939 C7.82393542,4.07934446 7.48275639,3.96667914 7.05634566,3.96667914 C6.64438405,3.96667914 6.29997801,4.08415324 6.02322683,4.31751803 C5.74643496,4.55078356 5.50828091,5.06577016 5.45192791,5.38438618 C5.3988221,5.68532608 3.94897128,5.81246004 3.96664577,5.20256398 C3.9843214,4.59266792 4.30139194,3.93130901 4.84525723,3.45179507 C5.38922179,2.97225835 6.10368555,2.73244117 6.98710742,2.73244117 C7.91728101,2.73244117 8.6558749,2.97546582 9.20619095,3.46137519 C9.75652816,3.94734477 10.0301506,4.5122092 10.0301506,5.15744936 C10.0316578,5.51468205 9.93031522,5.85265523 9.72915475,6.17129078" id="Shape"></path>
                        </g>
                    </g>
                </g>
            </g>
        </g>
    </g>
</svg>